<svg width="17" height="16" viewBox="0 0 17 16" fill="none" xmlns="http://www.w3.org/2000/svg">
<path fill-rule="evenodd" clip-rule="evenodd" d="M7.6932 2.92482L7.63775 2.86201C7.39742 2.62169 7.01927 2.6032 6.75774 2.80655L6.69494 2.86201L2.02827 7.52868L2.00067 7.55798L1.9639 7.60321L1.91612 7.67737L1.88049 7.75253L1.8569 7.82275L1.83761 7.92135L1.83301 8.00008L1.83487 8.05024L1.8465 8.1339L1.86617 8.20818L1.89546 8.28223L1.93034 8.34722L1.97947 8.41705L2.02827 8.47149L6.69494 13.1382C6.95529 13.3985 7.3774 13.3985 7.63775 13.1382C7.87807 12.8978 7.89655 12.5197 7.6932 12.2582L7.63775 12.1953L4.11034 8.66675H14.4997C14.8679 8.66675 15.1663 8.36827 15.1663 8.00008C15.1663 7.63189 14.8679 7.33342 14.4997 7.33342H4.10901L7.63775 3.80482C7.87807 3.5645 7.89655 3.18634 7.6932 2.92482L7.63775 2.86201L7.6932 2.92482Z" fill="#9E9E9E"/>
</svg>
