<svg width="17" height="16" viewBox="0 0 17 16" fill="none" xmlns="http://www.w3.org/2000/svg">
<path fill-rule="evenodd" clip-rule="evenodd" d="M9.3068 2.92482L9.36225 2.86201C9.60258 2.62169 9.98073 2.6032 10.2423 2.80655L10.3051 2.86201L14.9717 7.52868L14.9993 7.55798L15.0361 7.60321L15.0839 7.67737L15.1195 7.75253L15.1431 7.82275L15.1624 7.92135L15.167 8.00008L15.1651 8.05024L15.1535 8.1339L15.1338 8.20818L15.1045 8.28223L15.0697 8.34722L15.0205 8.41705L14.9717 8.47149L10.3051 13.1382C10.0447 13.3985 9.6226 13.3985 9.36225 13.1382C9.12193 12.8978 9.10345 12.5197 9.3068 12.2582L9.36225 12.1953L12.8897 8.66675H2.50033C2.13214 8.66675 1.83366 8.36827 1.83366 8.00008C1.83366 7.63189 2.13214 7.33342 2.50033 7.33342H12.891L9.36225 3.80482C9.12193 3.5645 9.10345 3.18634 9.3068 2.92482L9.36225 2.86201L9.3068 2.92482Z" fill="#9E9E9E"/>
</svg>
