<svg width="87" height="39" viewBox="0 0 87 39" fill="none" xmlns="http://www.w3.org/2000/svg">
<path fill-rule="evenodd" clip-rule="evenodd" d="M10.487 20.8294L10.4338 22.5123C10.2676 22.4681 10.0988 22.4341 9.92828 22.4104C9.74293 22.3833 9.55673 22.3622 9.36996 22.3471C9.17002 22.3325 8.96736 22.317 8.76606 22.3064C8.56568 22.2963 8.36506 22.2915 8.16441 22.2918C7.33393 22.2918 6.53911 22.4631 6.51248 23.3406C6.49037 24.0836 7.09156 24.56 7.89631 24.56C8.25107 24.56 8.64465 24.5365 9.07659 24.4909C9.54294 24.4433 10.0075 24.3801 10.4694 24.3014V26.1786C10.2848 26.2247 10.0623 26.265 9.80461 26.2982C9.55186 26.3283 9.27879 26.3588 8.98767 26.3845C8.68978 26.408 8.39686 26.4297 8.10845 26.4478C7.82184 26.4624 7.5402 26.4704 7.26578 26.4704C6.60456 26.4704 6.01825 26.4133 5.50913 26.2982C5.00227 26.183 4.56898 26.0068 4.21331 25.7709C3.86151 25.5415 3.58485 25.2172 3.41669 24.8371C3.23976 24.4497 3.15039 23.98 3.15039 23.431C3.15039 22.9249 3.24517 22.4866 3.43339 22.1182C3.61879 21.7502 3.90816 21.4422 4.26703 21.231C4.64525 21.0016 5.08712 20.8272 5.58857 20.7103C6.08731 20.6005 6.64834 20.5452 7.26578 20.5452C7.52531 20.5452 7.78934 20.5514 8.05564 20.5633C8.29485 20.5713 8.55348 20.5894 8.82744 20.616C9.06711 20.6359 9.32754 20.666 9.60873 20.7023C9.87818 20.7377 10.1716 20.7798 10.487 20.8294ZM14.3515 23.7453C14.2007 23.7453 14.0685 23.759 13.957 23.7851C13.855 23.81 13.7578 23.8508 13.6691 23.906C13.5956 23.9609 13.5376 24.0333 13.5007 24.1163C13.4596 24.2163 13.44 24.3234 13.4429 24.4311C13.4429 24.5462 13.4623 24.6423 13.5007 24.718C13.5382 24.7968 13.5946 24.8623 13.6691 24.9159C13.7512 24.973 13.8473 25.0146 13.957 25.0386C14.0662 25.0629 14.1985 25.0757 14.3515 25.0757C14.5113 25.0757 14.6503 25.0629 14.764 25.0377C14.8655 25.0188 14.9625 24.9815 15.0502 24.9279C15.1292 24.8734 15.1892 24.8052 15.2262 24.722C15.2601 24.6432 15.2777 24.5458 15.2777 24.4307C15.2777 24.3111 15.2601 24.2075 15.2262 24.1212C15.1879 24.0368 15.1271 23.9642 15.0502 23.9109C14.9598 23.8534 14.8603 23.8107 14.7559 23.7847C14.6229 23.7574 14.4873 23.7441 14.3515 23.7453ZM15.2569 26.4438L15.2555 25.9586C15.1662 26.0781 15.0542 26.1782 14.9193 26.2596C14.7699 26.3458 14.6077 26.4085 14.4386 26.4456C14.0365 26.532 13.6261 26.5755 13.2145 26.5753C12.7009 26.5753 12.2581 26.531 11.8871 26.4456C11.5098 26.3584 11.202 26.226 10.9668 26.048C10.734 25.871 10.552 25.6378 10.4388 25.3711C10.3219 25.0979 10.2627 24.7742 10.2627 24.4041C10.2627 24.0548 10.3191 23.7444 10.4302 23.4743C10.5375 23.2092 10.7127 22.9758 10.9388 22.7965C11.1668 22.6114 11.4611 22.4724 11.8203 22.3799C12.1728 22.2882 12.5912 22.2417 13.0746 22.2417C13.3161 22.2417 13.5449 22.2546 13.7607 22.2781C13.9683 22.3051 14.161 22.3436 14.3357 22.3932C14.5203 22.4494 14.685 22.5202 14.8277 22.6052C14.982 22.6995 15.1156 22.8102 15.2267 22.9346L15.2555 22.3113H18.3089V26.4447H15.2569V26.4438ZM19.4116 26.6404V22.4627H22.2275C22.2275 22.4644 22.1576 23.2286 22.2311 23.0794C22.311 22.916 22.4013 22.7837 22.4988 22.6858C22.5963 22.5862 22.7317 22.5118 22.9041 22.4636C23.0751 22.4171 23.2805 22.3936 23.5188 22.3936H23.7124C23.7463 22.3954 23.7887 22.3989 23.8379 22.4007C23.888 22.4025 23.9277 22.406 23.9562 22.4078C23.9787 22.4122 24.0126 22.4149 24.0568 22.4149L24.166 22.4295H24.2175C24.2328 22.4339 24.2468 22.4366 24.259 22.4366H24.2929C24.2983 22.441 24.3051 22.4436 24.3105 22.4436L24.3254 24.0375H23.5008C23.2773 24.0375 23.0864 24.0504 22.9276 24.0782C22.7646 24.1057 22.6405 24.1482 22.557 24.1969C22.4669 24.2472 22.3956 24.3245 22.3534 24.4174C22.3092 24.5143 22.2889 24.6352 22.288 24.7769L22.2731 26.6413H19.4116V26.6404ZM28.9233 22.6531H31.7862V26.9981C31.7862 27.2992 31.7117 27.5626 31.5654 27.7858C31.421 28.0063 31.2048 28.1869 30.9178 28.3281C30.6289 28.4707 30.2498 28.577 29.7813 28.6447C29.3042 28.72 28.7346 28.758 28.0743 28.758C27.9014 28.758 27.6491 28.7979 27.3318 28.7417C26.8507 28.6562 24.7379 28.7089 24.445 28.3631L24.9257 27.3723C25.0065 27.3878 25.0633 27.3993 25.094 27.4041C25.1554 27.4214 25.2231 27.4342 25.2953 27.4457C25.3716 27.4621 25.4506 27.4767 25.5314 27.4856C25.6167 27.5038 25.7065 27.5184 25.8004 27.5263C25.9633 27.5489 26.1317 27.5653 26.3045 27.5737C26.8291 27.6 27.3549 27.5922 27.8784 27.5502C28.1551 27.525 28.3672 27.4794 28.5116 27.4121C28.6394 27.3583 28.7476 27.2678 28.8222 27.1527C28.8894 27.0455 28.9228 26.906 28.9228 26.7382V25.8227C28.8723 25.9413 28.7874 26.0423 28.67 26.1237C28.5559 26.2034 28.3974 26.2636 28.1988 26.3106C28.0147 26.3539 27.8184 26.3929 27.6094 26.415C27.3968 26.4375 27.1832 26.4487 26.9694 26.4487C26.6312 26.4523 26.2942 26.4083 25.9687 26.3181C25.6726 26.2317 25.4231 26.1029 25.2186 25.9298C24.57 25.3826 24.487 24.5143 24.7573 23.7404C24.8512 23.4602 25.0001 23.2353 25.2023 23.0675C25.3969 22.905 25.6406 22.7797 25.934 22.6929C26.2224 22.6132 26.5659 22.5729 26.9617 22.5729C27.2483 22.5729 27.5006 22.5875 27.7182 22.6145C27.9371 22.6464 28.1199 22.6925 28.2661 22.7522C28.406 22.8111 28.5297 22.8846 28.6367 22.9709C28.7427 23.0546 28.8334 23.1551 28.9057 23.2702L28.9233 22.6531ZM27.284 24.4457C27.284 24.5529 27.2993 24.6454 27.3323 24.7224C27.3576 24.795 27.4048 24.8583 27.4677 24.904C27.529 24.9566 27.6175 24.9947 27.729 25.0182C27.8436 25.0425 27.9817 25.0554 28.1402 25.0554C28.3022 25.0554 28.443 25.0425 28.5613 25.0182C28.6728 24.9947 28.7635 24.9575 28.8303 24.9093C28.8971 24.865 28.9517 24.8021 28.991 24.7224C29.0275 24.635 29.0451 24.5411 29.0424 24.4466C29.0424 24.3341 29.0248 24.2372 28.991 24.1588C28.9528 24.0815 28.8948 24.0153 28.8226 23.9667C28.7376 23.9127 28.6437 23.8737 28.545 23.8516C28.4119 23.8256 28.2763 23.8134 28.1406 23.8153C27.9854 23.8153 27.8509 23.8299 27.7371 23.8578C27.6256 23.8852 27.5381 23.9251 27.4767 23.9764C27.4114 24.0293 27.3616 24.0982 27.3323 24.1761C27.2981 24.2623 27.2813 24.3542 27.2831 24.4466L27.284 24.4457ZM34.8531 24.4723C34.8531 24.5759 34.8729 24.6684 34.9122 24.749C34.9451 24.8322 34.9984 24.9004 35.0729 24.9531C35.1397 25.0076 35.2326 25.0474 35.3504 25.0709C35.4664 25.0983 35.6095 25.1125 35.7792 25.1125C35.9422 25.1125 36.083 25.0988 36.2012 25.0709C36.3043 25.0538 36.402 25.0134 36.4865 24.9531C36.5479 24.9004 36.5948 24.8322 36.6273 24.749C36.6612 24.672 36.6788 24.5794 36.6788 24.4732C36.6788 24.3625 36.6612 24.2691 36.6273 24.192C36.5964 24.1156 36.5483 24.047 36.4865 23.9915C36.3998 23.935 36.303 23.895 36.2012 23.8737C36.0627 23.8441 35.9211 23.8301 35.7792 23.8321C35.6109 23.8321 35.4678 23.8467 35.3504 23.8737C35.2505 23.8935 35.156 23.9336 35.0729 23.9915C35.0015 24.0425 34.9458 24.1119 34.9122 24.192C34.8729 24.2717 34.8531 24.3651 34.8531 24.4732V24.4723ZM32.7362 24.5276C32.7362 24.0884 32.8152 23.7174 32.9705 23.4163C33.1264 23.1184 33.3745 22.8765 33.6791 22.7252C33.9941 22.572 34.3737 22.4547 34.8156 22.3759C35.2543 22.2953 35.7594 22.255 36.3303 22.255C36.8954 22.255 37.4009 22.294 37.8446 22.3693C38.2887 22.4481 38.6647 22.5645 38.973 22.7195C39.2844 22.8784 39.5209 23.1086 39.6793 23.4097C39.8368 23.7081 39.9167 24.0818 39.9167 24.5276C39.9167 24.9686 39.8368 25.3396 39.6793 25.638C39.5252 25.9343 39.2774 26.1737 38.973 26.3203C38.6493 26.481 38.2698 26.5988 37.8365 26.6723C37.3928 26.7467 36.8895 26.7856 36.3299 26.7856C35.7589 26.7856 35.2539 26.7467 34.8152 26.6723C34.3755 26.5988 33.996 26.481 33.6787 26.3203C33.3731 26.1746 33.1243 25.935 32.97 25.638C32.8152 25.3387 32.7362 24.9677 32.7362 24.5276ZM44.4099 23.643C44.2592 23.643 44.1269 23.6621 44.0159 23.6975C43.9048 23.7373 43.8087 23.7936 43.7279 23.8644C43.6501 23.9468 43.5925 24.0455 43.5596 24.1531C43.5181 24.2932 43.4986 24.4388 43.5018 24.5847C43.5018 24.7437 43.5212 24.8752 43.5596 24.9792C43.5966 25.0873 43.6534 25.178 43.7279 25.2515C43.8105 25.3303 43.9067 25.3874 44.0159 25.4211C44.1251 25.4547 44.2573 25.472 44.4099 25.472C44.5697 25.472 44.7087 25.4547 44.8224 25.4202C44.9344 25.3866 45.0269 25.3356 45.1 25.2679C45.1823 25.19 45.2433 25.093 45.2774 24.9859C45.3195 24.8563 45.3395 24.7207 45.3365 24.5847C45.3392 24.4411 45.3192 24.2979 45.2774 24.1602C45.2433 24.0511 45.1824 23.952 45.1 23.8715C45.0187 23.7943 44.9216 23.735 44.8152 23.6975C44.6835 23.66 44.547 23.6417 44.4099 23.643ZM40.5324 26.5054V20.2578H43.31L43.328 23.2326C43.5197 22.9315 43.8059 22.6996 44.1436 22.572C44.3047 22.5096 44.483 22.4613 44.6744 22.4304C44.8777 22.3999 45.0831 22.3854 45.2887 22.387C45.7337 22.387 46.1192 22.4432 46.4419 22.5557C46.7619 22.6663 47.0255 22.8386 47.2335 23.0648C47.4467 23.3014 47.6043 23.581 47.6953 23.8839C47.9877 24.8247 47.8239 25.352 47.183 26.0214C46.9686 26.2446 46.6919 26.408 46.3561 26.5067C46.0221 26.6121 45.6236 26.6656 45.1618 26.6656C44.9601 26.6656 44.7651 26.651 44.581 26.6231C44.3982 26.5986 44.2179 26.5595 44.0416 26.5062C43.8842 26.4604 43.738 26.3833 43.6124 26.2796C43.4903 26.1797 43.3928 26.0541 43.3271 25.9121L43.3104 26.5054H40.5324ZM56.1535 22.0571V24.9106C56.1535 25.2183 56.0917 25.4893 55.9685 25.7226C55.8356 25.9659 55.6422 26.1723 55.4061 26.3225C55.1583 26.4775 54.7936 26.593 54.3147 26.6701C53.83 26.7462 53.2306 26.7852 52.5197 26.7852C51.8147 26.7852 51.2212 26.7462 50.7432 26.6701C50.2612 26.593 49.896 26.477 49.6519 26.3225C49.3987 26.16 49.21 25.9586 49.0895 25.7226C48.9672 25.4893 48.9053 25.2183 48.9053 24.9106V22.0571H51.877V24.8424C51.877 24.923 51.8928 24.9974 51.923 25.062C51.947 25.1284 51.9858 25.1847 52.0359 25.2289C52.0905 25.2807 52.1582 25.3188 52.2376 25.344C52.3238 25.3684 52.4182 25.3812 52.5197 25.3812C52.6235 25.3812 52.7179 25.3684 52.8009 25.344C52.8831 25.3179 52.9544 25.2799 53.0135 25.2289C53.0586 25.1816 53.0974 25.1253 53.1272 25.062C53.1515 24.9913 53.1631 24.917 53.1615 24.8424V22.0571H56.1535ZM56.6676 26.6404V20.6253H59.5301V26.6404H56.6676ZM60.3885 26.6404V20.6426H63.251V26.6404H60.3885Z" fill="#9E9E9E"/>
<path fill-rule="evenodd" clip-rule="evenodd" d="M1.30186 28.3496L1.2793 27.6355L24.0873 27.6426L24.0706 28.3629L1.30186 28.3496ZM32.1921 28.3625L32.6642 27.6421H64.7438L64.7262 28.3625H32.1921ZM3.57575 19.5355L3.58478 16.6015L6.72932 16.6103C6.81282 16.5014 6.77897 16.2747 6.69547 16.1658C4.6292 15.7603 3.49135 15.2994 3.16819 13.2778C3.47375 11.2788 4.74971 10.8542 6.75099 10.8542L10.6628 10.8538L10.6908 13.2211L7.16758 13.2233C7.05655 13.3323 7.05655 13.3323 7.05655 13.605C7.77825 13.9238 11.0839 13.6413 11.0839 17.0101C10.6908 18.6394 10.2115 19.0144 8.66154 19.5214L3.57575 19.5355ZM18.4955 19.5209H15.6358C13.2152 19.5209 11.2351 17.5786 11.2351 15.2042V15.1705C11.2351 12.7965 13.2152 10.8538 15.6358 10.8538H18.4933V13.3132H16.7334C16.2608 13.3146 15.8079 13.4994 15.4737 13.8273C15.1395 14.1551 14.9511 14.5993 14.9497 15.0629C14.9513 15.5265 15.1397 15.9706 15.4739 16.2983C15.8081 16.6261 16.2609 16.8108 16.7334 16.8122H18.4933L18.4955 19.5209ZM19.266 19.5183L19.2646 10.8538H22.7219V13.7081H24.9223V10.8538H28.5511V19.5209H24.9223L24.9435 16.4651L22.7219 16.474V19.5214L19.266 19.5183ZM29.1618 19.4886L30.6647 10.8538L34.192 10.8529L35.6919 15.1843L37.1948 10.8538L40.4969 10.8529L42.305 19.5209H39.1081L38.497 15.1847L36.7471 19.5209H34.6948L33.0533 15.1847L32.4146 19.5209L29.1618 19.4886ZM42.7979 19.5209L42.8015 10.8538H46.2647V19.5209H42.7979ZM53.9796 19.5209L58.1455 13.7086H52.6463V19.5209H49.0752V13.7081H47.0514L47.0496 10.8538H61.1357C61.4345 11.3922 62.9131 12.1391 63.1325 12.1603L59.8548 17.0916H63.4656L63.4619 19.5205H53.9796V19.5209ZM82.0263 27.3388C81.9988 27.3118 81.9433 27.2844 81.8878 27.2299L82.3874 26.0035C82.526 25.2686 82.526 25.2686 82.526 24.5049C82.2484 23.7699 82.2484 23.7699 81.9708 23.4153C81.7212 23.2519 81.4712 23.0885 81.1931 22.8981C79.9158 22.5435 78.6101 22.1898 77.3048 21.8077C76.0545 21.7532 76.0545 21.7532 75.8325 21.8351C75.777 21.944 75.7215 22.0529 75.6659 22.1898C75.6659 22.5435 75.6939 22.8981 75.7215 23.2793C76.0867 24.6223 76.4478 25.9663 76.8047 27.3114L73.6109 27.229C73.694 26.8478 73.805 26.4662 73.9161 26.085V24.9954C73.1384 22.7064 72.3612 20.4183 71.5555 18.1028C71.5555 18.0205 71.5835 17.9394 71.611 17.8296C70.9728 17.8026 70.3337 17.7482 69.6671 17.6937C69.6671 16.74 69.6395 15.7859 69.6115 14.8332C69.0564 14.1518 69.0564 14.1518 68.8614 14.0159C68.1393 13.9065 68.1393 13.9065 66.3339 13.852C66.3063 13.8246 66.2784 13.7976 66.2508 13.7427C66.5284 13.307 66.889 13.0343 67.0285 12.8439C67.0285 12.762 67.0285 12.6805 67.056 12.5986C66.9664 12.5436 66.8827 12.4797 66.8064 12.4078C66.2513 12.3804 65.6677 12.3259 65.085 12.2715C64.64 12.1895 64.1954 12.1076 63.7513 11.9987C62.6405 11.4537 62.6405 11.4537 62.3074 11.1814C61.7522 10.473 61.7522 10.473 61.3632 9.7921C61.3632 9.7372 61.3632 9.68274 61.3907 9.60127C61.5857 9.8191 61.7793 10.0369 61.9743 10.2822C62.2239 10.446 62.5015 10.6094 62.7799 10.7728C63.0851 10.8547 63.4182 10.9361 63.7513 11.0451H64.9455C64.9455 11.0176 64.973 10.9906 65.001 10.9361C64.4459 10.3641 64.4459 10.3641 63.8903 9.57382C63.7792 9.32855 63.6398 9.05626 63.5017 8.78397C63.4737 8.5657 63.4177 8.34787 63.3622 8.10259C63.3902 7.77541 63.4177 7.42121 63.4461 7.06702C63.5292 6.84919 63.6127 6.63136 63.7237 6.38608C63.8903 6.11335 64.0843 5.84151 64.2789 5.56878C64.473 5.40541 64.695 5.21459 64.9171 5.02377C67.5001 3.38916 67.5002 3.38916 67.7502 3.11643V2.65332C67.6671 2.57142 67.5561 2.48995 67.4451 2.40804H67.0835C66.917 2.48995 66.7505 2.59887 66.5839 2.70778C66.5559 2.51696 66.6394 2.38104 66.6394 2.16321C66.5555 2.02684 66.5555 2.02684 66.3889 1.91793C66.2224 1.89092 66.0283 1.83647 65.8338 1.78201C65.8338 1.56374 65.8338 1.56373 65.9177 1.50928H67.3061C67.5836 1.59118 67.8612 1.67309 68.1393 1.78201C68.4724 2.05429 68.4724 2.05429 68.7504 2.4904C68.7784 2.59931 68.8059 2.70822 68.8614 2.84459L68.7784 3.33515C68.5008 3.79825 68.5008 3.79825 68.2232 4.07098C66.6954 5.16057 66.6954 5.16057 65.7232 5.97832C65.5846 6.19615 65.4456 6.41398 65.3061 6.65925V7.47656C65.3901 7.63993 65.4736 7.8033 65.5846 7.96712C66.0288 8.2394 66.0288 8.2394 66.3894 8.32131C66.8619 8.32131 67.3616 8.29386 67.8617 8.26685C68.3898 8.10348 68.9169 7.91266 69.445 7.72184H70.0002C70.2507 7.88521 70.4998 8.07603 70.7778 8.26685C71.0554 8.32131 71.0554 8.32131 76.8051 8.43022C76.8331 10.1463 76.7776 11.5091 76.6941 11.9173C76.6941 12.0266 76.6941 12.1355 76.7221 12.2444C76.9162 11.9173 76.9162 11.9173 77.0552 11.4271C79.1102 11.3997 79.1102 11.3997 79.9984 11.4542C80.8325 11.5905 80.8325 11.5905 81.7483 11.8628C82.1653 12.0262 82.5815 12.217 82.9985 12.4078C83.249 12.5712 83.4982 12.762 83.7487 12.9524C84.1093 13.388 84.4708 13.8241 84.8594 14.2873C85.137 14.8323 85.137 14.8323 85.3875 15.5132C85.4706 15.8678 85.5541 16.2225 85.6651 16.6037C85.6651 17.1753 85.6926 17.7477 85.7206 18.3202C85.5811 19.4098 85.5811 19.4098 85.026 22.0525V23.9049C84.8594 23.9873 84.8594 23.9873 84.6654 23.9594C84.5814 23.8235 84.5814 23.8235 84.7209 20.0093C84.6654 20.0093 84.6089 19.9818 84.5259 19.9548C84.3309 27.229 84.3309 27.229 84.2483 27.338C83.5271 27.3388 82.7765 27.3388 82.0263 27.3388Z" fill="#9E9E9E"/>
</svg>
