<svg width="31" height="31" viewBox="0 0 31 31" fill="none" xmlns="http://www.w3.org/2000/svg">
<g clip-path="url(#clip0)">
<path d="M10.3823 31.0001C14.0005 30.9954 17.3523 29.0977 19.218 25.9978L27.6429 18.5866C28.1621 18.5606 28.6692 18.4208 29.1283 18.1769C29.9796 17.7152 30.6144 16.9368 30.8954 16.0103V15.9933C30.9981 15.6662 31.0503 15.3251 31.0506 14.9822C31.0496 13.8324 30.5002 12.7522 29.5718 12.074L27.3529 6.04329C27.8016 3.44833 26.2254 0.931909 23.695 0.202693C21.1647 -0.526287 18.4912 0.76563 17.4902 3.2014L7.25941 10.8186C2.40632 12.3631 -0.597822 17.2133 0.181065 22.2462C0.959952 27.2793 5.28936 30.9944 10.3823 31.0001ZM22.2666 10.3318C23.3454 10.3318 24.3971 9.99165 25.2717 9.35988L26.0984 11.623C25.0449 12.0379 24.2478 12.9239 23.9462 14.0152C23.6447 15.1066 23.8738 16.2762 24.565 17.1729L20.7112 20.5626C20.6568 15.8027 17.3606 11.6947 12.7256 10.6097L17.4701 7.07668C18.2532 9.0401 20.1526 10.3292 22.2666 10.3318ZM20.6169 22.0227L25.3044 17.899C25.6015 18.1188 25.9309 18.2905 26.2815 18.4078L20.258 23.7077C20.425 23.1573 20.545 22.5936 20.6169 22.0227ZM29.9082 15.7123C29.7116 16.38 29.2539 16.9404 28.6392 17.2666C27.8381 17.6857 26.8763 17.6566 26.1022 17.1899C25.328 16.723 24.8533 15.8862 24.85 14.9822C24.8531 13.7688 25.6982 12.72 26.8834 12.4591C27.5627 12.3089 28.2737 12.4409 28.8539 12.825C29.5803 13.3021 30.0177 14.1132 30.0172 14.9822C30.0189 15.2298 29.9822 15.476 29.9082 15.7123ZM28.2458 11.4629C27.8747 11.3772 27.4927 11.3505 27.1133 11.3834L26.1001 8.61695C26.3815 8.3071 26.6244 7.96413 26.8234 7.59586L28.2458 11.4629ZM22.2666 1.03125C24.5496 1.03125 26.4002 2.88185 26.4002 5.16482C26.4002 7.44779 24.5496 9.29839 22.2666 9.29839C19.9837 9.29839 18.1328 7.44779 18.1328 5.16482C18.1354 2.88279 19.9846 1.03362 22.2666 1.03125ZM17.1198 4.7639C17.1094 4.8966 17.0994 5.02953 17.0994 5.16482C17.1013 5.447 17.1264 5.72847 17.1744 6.00639L11.3062 10.3788C11.0025 10.3514 10.6924 10.3318 10.3823 10.3318C10.1143 10.3318 9.85081 10.3519 9.58708 10.3722L17.1198 4.7639ZM7.6589 11.7739C11.4978 10.5983 15.6576 12.0187 17.9758 15.2965C20.2942 18.5746 20.2474 22.97 17.8599 26.1979C15.4724 29.4255 11.283 30.7569 7.47015 29.4998C3.65708 28.2426 1.08129 24.6808 1.08176 20.6659C1.07041 16.5747 3.74389 12.9606 7.65937 11.7739H7.6589Z" fill="white"/>
<path d="M10.3822 27.8999C14.3774 27.8999 17.6162 24.6613 17.6162 20.6661C17.6162 16.6709 14.3774 13.4321 10.3822 13.4321C6.38722 13.4321 3.14844 16.6709 3.14844 20.6661C3.15269 24.6594 6.38888 27.8956 10.3822 27.8999ZM10.3822 14.4655C13.8066 14.4655 16.5828 17.2417 16.5828 20.6661C16.5828 24.0906 13.8066 26.8665 10.3822 26.8665C6.95797 26.8665 4.18183 24.0906 4.18183 20.6661C4.18562 17.2433 6.95938 14.4693 10.3822 14.4655Z" fill="white"/>
<path d="M10.3822 23.2497C11.8092 23.2497 12.9658 22.0929 12.9658 20.6661C12.9658 19.2391 11.8092 18.0825 10.3822 18.0825C8.95545 18.0825 7.79883 19.2391 7.79883 20.6661C7.80048 22.0921 8.95616 23.2478 10.3822 23.2497ZM10.3822 19.1159C11.2384 19.1159 11.9324 19.8099 11.9324 20.6661C11.9324 21.5221 11.2384 22.2161 10.3822 22.2161C9.52619 22.2161 8.83222 21.5221 8.83222 20.6661C8.83222 19.8099 9.52619 19.1159 10.3822 19.1159Z" fill="white"/>
<path d="M22.2662 8.26481C23.9784 8.26481 25.3663 6.87686 25.3663 5.16463C25.3663 3.4524 23.9784 2.06445 22.2662 2.06445C20.554 2.06445 19.166 3.4524 19.166 5.16463C19.1677 6.87615 20.5547 8.26316 22.2662 8.26481ZM22.2662 3.09785C23.4077 3.09785 24.333 4.02315 24.333 5.16463C24.333 6.30612 23.4077 7.23142 22.2662 7.23142C21.1247 7.23142 20.1994 6.30612 20.1994 5.16463C20.1994 4.02315 21.1247 3.09785 22.2662 3.09785Z" fill="white"/>
<path d="M27.4334 13.4321C26.7711 13.4293 26.1809 13.8491 25.9662 14.4757C25.7516 15.1023 25.9605 15.7958 26.4851 16.1998C26.492 16.2064 26.4991 16.2106 26.5059 16.2168C26.5488 16.2487 26.5923 16.2783 26.6382 16.3062C26.6455 16.3093 26.6516 16.3145 26.6594 16.3175C26.8938 16.4566 27.1609 16.5307 27.4334 16.5325C28.2896 16.5325 28.9836 15.8383 28.9836 14.9823C28.9836 14.1264 28.2896 13.4321 27.4334 13.4321ZM27.4334 15.4992C27.1481 15.4992 26.9168 15.2676 26.9168 14.9823C26.9168 14.6971 27.1481 14.4655 27.4334 14.4655C27.7189 14.4655 27.9502 14.6971 27.9502 14.9823C27.9502 15.2676 27.7189 15.4992 27.4334 15.4992Z" fill="white"/>
<path d="M22.7834 5.16476C22.7834 5.45002 22.5521 5.68134 22.2668 5.68134C21.9813 5.68134 21.75 5.45002 21.75 5.16476C21.75 4.87927 21.9813 4.64795 22.2668 4.64795C22.5521 4.64795 22.7834 4.87927 22.7834 5.16476Z" fill="white"/>
<path d="M10.8986 16.5324C10.8986 16.8177 10.6673 17.049 10.3818 17.049C10.0966 17.049 9.86523 16.8177 9.86523 16.5324C9.86523 16.247 10.0966 16.0156 10.3818 16.0156C10.6673 16.0156 10.8986 16.247 10.8986 16.5324Z" fill="white"/>
<path d="M10.8986 24.7998C10.8986 25.0853 10.6673 25.3166 10.3818 25.3166C10.0966 25.3166 9.86523 25.0853 9.86523 24.7998C9.86523 24.5145 10.0966 24.2832 10.3818 24.2832C10.6673 24.2832 10.8986 24.5145 10.8986 24.7998Z" fill="white"/>
<path d="M15.0324 20.6657C15.0324 20.951 14.8011 21.1823 14.5158 21.1823C14.2303 21.1823 13.999 20.951 13.999 20.6657C13.999 20.3803 14.2303 20.1489 14.5158 20.1489C14.8011 20.1489 15.0324 20.3803 15.0324 20.6657Z" fill="white"/>
<path d="M6.76483 20.6657C6.76483 20.951 6.53351 21.1823 6.24802 21.1823C5.96277 21.1823 5.73145 20.951 5.73145 20.6657C5.73145 20.3803 5.96277 20.1489 6.24802 20.1489C6.53351 20.1489 6.76483 20.3803 6.76483 20.6657Z" fill="white"/>
<path d="M13.6702 18.1081C13.818 17.9605 13.8622 17.7382 13.7823 17.5452C13.7023 17.3519 13.5138 17.2261 13.3047 17.2261C13.0959 17.2261 12.9074 17.3519 12.8274 17.5452C12.7475 17.7382 12.7917 17.9605 12.9395 18.1081C13.1413 18.3099 13.4684 18.3099 13.6702 18.1081Z" fill="white"/>
<path d="M7.82445 23.9543C7.97228 23.8067 8.01651 23.5844 7.93656 23.3911C7.85662 23.1981 7.6681 23.0723 7.45925 23.0723C7.25016 23.0723 7.06165 23.1981 6.9817 23.3911C6.90175 23.5844 6.94599 23.8067 7.09381 23.9543C7.29557 24.156 7.62269 24.156 7.82445 23.9543Z" fill="white"/>
<path d="M12.9395 23.2234C12.7917 23.3712 12.7475 23.5936 12.8274 23.7866C12.9074 23.9796 13.0959 24.1057 13.3047 24.1057C13.5138 24.1057 13.7023 23.9796 13.7823 23.7866C13.8622 23.5936 13.818 23.3712 13.6702 23.2234C13.4684 23.0219 13.1413 23.0219 12.9395 23.2234Z" fill="white"/>
<path d="M7.82445 18.1081C7.97228 17.9605 8.01651 17.7382 7.93656 17.5452C7.85662 17.3519 7.6681 17.2261 7.45925 17.2261C7.25016 17.2261 7.06165 17.3519 6.9817 17.5452C6.90175 17.7382 6.94599 17.9605 7.09381 18.1081C7.29557 18.3099 7.62269 18.3099 7.82445 18.1081Z" fill="white"/>
</g>
<defs>
<clipPath id="clip0">
<rect width="31" height="31" fill="white"/>
</clipPath>
</defs>
</svg>
