<svg width="106" height="35" viewBox="0 0 106 35" fill="none" xmlns="http://www.w3.org/2000/svg">
<path fill-rule="evenodd" clip-rule="evenodd" d="M18.499 7.69671C21.5268 7.69671 24.5343 7.33915 27.439 6.62347L27.8058 6.53395L28.0807 6.78215C30.16 8.66005 31.587 11.0848 32.2189 13.7979L32.3003 14.1554L32.0352 14.4235C27.836 18.6473 24.7576 23.8634 23.137 29.4885L23.0352 29.8466L22.6684 29.9554C21.3172 30.3589 19.9116 30.5633 18.4984 30.5617C17.0917 30.5617 15.6856 30.3532 14.3196 29.9356L13.9627 29.8267L13.8609 29.4794C12.2299 23.8634 9.15145 18.658 4.94182 14.424L4.67676 14.156L4.7587 13.7984C5.39055 11.0955 6.83739 8.66113 8.93753 6.76286L9.21304 6.51465L9.57983 6.60418C12.5565 7.32896 15.553 7.69671 18.499 7.69671Z" fill="#9E9E9E"/>
<path fill-rule="evenodd" clip-rule="evenodd" d="M6.34863 16.8384C6.34863 13.6686 7.61234 10.6976 9.90605 8.46211C12.1998 6.22665 15.2474 4.99365 18.4892 4.99365C21.7408 4.99365 24.789 6.22611 27.0822 8.46211C29.3759 10.6976 30.6396 13.6686 30.6396 16.8384C30.6396 23.3577 25.1861 28.6735 18.4892 28.6735C15.2474 28.6735 12.1998 27.4411 9.90605 25.2056C7.61234 22.9691 6.34863 19.9986 6.34863 16.8384Z" fill="#9E9E9E"/>
<path d="M9.51652 7.67274C8.61952 8.5084 7.84873 9.46393 7.22721 10.5108C6.61106 11.5492 6.15121 12.6685 5.86176 13.8345C7.962 15.9714 9.79113 18.3467 11.3098 20.9092C12.8168 23.4539 14.0007 26.1678 14.8353 28.9912C15.394 29.1504 15.9715 29.2769 16.5648 29.3659C17.195 29.4603 17.8406 29.5112 18.4989 29.5112C19.1698 29.5112 19.8242 29.463 20.4604 29.3708C21.0322 29.2876 21.5975 29.1669 22.1525 29.0094C22.9891 26.1781 24.1742 23.4559 25.6819 20.9022C27.1953 18.3418 29.0197 15.9684 31.1156 13.8334C30.5359 11.4921 29.2818 9.36113 27.501 7.6915C24.5552 8.39838 21.5326 8.75586 18.4989 8.75617C16.9157 8.75617 15.3544 8.6527 13.8169 8.45864C12.3693 8.27611 10.9336 8.01372 9.51652 7.67274ZM6.56346 10.1355C7.25782 8.96582 8.12811 7.9042 9.14532 6.98602L9.29875 6.84717L9.49947 6.89649C10.9528 7.25505 12.4266 7.52965 13.9131 7.71884C15.4056 7.90754 16.9333 8.00726 18.4989 8.00726C21.5403 8.00793 24.5701 7.64149 27.5192 6.91632L27.7205 6.86647L27.8739 7.00585C29.8977 8.84377 31.3048 11.2348 31.9108 13.8656L31.9565 14.0623L31.8124 14.2071C29.7002 16.3364 27.8653 18.7112 26.349 21.278C24.8371 23.8372 23.6564 26.5692 22.8339 29.4115L22.7772 29.6072L22.5771 29.6677C21.9213 29.8655 21.251 30.0142 20.5721 30.1127C19.8957 30.2113 19.2039 30.2612 18.4989 30.2612C17.8032 30.2612 17.1186 30.2076 16.4504 30.1073C15.7602 30.0028 15.0786 29.8493 14.4113 29.6479L14.2106 29.5873L14.154 29.3917C13.3336 26.5575 12.1541 23.8342 10.6427 21.2845C9.12093 18.7155 7.28105 16.3385 5.16446 14.2071L5.02148 14.0623L5.06713 13.8656C5.36879 12.5554 5.87335 11.2976 6.56346 10.1355Z" fill="#DBDCDD"/>
<path d="M6.65626 16.8385C6.65421 15.3227 6.95931 13.8215 7.55404 12.4211C8.14876 11.0206 9.0214 9.74846 10.1218 8.67766C11.2188 7.60401 12.5227 6.75238 13.9586 6.17175C15.3944 5.59113 16.9338 5.29298 18.4883 5.29444C21.7592 5.29444 24.72 6.58586 26.863 8.67498C29.006 10.7641 30.3308 13.6498 30.3308 16.8385C30.3325 18.3538 30.0267 19.8546 29.4311 21.2543C28.8355 22.6541 27.9618 23.9252 26.8602 24.9944C25.7619 26.0675 24.4569 26.9184 23.0201 27.4983C21.5834 28.0781 20.0433 28.3755 18.4883 28.3734C16.9342 28.375 15.3951 28.0772 13.9594 27.4972C12.5237 26.9171 11.2197 26.0662 10.1224 24.9934C9.02208 23.9237 8.14944 22.6526 7.55461 21.2531C6.95978 19.8536 6.65448 18.3533 6.65626 16.8385ZM10.6657 9.20463C9.63679 10.2065 8.82095 11.3966 8.26502 12.7066C7.70909 14.0166 7.42401 15.4208 7.42615 16.8385C7.42435 18.2549 7.70972 19.6578 8.26587 20.9664C8.82201 22.275 9.63796 23.4635 10.6668 24.4637C11.6928 25.4666 12.9119 26.262 14.2542 26.8042C15.5964 27.3463 17.0354 27.6245 18.4883 27.6229C19.9425 27.625 21.3828 27.3471 22.7265 26.8052C24.0703 26.2632 25.291 25.4679 26.3186 24.4648C27.348 23.4647 28.1644 22.276 28.7208 20.9672C29.2772 19.6584 29.5627 18.2552 29.5609 16.8385C29.563 15.4206 29.2776 14.0164 28.7212 12.7064C28.1647 11.3964 27.3482 10.2065 26.3186 9.20517C25.2913 8.20145 24.0708 7.4055 22.727 6.86307C21.3832 6.32065 19.9427 6.04243 18.4883 6.04442C17.0351 6.04259 15.5959 6.32085 14.2534 6.8632C12.9109 7.40555 11.6916 8.20128 10.6657 9.20463Z" fill="#DBDCDD"/>
<path d="M14.4672 16.2677C14.8339 16.1944 15.2142 16.2194 15.5676 16.3401C15.9037 16.4571 16.1932 16.6748 16.3947 16.962L16.5811 17.3882L16.145 17.2322C15.4972 16.8907 14.8444 17.0794 14.2032 17.2654C13.3882 17.5013 12.5887 17.7329 11.755 17.0456C11.5856 16.9287 11.4459 16.7518 11.3354 16.5712C11.2437 16.4182 11.1632 16.2592 11.0945 16.0951L10.8262 15.4663L11.3865 15.8727C11.3898 15.8753 12.5474 16.7433 14.4567 16.2688L14.4672 16.2677Z" fill="#DBDCDD"/>
<path fill-rule="evenodd" clip-rule="evenodd" d="M18.2332 13.1621C17.4177 13.1621 16.6632 13.3111 16.3679 13.7186C16.3679 13.7186 16.0412 14.0166 15.9802 14.275C15.9802 14.275 13.891 12.8935 13.2383 15.8945C13.2383 15.8945 14.5025 15.01 15.2262 15.5863C15.2262 15.5863 15.593 16.0934 16.2661 16.2618C17.1834 16.5008 17.0817 16.6794 17.1224 16.8681C17.1224 16.8681 17.0003 17.1463 16.2051 17.6331C15.4204 18.1295 14.9716 17.8909 14.2479 17.6631C14.2479 17.6631 14.1973 18.7063 15.6343 18.6865C15.6343 18.6865 15.8691 18.7063 16.1539 18.6768C16.1539 18.6768 14.4311 19.3812 15.0838 21.1112C15.0838 21.1112 15.675 20.4148 16.3277 20.2556C16.3277 20.2556 14.4618 22.3222 16.9293 24.34C16.9293 24.34 16.9293 22.4921 17.6327 21.9255C17.6327 21.9255 18.0198 23.3954 17.8972 24.2006C17.8972 24.2006 17.8664 24.9061 17.642 25.2739C17.642 25.2739 20.5676 25.2144 19.7317 21.7861C19.7317 21.7861 20.9041 22.1737 20.6594 23.7337C20.6594 23.7337 23.2891 22.4519 21.5563 19.8187C21.5563 19.8187 22.5451 19.8187 22.8509 20.9713C22.8509 20.9713 24.2575 18.8543 21.9336 16.837C21.9336 16.837 22.8102 16.6284 23.2891 17.3339C23.2891 17.3339 23.2281 15.7241 21.6685 14.9392C21.3122 14.75 21.8726 14.1935 21.7296 13.8858L18.2332 13.1621Z" fill="#F3F3F3"/>
<path fill-rule="evenodd" clip-rule="evenodd" d="M20.0488 14.3938C20.0488 14.3938 20.9969 13.2209 22.4135 13.3801C22.4135 13.3801 22.0164 15.1095 20.4563 15.4274L20.0488 14.3938Z" fill="#F3F3F3"/>
<path fill-rule="evenodd" clip-rule="evenodd" d="M20.5067 14.5637C20.5067 14.5637 21.0467 14.0469 21.6995 13.9375C21.6995 13.9375 21.3734 14.6832 20.6293 14.8317L20.5067 14.5637ZM17.7131 16.2325C17.5404 16.114 17.3155 16.0641 17.1318 16.1531C17.6928 16.173 17.7846 16.9482 18.3961 16.7895C18.5083 16.7594 18.61 16.7101 18.7019 16.6501C18.3048 16.8088 17.9782 16.4512 17.7131 16.2325ZM20.9026 18.4508C20.8328 18.1302 20.7206 17.8884 20.5633 17.6981C20.361 17.4537 20.0833 17.2955 19.7214 17.1669C19.8017 17.5094 19.8979 17.8509 19.9007 18.2047C19.9029 18.5344 19.8297 18.8191 19.6807 19.055C19.5826 19.2061 19.4539 19.3362 19.3024 19.4372C19.4289 19.1096 19.4371 18.8309 19.3964 18.6089C19.3211 18.1956 19.0786 17.9796 18.8036 17.6938C18.792 17.9485 18.7959 18.209 18.7305 18.4583C18.6463 18.7735 18.4852 18.9649 18.3202 19.0812C18.439 18.7253 18.3538 18.3902 18.2636 18.2208L17.9171 18.3999C17.9226 18.4154 18.0777 18.7204 17.9028 19.0689C17.7862 19.3005 17.5509 19.4817 17.3667 19.6613C18.0678 19.6205 18.7035 19.5482 19.0302 18.7848C19.0626 19.2957 18.742 19.7042 18.4571 20.0987C19.0841 19.976 19.6103 19.8527 19.9964 19.263C20.2372 18.8995 20.3247 18.4578 20.2713 17.9335C20.6326 18.4068 20.5875 19.0223 20.5875 19.5814C21.0632 19.019 21.4174 18.4894 21.4119 17.6997C21.408 17.1749 21.2144 16.5654 20.598 15.9644L20.4654 16.3622C21.1605 17.2221 21.0792 17.9817 20.9026 18.4508Z" fill="#DBDCDD"/>
<path d="M15.3533 16.6648C15.0908 16.592 14.8142 16.5811 14.5465 16.6332C13.2773 16.9479 12.2985 16.7104 11.7266 16.4756C11.8014 16.5833 11.8871 16.6804 11.9812 16.7436L11.9905 16.7501L11.9966 16.7544C12.6752 17.3167 13.378 17.113 14.0945 16.9055C14.507 16.7871 14.9238 16.6664 15.3533 16.6648Z" fill="#F3F3F3"/>
<path fill-rule="evenodd" clip-rule="evenodd" d="M18.896 12.1284C19.1413 12.5257 19.5383 13.0526 20.0382 13.0526C20.5474 13.0526 20.8537 12.8339 21.0984 12.4367C20.9555 12.4565 20.9153 12.4565 20.7723 12.4169C20.4561 12.307 20.3033 11.9992 20.3643 11.602C20.4666 11.2546 20.8229 11.0552 21.1699 11.1549C21.292 11.1946 21.3943 11.2546 21.4658 11.3334C21.3792 11.1786 21.3572 10.9971 21.4042 10.8268C21.5059 10.4795 21.9239 10.2007 22.2912 10.2602L20.8642 13.6884H16.1547L14.7178 10.4189C15.0747 10.3594 15.4926 10.6376 15.5943 10.9855C15.6455 11.1538 15.6147 11.2836 15.5333 11.4224C15.6048 11.3431 15.717 11.194 15.8292 11.1544C16.1756 11.0552 16.5732 11.3533 16.6755 11.691C16.7365 12.0882 16.604 12.3364 16.2878 12.4458C16.1448 12.4764 16.0227 12.456 15.8803 12.4362C16.125 12.8334 16.4918 13.0521 17.0016 13.0521C17.5009 13.0521 17.8677 12.5257 18.113 12.1279C18 12.2067 17.8642 12.2484 17.7253 12.2469C17.6387 12.2469 17.553 12.2302 17.4732 12.1976C17.3933 12.165 17.3209 12.1173 17.2602 12.0571C17.1994 11.997 17.1515 11.9257 17.1193 11.8474C17.0871 11.7691 17.0712 11.6853 17.0725 11.6009C17.0725 11.2428 17.3585 10.9448 17.7253 10.9448C17.8374 10.9448 17.9601 10.9748 18.0514 11.0343C17.9233 10.9107 17.85 10.743 17.8473 10.5674C17.8466 10.3976 17.9148 10.2344 18.0369 10.1134C18.1591 9.99238 18.3254 9.92337 18.4995 9.92139C18.8663 9.92139 19.1622 10.2098 19.1622 10.5674C19.1622 10.7459 19.0704 10.9249 18.9483 11.0445C19.0506 10.985 19.1622 10.9448 19.2843 10.9448C19.6516 10.9448 19.937 11.2428 19.937 11.6009C19.937 11.9585 19.6516 12.2469 19.2843 12.2469C19.1413 12.2474 18.896 12.1284 18.896 12.1284Z" fill="#F3F3F3"/>
<path d="M17.3411 14.5431C17.2718 14.5375 17.2021 14.5373 17.1327 14.5425C17.1298 14.6321 17.0907 14.7169 17.024 14.7784C16.9572 14.84 16.8682 14.8733 16.7763 14.8712C16.6946 14.873 16.6146 14.8476 16.5496 14.7992C16.4846 14.7507 16.4385 14.6821 16.4189 14.6047C16.3532 14.598 16.2882 14.5854 16.2248 14.5672C16.2699 14.772 16.3876 15.0148 16.6884 15.07C16.6895 15.0706 17.1129 15.158 17.2944 14.6524L17.2949 14.6503C17.3087 14.6106 17.3241 14.5752 17.3411 14.5431ZM16.662 13.6896C16.6096 13.7285 16.5634 13.7747 16.525 13.8269L16.5146 13.8413L16.5008 13.8542C16.5003 13.8547 16.3227 14.0177 16.2248 14.185C16.3232 14.2364 16.5278 14.2949 16.8836 14.208L16.8979 14.2048C17.3664 14.1276 17.6595 14.23 17.7997 14.3045C17.9988 14.3635 18.1665 14.5495 18.1676 14.55L17.891 14.7945C17.8905 14.794 17.7096 14.5956 17.6441 14.7736H17.6436C17.3554 15.5772 16.6213 15.4271 16.6191 15.4265C15.9647 15.3065 15.8453 14.6948 15.8266 14.401C15.5506 14.2423 14.1571 13.5567 13.5401 15.5032C14.0141 15.2684 14.7966 15.0025 15.3477 15.441L15.3691 15.4587L15.3818 15.4759C15.3829 15.4769 15.7101 15.9288 16.3133 16.0806L16.3144 16.0811C17.246 16.3234 17.2746 16.5496 17.3021 16.7775C17.3043 16.7978 17.307 16.8182 17.3098 16.8305L17.3224 16.8879L17.2988 16.9415C17.2988 16.9426 17.1525 17.2739 16.3073 17.7917C15.5632 18.2619 15.1013 18.1402 14.4931 17.9413C14.5904 18.1863 14.8637 18.5101 15.632 18.4994H15.6452C15.6457 18.4994 15.8717 18.5181 16.1335 18.4908L17.3972 18.3589L16.2297 18.8489C16.2259 18.851 14.8753 19.4037 15.1739 20.7471C15.4208 20.5134 15.8343 20.1837 16.2809 20.0749L16.8649 19.9323L16.4733 20.3783C16.4689 20.3837 14.8934 22.1292 16.7554 23.9331C16.8011 23.331 16.9589 22.2251 17.5099 21.7812L17.7426 21.5936L17.8184 21.8783C17.8195 21.8826 18.2111 23.3691 18.0901 24.2129C18.0873 24.2654 18.0632 24.682 17.9477 25.0487C18.6312 24.92 20.16 24.3491 19.5457 21.8289L19.4638 21.4928L19.797 21.6102C19.8003 21.6113 20.9167 21.9807 20.8853 23.3755C21.4869 22.9494 22.639 21.8113 21.3951 19.9216L21.2015 19.6273L21.5584 19.6326C21.5617 19.6326 22.4284 19.6326 22.8749 20.4984C23.14 19.8358 23.4309 18.3884 21.8059 16.9785L21.5304 16.7399L21.8889 16.6563C21.8911 16.6558 22.474 16.5169 22.997 16.8118C22.8491 16.3073 22.4828 15.5611 21.5804 15.107L21.5771 15.1049C21.573 15.1029 21.569 15.1007 21.565 15.0985C21.258 15.3545 20.8898 15.5309 20.4943 15.6115L20.4163 15.2443C21.284 15.0674 22.0138 14.0552 22.1595 13.5535C20.9772 13.5465 20.199 14.5088 20.1968 14.5114L19.8977 14.2766C19.901 14.2729 20.9112 13.0233 22.4339 13.1943L22.6489 13.2184L22.5994 13.4232C22.5989 13.4264 22.4235 14.1893 21.851 14.824C23.4188 15.6753 23.4809 17.3216 23.4815 17.3264L23.5167 18.0094L23.129 17.4385C22.9222 17.134 22.6258 17.0316 22.3861 17.0042C24.368 19.0322 23.0174 21.0656 23.013 21.072L22.776 21.4387L22.6649 21.02C22.5191 20.4695 22.2051 20.2191 21.9472 20.1038C23.3088 22.6534 20.7539 23.8982 20.7462 23.9025L20.4119 24.0692L20.4685 23.7068C20.6021 22.8555 20.281 22.3972 20.006 22.1667C20.5603 25.403 17.6568 25.4625 17.6474 25.4625L17.2966 25.4738L17.4764 25.1795C17.6755 24.853 17.7041 24.1974 17.7041 24.1952V24.1877L17.7057 24.1743C17.786 23.6479 17.6342 22.8132 17.5314 22.3366C17.1206 23.0212 17.12 24.3362 17.12 24.3416L17.1173 24.7393L16.8044 24.4836C15.0111 23.018 15.3801 21.5218 15.7914 20.7225C15.5855 20.8714 15.397 21.042 15.2294 21.2312L15.0166 21.4773L14.9022 21.1749C14.4634 20.0116 15.0029 19.2713 15.4868 18.8725C13.9976 18.8199 14.0537 17.6588 14.0542 17.655L14.0641 17.4084L14.305 17.4846C14.399 17.5146 14.4656 17.5366 14.5305 17.558C15.0798 17.7397 15.4758 17.8705 16.0988 17.476L16.101 17.4749C16.6702 17.1265 16.8616 16.9136 16.9204 16.8321L16.9188 16.8209C16.9067 16.7201 16.894 16.6193 16.2171 16.4429C15.5572 16.2773 15.1645 15.8173 15.0842 15.7166C14.4705 15.262 13.3504 16.0446 13.3471 16.0468L12.9473 16.3207L13.049 15.8554C13.4213 14.141 14.2346 13.7449 14.9259 13.7566C15.2635 13.7625 15.5896 13.8655 15.891 14.007C15.9593 13.8944 16.0379 13.788 16.1258 13.6891H16.662V13.6896Z" fill="#DBDCDD"/>
<path fill-rule="evenodd" clip-rule="evenodd" d="M97.1616 12.8394H91.25L88.1523 20.298L88.1622 12.8303H84.1852V22.8508H91.1427L91.768 21.3262H96.731L97.4453 22.8508H101.324L97.1616 12.8394ZM79.5241 18.2212L75.3222 12.8298H70.2805V20.269L67.1152 12.8389H61.2822L58.839 18.7926H55.1946C54.8916 20.0396 54.1982 20.5923 52.9372 20.5923C51.4915 20.5923 50.5143 19.5442 50.5143 17.9821C50.5143 15.9535 51.3348 14.9055 52.9081 14.9055C54.1982 14.9055 54.9307 15.4679 55.1551 16.6392H59.2893L59.2992 16.4864C59.2992 14.0671 56.7883 12.4771 52.9675 12.4771C48.8832 12.4771 46.9486 14.0295 46.6159 17.5918C46.0303 16.9726 45.0723 16.4869 44.3492 16.4301L42.805 16.2966L40.5283 16.2586C39.5517 16.2393 38.9941 15.9058 38.9941 15.344C38.9941 14.7061 39.561 14.3533 40.5965 14.3533C41.7882 14.3533 42.2672 14.7817 42.2672 15.8388H46.6154V15.7053C46.6154 13.6387 44.5636 12.4953 40.8413 12.4953C36.7081 12.4953 34.6855 13.6001 34.6855 15.8383C34.6855 17.7532 36.1708 18.7814 39.0139 18.8575L40.7043 18.8961C41.9455 18.9336 42.5026 19.229 42.5026 19.8675C42.5026 20.41 41.7206 20.9241 40.91 20.9241C39.4929 20.9241 38.7505 20.4475 38.7505 19.5523H34.2461V19.6477C34.2461 21.8194 36.4936 23.0095 40.5778 23.0095C44.5158 23.0095 46.4504 22.1721 47.0757 20.1816C48.3361 22.2766 49.9776 23.0389 53.1726 23.0389C55.2051 23.0389 56.2598 22.7623 57.5796 21.8285L57.1584 22.8481H60.999L61.7024 21.286H66.744L67.4188 22.8293H74.004V16.8949L78.6849 22.8481H83.3455V12.8394H79.5252V18.2212H79.5241ZM92.8326 18.8119L94.1904 15.4968L95.734 18.7932L92.8326 18.8119ZM62.7571 18.8119L64.1253 15.3923L65.6882 18.8119H62.7571Z" fill="#9E9E9E"/>
</svg>
