<svg width="42" height="42" viewBox="0 0 42 42" fill="none" xmlns="http://www.w3.org/2000/svg">
<path d="M36.7372 37.4411V37.031H4.86695V37.4411H36.7372ZM3.71409 29.4253H0.617188V29.9123H1.00852C1.10941 29.9123 1.26563 30.0722 1.26563 30.1731V31.3506H3.16653V29.9118H3.71409V29.4253ZM12.8863 35.8324V33.9045H11.8591V34.7297C11.8591 35.0136 11.7245 35.3459 11.4793 35.3459H10.3615C10.2607 35.3459 10.1105 35.2055 10.1105 35.1051V32.948C10.1105 32.8469 10.1877 32.7684 10.2885 32.7684H10.6056C10.7065 32.7684 10.8605 32.9301 10.8605 33.031V33.4404H11.8073V31.5059H10.8827V31.9067C10.8827 32.0075 10.7147 32.1873 10.6139 32.1873H10.2888C10.1879 32.1873 10.1107 32.0727 10.1107 31.9714V30.1234C10.1107 30.0225 10.2609 29.9127 10.3618 29.9127H11.4501C11.5911 29.9127 11.7153 30.0411 11.7153 30.1823V31.0673H12.6701V29.4253H7.55901V29.9123H7.95035C8.05123 29.9123 8.20724 30.0722 8.20724 30.1731V35.1199C8.20724 35.2208 8.05711 35.3459 7.95623 35.3459H7.56533V35.832L12.8863 35.8324ZM14.7869 31.882L16.9083 35.8324H18.7807V30.1548C18.7807 30.0539 18.9308 29.9123 19.0317 29.9123H19.4228V29.4253H17.3228V29.9123H17.7158C17.8167 29.9123 17.9671 30.0533 17.9671 30.1539V33.489L15.6886 29.4253H13.3249V29.9123H13.716C13.8171 29.9123 13.9733 30.0646 13.9733 30.1655V35.1123C13.9733 35.2136 13.823 35.3459 13.7223 35.3459H13.3312V35.832H15.4312V35.3459H15.0384C14.9373 35.3459 14.7871 35.2143 14.7871 35.1136L14.7869 31.882ZM20.8947 31.7443L19.8507 35.1349C19.812 35.2393 19.7509 35.3465 19.6501 35.3465H19.2426V35.8326H21.1982L21.194 35.3465H20.8036C20.7027 35.3465 20.5966 35.2371 20.6256 35.1363L21.0398 33.6256C21.0494 33.5862 21.0751 33.5513 21.1156 33.5513H21.9103V32.9615L21.3379 32.9619C21.2971 32.9619 21.249 32.922 21.2614 32.8819L21.583 31.7443H20.8947Z" fill="#9E9E9E"/>
<path d="M21.9108 33.5509H22.6471C22.6876 33.5509 22.7229 33.5858 22.7323 33.6254L23.1467 35.1361C23.1761 35.237 23.0696 35.3463 22.9689 35.3463H22.5778L22.5739 35.8325H25.7806V35.3463H25.3733C25.2725 35.3463 25.2112 35.2394 25.1724 35.1348L23.4931 29.4253H20.668V29.9123H20.9876C21.2822 29.9134 21.3951 30.1267 21.3367 30.3374L20.8948 31.7439H21.5831L21.8947 30.6666L22.527 32.8809C22.5399 32.9214 22.4828 32.9615 22.4423 32.9615H21.9104V33.5509H21.9108ZM30.5964 34.3405L30.5968 30.1757C30.5968 30.0746 30.752 29.9127 30.8529 29.9127H31.2422V29.4257H29.2923V29.9127H29.6834C29.7843 29.9127 29.9393 30.0783 29.9393 30.1792L29.9388 34.363C29.926 35.5111 27.8621 35.6313 27.8492 34.3161V30.1707C27.8492 30.0696 28.0042 29.9127 28.105 29.9127H28.4944V29.4257H25.3032V29.9127H25.6947C25.7956 29.9127 25.9505 30.0724 25.9505 30.1738V34.3602C25.9503 36.4234 30.5964 36.533 30.5964 34.3405ZM34.2452 30.1679C34.2452 30.0668 34.4025 29.9123 34.5039 29.9123H34.8958V29.4253H31.6952V29.9123H32.0868C32.1877 29.9123 32.3439 30.0646 32.3439 30.1655V35.1123C32.3439 35.2132 32.194 35.3459 32.0931 35.3459H31.7748V35.832H36.7364V33.8967H35.7088V34.7219C35.7088 35.0058 35.5746 35.3455 35.3294 35.3455H34.4958C34.3945 35.3455 34.2448 35.1977 34.2448 35.0966L34.2452 30.1679Z" fill="#9E9E9E"/>
<path d="M38.7281 35.8322H40.3257V35.3461H39.9346C39.8337 35.3461 39.6788 35.2038 39.6788 35.1029V30.021C39.6788 29.9604 39.7265 29.9132 39.7873 29.9132C40.2529 29.931 40.4536 30.0823 40.4536 30.7185V31.312H41.3822V29.4251H36.0746V31.312H37.0035V30.7185C37.0035 30.0823 37.2039 29.931 37.6691 29.9132C37.7299 29.9132 37.7781 29.9604 37.7781 30.021V35.1023C37.7781 35.2036 37.6232 35.3456 37.5223 35.3456H37.1312V35.8318L38.7281 35.8322ZM3.36619 32.7255C3.44442 32.7255 3.55184 32.8041 3.59629 32.8863L3.60261 32.8922L4.8971 35.8318H7.11611V35.3456H6.96032C6.82697 35.3456 6.75986 35.1779 6.67902 35.0384L5.33289 32.666C6.15456 32.666 6.56659 32.0189 6.5764 31.1571C6.56659 30.2869 6.17852 29.4247 5.16489 29.4247H3.71417V29.9114H3.88848C4.78118 29.9114 4.79426 32.2337 3.88848 32.2337H3.1666V31.3499H1.26572V35.1216C1.26572 35.2225 1.11581 35.3452 1.01492 35.3452H0.624023V35.8313H3.81156V35.3452H3.41783C3.31695 35.3452 3.16682 35.2136 3.16682 35.1127L3.16878 32.7253H3.38711H3.36619V32.7255ZM21.1305 21.1772L19.1784 24.5591C19.1148 24.6681 18.9513 24.5753 18.9932 24.4624L20.6182 20.7314L17.3814 15.1255L12.946 15.1266C12.9517 15.185 12.9914 15.2621 13.0001 15.2835L18.6931 25.1448C18.7278 25.1967 18.7949 25.2682 18.8825 25.269H23.1028C23.1885 25.2682 23.2565 25.2119 23.2791 25.1753L28.9787 15.2964C28.997 15.2674 29.0358 15.18 29.0838 15.063H24.6634L21.0024 21.3982L21.1305 21.1772Z" fill="#9E9E9E"/>
<path d="M24.0275 15.0874H29.0385C29.0755 15.0876 29.1111 15.0735 29.1379 15.0481C29.1647 15.0227 29.1806 14.9879 29.1823 14.951C29.1884 14.825 29.1597 14.6854 29.0978 14.5751L23.3932 4.70589C23.3289 4.59912 23.216 4.55358 23.0964 4.55903H18.9105C18.7933 4.55598 18.666 4.60566 18.5972 4.7048L18.5904 4.71526L12.9154 14.5755C12.847 14.6978 12.8054 14.8608 12.7962 15C12.7937 15.038 12.8064 15.0755 12.8315 15.1042C12.8567 15.1329 12.8922 15.1504 12.9302 15.153L12.9396 15.1532H17.9875L20.8789 20.1359C20.8916 20.1577 20.9098 20.1758 20.9316 20.1883C20.9535 20.2009 20.9783 20.2074 21.0035 20.2074C21.0287 20.2074 21.0534 20.2007 21.0752 20.1881C21.097 20.1755 21.1151 20.1573 21.1277 20.1355L24.0177 15.1065C24.0215 15.1005 24.0248 15.0941 24.0275 15.0874ZM23.7599 14.978L21.0027 19.776L18.2291 14.9961L21.0031 10.1918L23.7599 14.978ZM17.9725 14.8653H13.1089C13.1237 14.8111 13.1409 14.7664 13.1666 14.7161L18.8342 4.86822L18.8658 4.85057C18.8778 4.84534 18.8939 4.84643 18.9059 4.84643C18.9264 4.84686 23.1123 4.84643 23.1212 4.84556C23.1261 4.84479 23.131 4.84534 23.1356 4.84714C23.1402 4.84894 23.1442 4.85193 23.1472 4.8558L28.8464 14.7163C28.8607 14.7442 28.871 14.769 28.879 14.7993H23.9889L21.1277 9.83202C21.1151 9.81016 21.097 9.79201 21.0751 9.77938C21.0532 9.76675 21.0284 9.76009 21.0032 9.76007C20.9779 9.76005 20.9531 9.76666 20.9312 9.77925C20.9093 9.79184 20.8912 9.80997 20.8785 9.83181L17.9725 14.8653Z" fill="#9E9E9E"/>
<path d="M17.3391 14.8836H18.1096L21.0023 9.9039L23.8447 14.8437L24.6252 14.8442L21.376 9.21711L23.02 5.48113C23.0634 5.38068 22.8884 5.29941 22.8307 5.39855L17.3391 14.8836ZM18.587 25.1951C18.6515 25.3084 18.7561 25.3766 18.8855 25.3908L18.8934 25.3917H23.1261C23.239 25.3877 23.3569 25.3289 23.419 25.2326L29.1293 15.3346C29.1524 15.2837 29.1655 15.1109 29.1726 15.0274L28.8863 15.0024L28.8711 15.1741L28.8648 15.2174L23.1782 25.0744C23.1711 25.0832 23.1621 25.0904 23.152 25.0955C23.1418 25.1005 23.1307 25.1034 23.1194 25.1038H18.9106C18.8807 25.1014 18.8509 25.0768 18.8367 25.0522L13.1478 15.1978C13.1315 15.162 13.1179 15.1251 13.107 15.0873C13.1024 15.0495 13.0829 15.015 13.0529 14.9914C13.0228 14.9679 12.9847 14.9573 12.9468 14.9619C12.9089 14.9666 12.8744 14.986 12.8509 15.0161C12.8274 15.0461 12.8167 15.0843 12.8214 15.1222C12.8253 15.1538 12.8338 15.191 12.8451 15.2207L12.8889 15.3253L18.587 25.1951Z" fill="#9E9E9E"/>
</svg>
