<svg width="27" height="27" viewBox="0 0 27 27" fill="none" xmlns="http://www.w3.org/2000/svg">
<path d="M23.3363 5.64135C20.9732 3.27824 17.8313 1.97682 14.4893 1.97682C13.5724 1.97682 12.6577 2.07817 11.7634 2.27782L11.4052 0.933527C11.3152 0.597506 11.0913 0.310897 10.791 0.147263C10.4993 -0.0117296 10.1644 -0.0431063 9.84781 0.0586175C9.00291 0.33025 8.17905 0.677293 7.39426 1.09194C6.99955 0.877365 6.53227 0.871248 6.14009 1.09605C3.84453 2.38213 2.38311 3.8436 1.09714 6.139C0.87218 6.53124 0.87835 6.99857 1.09292 7.39333C0.678383 8.17802 0.331341 9.00188 0.0596027 9.84684V9.84689C-0.0421739 10.1635 -0.0106917 10.4984 0.148248 10.7901C0.311935 11.0904 0.598491 11.3143 0.935144 11.4045L2.27875 11.7625C2.07915 12.6569 1.97775 13.5715 1.97775 14.4884C1.97775 17.8303 3.27917 20.9723 5.64228 23.3354C8.00545 25.6986 11.1474 27 14.4894 27C17.8313 27 20.9733 25.6985 23.3364 23.3354C25.6995 20.9723 27.001 17.8303 27.001 14.4884C27.001 11.1464 25.6994 8.00452 23.3363 5.64135ZM9.95655 6.9297C9.9536 6.93138 9.95065 6.93312 9.94775 6.93492C9.33487 7.30485 8.76666 7.74992 8.25873 8.2578C7.7509 8.76568 7.30577 9.33394 6.93585 9.94682C6.93411 9.94977 6.93237 9.95267 6.93063 9.95568C6.4808 10.7348 5.97651 11.0545 5.26423 10.9781C5.75798 9.68626 6.528 8.497 7.51297 7.51204C8.49788 6.52707 9.68708 5.7571 10.9791 5.2633C11.0554 5.97553 10.7357 6.47982 9.95655 6.9297ZM1.07426 10.2854C1.05401 10.2482 1.05053 10.2104 1.06355 10.1698C1.34863 9.28316 1.72273 8.42175 2.17555 7.60923C2.2903 7.40335 2.25444 7.14633 2.0878 6.97964C1.98529 6.87712 1.95708 6.75879 2.01229 6.66318C2.01345 6.66118 2.01456 6.65917 2.01572 6.65711C3.21494 4.51575 4.51647 3.21411 6.65794 2.01484C6.65994 2.01373 6.66195 2.01257 6.66395 2.01146C6.75966 1.9562 6.878 1.98446 6.98046 2.08698C7.1471 2.25372 7.40412 2.28958 7.61005 2.17478C8.42263 1.7219 9.28409 1.34781 10.1706 1.06278C10.2112 1.0497 10.249 1.05313 10.2862 1.07343C10.3342 1.09959 10.3708 1.1481 10.3862 1.2059L11.1533 4.08444C9.51084 4.61177 7.99511 5.53831 6.7671 6.76633C5.53908 7.9944 4.61255 9.51008 4.08526 11.1525L1.2073 10.3857C1.14893 10.3699 1.10041 10.3334 1.07426 10.2854ZM14.4893 25.9453C8.17193 25.9453 3.03237 20.8057 3.03237 14.4884C3.03237 13.6631 3.12207 12.8399 3.29868 12.0343L3.9182 12.1994C3.98659 12.2177 4.05657 12.2264 4.12681 12.2264C4.36217 12.2264 4.59926 12.1279 4.78261 11.9649C5.01797 12.0158 5.24462 12.0418 5.46198 12.0418C6.44505 12.0418 7.24265 11.522 7.84129 10.4877C8.16671 9.9493 8.55805 9.45001 9.00449 9.00357C9.45099 8.55712 9.95028 8.16573 10.4885 7.84036C11.7517 7.10936 12.2469 6.08147 11.9658 4.78147C12.1774 4.54354 12.2801 4.21495 12.2005 3.91801L12.0353 3.29775C12.8408 3.12114 13.6641 3.03144 14.4894 3.03144C20.8067 3.03144 25.9463 8.171 25.9463 14.4884C25.9463 20.8057 20.8067 25.9453 14.4893 25.9453Z" fill="white"/>
<path d="M4.36542 8.6387C4.50991 8.38584 4.42206 8.06373 4.1692 7.91919C3.91633 7.77464 3.59413 7.8626 3.44963 8.11541L3.44942 8.11578C3.30493 8.3687 3.39289 8.69059 3.64575 8.83513C3.72823 8.88233 3.81809 8.90464 3.90679 8.90464C4.08999 8.90464 4.26802 8.80908 4.36542 8.6387Z" fill="white"/>
<path d="M8.37765 4.43479C8.47199 4.43479 8.56749 4.40953 8.65366 4.35648C8.90172 4.20381 8.97903 3.87902 8.82636 3.63096C8.6737 3.3829 8.34885 3.30548 8.10084 3.45826L8.10053 3.45847C7.85246 3.61113 7.77531 3.93582 7.92798 4.18388C8.0276 4.34572 8.20051 4.43479 8.37765 4.43479Z" fill="white"/>
<path d="M14.4882 8.16016C10.9989 8.16016 8.16016 10.9989 8.16016 14.4882C8.16016 17.0027 9.64915 19.2792 11.9535 20.2877C12.0223 20.3178 12.0941 20.3321 12.1647 20.3321C12.3678 20.332 12.5614 20.214 12.6481 20.016C12.7648 19.7492 12.6432 19.4382 12.3764 19.3215C10.4558 18.4809 9.21484 16.5838 9.21484 14.4883C9.21484 11.5805 11.5805 9.21489 14.4882 9.21489C17.396 9.21489 19.7616 11.5805 19.7616 14.4883C19.7616 16.5837 18.5208 18.4808 16.6004 19.3213C16.3336 19.4381 16.212 19.749 16.3288 20.0159C16.4456 20.2827 16.7564 20.4042 17.0234 20.2875C19.3275 19.279 20.8164 17.0026 20.8164 14.4882C20.8163 10.9989 17.9775 8.16016 14.4882 8.16016Z" fill="white"/>
<path d="M15.0158 10.7969C15.0158 10.5057 14.7797 10.2695 14.4885 10.2695H14.4881C14.1969 10.2695 13.9609 10.5057 13.9609 10.7969C13.9609 11.0881 14.1972 11.3242 14.4885 11.3242C14.7797 11.3242 15.0158 11.0881 15.0158 10.7969Z" fill="white"/>
<path d="M12.4219 10.8123L12.4216 10.8125C12.1571 10.9345 12.0419 11.2478 12.1639 11.5123C12.2529 11.7051 12.4438 11.8187 12.6431 11.8187C12.7171 11.8187 12.7923 11.803 12.8639 11.77C13.1283 11.648 13.2438 11.3347 13.1217 11.0702C12.9997 10.8057 12.6862 10.6903 12.4219 10.8123Z" fill="white"/>
<path d="M11.5838 12.2038C11.3414 12.0423 11.0141 12.1078 10.8524 12.3501L10.8523 12.3504C10.6907 12.5927 10.7563 12.92 10.9986 13.0815C11.0885 13.1415 11.19 13.1701 11.2906 13.1701C11.461 13.1701 11.6284 13.0876 11.73 12.9351C11.8916 12.6929 11.8261 12.3654 11.5838 12.2038Z" fill="white"/>
<path d="M11.3242 14.4883C11.3242 14.1971 11.0881 13.9609 10.7969 13.9609C10.5056 13.9609 10.2695 14.1971 10.2695 14.4883V14.4886C10.2695 14.7798 10.5056 15.0158 10.7969 15.0158C11.0881 15.0158 11.3242 14.7795 11.3242 14.4883Z" fill="white"/>
<path d="M10.8207 16.5703C10.913 16.7551 11.0991 16.8618 11.2925 16.8618C11.3718 16.8618 11.4523 16.8438 11.528 16.8059C11.7885 16.6757 11.894 16.3588 11.7638 16.0983C11.6336 15.8378 11.3168 15.7322 11.0563 15.8624C10.7958 15.9926 10.6902 16.3094 10.8204 16.5699L10.8207 16.5703Z" fill="white"/>
<path d="M12.9191 17.2356C12.671 17.0829 12.3462 17.1602 12.1935 17.4083C12.0409 17.6563 12.1182 17.9811 12.3663 18.1338L12.3666 18.134C12.4527 18.187 12.5481 18.2122 12.6423 18.2122C12.8193 18.2122 12.9923 18.123 13.0919 17.9611C13.2446 17.7131 13.1671 17.3882 12.9191 17.2356Z" fill="white"/>
<path d="M14.4886 18.707C14.7799 18.707 15.0158 18.4709 15.0158 18.1797C15.0158 17.8885 14.7795 17.6523 14.4883 17.6523C14.197 17.6523 13.9609 17.8885 13.9609 18.1797C13.9609 18.4709 14.197 18.707 14.4883 18.707H14.4886Z" fill="white"/>
<path d="M16.6105 18.1338L16.6108 18.1336C16.8589 17.9809 16.936 17.6562 16.7834 17.4081C16.6307 17.1601 16.3058 17.0829 16.0577 17.2355C15.8096 17.3882 15.7323 17.713 15.885 17.9611C15.9846 18.1229 16.1575 18.2121 16.3346 18.2121C16.4289 18.2121 16.5243 18.1868 16.6105 18.1338Z" fill="white"/>
<path d="M17.9514 15.8785C17.6999 15.7318 17.3769 15.8168 17.2301 16.0684C17.0834 16.32 17.1684 16.643 17.4199 16.7897C17.5034 16.8385 17.5949 16.8616 17.6851 16.8616C17.8665 16.8616 18.0431 16.7679 18.1411 16.5999L18.1413 16.5996C18.288 16.348 18.203 16.0252 17.9514 15.8785Z" fill="white"/>
<path d="M18.707 14.4885V14.4881C18.707 14.1969 18.4709 13.9609 18.1797 13.9609C17.8884 13.9609 17.6523 14.1972 17.6523 14.4885C17.6523 14.7797 17.8884 15.0158 18.1797 15.0158C18.4709 15.0158 18.707 14.7797 18.707 14.4885Z" fill="white"/>
<path d="M18.1242 12.3501C17.9627 12.1077 17.6354 12.0423 17.393 12.2039C17.1507 12.3655 17.0853 12.693 17.2468 12.9354C17.3485 13.0878 17.5157 13.1702 17.6861 13.1702C17.7866 13.1702 17.8882 13.1415 17.9782 13.0816C18.2205 12.9201 18.286 12.5926 18.1244 12.3503L18.1242 12.3501Z" fill="white"/>
<path d="M16.3337 11.8187C16.5107 11.8187 16.6837 11.7296 16.7833 11.5677C16.936 11.3196 16.8586 10.9948 16.6106 10.8422L16.6103 10.842C16.3623 10.6893 16.0376 10.7668 15.8849 11.0148C15.7322 11.2628 15.8098 11.5877 16.0578 11.7404C16.144 11.7934 16.2394 11.8187 16.3337 11.8187Z" fill="white"/>
<path d="M12.3789 14.4883C12.3789 15.6514 13.3252 16.5977 14.4883 16.5977C15.6514 16.5977 16.5977 15.6514 16.5977 14.4883C16.5977 13.3252 15.6514 12.3789 14.4883 12.3789C13.3252 12.3789 12.3789 13.3252 12.3789 14.4883ZM14.4883 13.4336C15.0698 13.4336 15.543 13.9068 15.543 14.4883C15.543 15.0699 15.0698 15.543 14.4883 15.543C13.9067 15.543 13.4336 15.0699 13.4336 14.4883C13.4336 13.9068 13.9067 13.4336 14.4883 13.4336Z" fill="white"/>
<path d="M13.7335 6.90332C13.8166 6.95125 13.9072 6.97409 13.9967 6.97409C14.179 6.97409 14.3562 6.87948 14.4539 6.71031L15.4362 5.00883C15.5818 4.75661 15.4954 4.43414 15.2432 4.28848C14.9911 4.14294 14.6685 4.22926 14.5228 4.48149L13.5405 6.18297C13.3948 6.43519 13.4812 6.75766 13.7335 6.90332Z" fill="white"/>
<path d="M6.44621 15.5069C6.62846 15.5069 6.8057 15.4123 6.90336 15.2431C7.04902 14.9909 6.96258 14.6684 6.71036 14.5228L5.00888 13.5404C4.75676 13.3948 4.43418 13.4813 4.28853 13.7335C4.14288 13.9857 4.22931 14.3082 4.48154 14.4538L6.18301 15.4361C6.26607 15.4841 6.35677 15.5069 6.44621 15.5069Z" fill="white"/>
<path d="M7.76936 18.4072H5.80469C5.51344 18.4072 5.27734 18.6434 5.27734 18.9346C5.27734 19.2258 5.51344 19.4619 5.80469 19.4619H7.76936C8.06061 19.4619 8.2967 19.2258 8.2967 18.9346C8.2967 18.6434 8.06061 18.4072 7.76936 18.4072Z" fill="white"/>
<path d="M10.6293 21.2417L8.92783 22.224C8.6756 22.3696 8.58917 22.6921 8.73482 22.9443C8.83248 23.1135 9.00972 23.2081 9.19197 23.2081C9.28141 23.2081 9.37211 23.1853 9.45517 23.1374L11.1566 22.155C11.4089 22.0094 11.4953 21.6869 11.3497 21.4347C11.204 21.1824 10.8815 21.096 10.6293 21.2417Z" fill="white"/>
<path d="M15.2432 22.0736C14.991 21.9281 14.6685 22.0145 14.5228 22.2666L13.5405 23.9681C13.3948 24.2203 13.4813 24.5428 13.7335 24.6885C13.8165 24.7364 13.9072 24.7592 13.9967 24.7592C14.1789 24.7592 14.3562 24.6646 14.4538 24.4955L15.4362 22.794C15.5818 22.5418 15.4954 22.2192 15.2432 22.0736Z" fill="white"/>
<path d="M18.9346 20.6797C18.6433 20.6797 18.4072 20.9158 18.4072 21.207V23.1717C18.4072 23.4629 18.6433 23.699 18.9346 23.699C19.2258 23.699 19.4619 23.4629 19.4619 23.1717V21.207C19.4619 20.9158 19.2258 20.6797 18.9346 20.6797Z" fill="white"/>
<path d="M22.155 17.8204C22.0094 17.5682 21.6869 17.4817 21.4347 17.6274C21.1824 17.7731 21.096 18.0955 21.2417 18.3478L22.224 20.0492C22.3217 20.2184 22.4989 20.313 22.6811 20.313C22.7706 20.313 22.8613 20.2902 22.9443 20.2422C23.1966 20.0966 23.283 19.7741 23.1374 19.5219L22.155 17.8204Z" fill="white"/>
<path d="M24.4955 14.5227L22.7941 13.5404C22.5418 13.3949 22.2193 13.4812 22.0736 13.7334C21.928 13.9857 22.0145 14.3082 22.2667 14.4538L23.9682 15.4361C24.0512 15.484 24.1419 15.5069 24.2314 15.5069C24.4136 15.5069 24.5909 15.4122 24.6886 15.2431C24.8342 14.9908 24.7478 14.6683 24.4955 14.5227Z" fill="white"/>
<path d="M23.1717 10.5693C23.463 10.5693 23.699 10.3332 23.699 10.042C23.699 9.75079 23.463 9.51465 23.1717 9.51465H21.207C20.9158 9.51465 20.6797 9.75079 20.6797 10.042C20.6797 10.3332 20.9158 10.5693 21.207 10.5693H23.1717Z" fill="white"/>
<path d="M18.0846 7.80577C18.174 7.80577 18.2647 7.78294 18.3477 7.735L20.0492 6.75267C20.3015 6.60707 20.3879 6.28455 20.2422 6.03232C20.0966 5.78009 19.7741 5.69366 19.5219 5.83931L17.8204 6.82165C17.5682 6.96725 17.4817 7.28977 17.6274 7.542C17.7251 7.71117 17.9023 7.80577 18.0846 7.80577Z" fill="white"/>
<path d="M14.4884 20.8164C14.7797 20.8164 15.0158 20.5803 15.0158 20.2891C15.0158 19.9979 14.7797 19.7617 14.4884 19.7617H14.4881C14.1968 19.7617 13.9609 19.9979 13.9609 20.2891C13.9609 20.5803 14.1972 20.8164 14.4884 20.8164Z" fill="white"/>
</svg>
