<svg width="54" height="35" viewBox="0 0 54 35" fill="none" xmlns="http://www.w3.org/2000/svg">
<g clip-path="url(#clip0)">
<path d="M34.649 32.1674H36.6582V32.6471H34.649V32.1674ZM1.22816 29.2576L1.04856 34.073V34.1566C1.04856 34.5643 1.16496 34.6484 1.79507 34.6944V34.9175C1.33643 34.8811 1.1559 34.8717 0.904506 34.8717C0.652416 34.8717 0.472584 34.8811 0.00488281 34.9175V34.6944C0.634293 34.6484 0.724674 34.5739 0.742564 34.073L0.931457 29.5179V29.463C0.931457 29.0355 0.805296 28.943 0.185179 28.9061V28.6736C0.535316 28.7016 0.670306 28.711 0.922396 28.711C1.20796 28.7137 1.49342 28.6984 1.77718 28.6652L3.44956 33.3589L5.14914 28.6652C5.55457 28.7016 5.74323 28.711 6.01321 28.711C6.23719 28.711 6.3817 28.7016 6.72324 28.6736V28.9061C6.11196 28.943 5.97627 29.0355 5.97627 29.4529V29.5179L6.07548 34.073C6.08524 34.5739 6.16563 34.6477 6.81339 34.6944V34.9175C6.24695 34.8619 6.03064 34.8428 5.6891 34.8428C5.34686 34.8428 5.13101 34.861 4.56457 34.9175V34.6944C5.17586 34.6577 5.31084 34.5552 5.31084 34.12V34.0742L5.23069 29.2682L3.74603 33.4054L3.63846 33.7119L3.51253 34.0546L3.39496 34.4083L3.29622 34.7141H3.16123L3.06272 34.4174L2.93632 34.0546L2.81063 33.6932L2.70259 33.3687L1.22816 29.2576ZM7.9816 32.2541C8.07175 31.1875 8.41306 30.6408 8.9888 30.6408C9.5736 30.6408 9.8703 31.1601 9.92397 32.2541H7.9816ZM9.1512 34.6846C8.33267 34.6846 7.97231 34.0351 7.96417 32.5879H10.6445C10.6261 31.1594 10.0594 30.3986 8.99786 30.3986C7.91933 30.3986 7.24438 31.2987 7.24438 32.7274C7.24438 34.1559 7.91956 34.9906 9.07918 34.9906C9.96068 34.9906 10.5366 34.4243 10.6528 33.4691H10.2927C10.1849 34.2575 9.78921 34.6846 9.1512 34.6846ZM11.1795 30.7417V30.5752C11.6918 30.5289 11.9981 30.4733 12.3666 30.3616C12.4116 30.7053 12.4295 30.8532 12.4474 31.1319V31.2342C12.6458 30.7053 13.0318 30.3988 13.4999 30.3988C13.9493 30.3988 14.2824 30.7053 14.2824 31.151C14.2824 31.4202 14.1296 31.5961 13.9047 31.5961C13.6979 31.5961 13.5362 31.4659 13.5362 31.2809C13.5362 31.2625 13.5455 31.226 13.5536 31.1875L13.5715 31.0952V31.0108C13.5715 30.881 13.4634 30.7885 13.3015 30.7885C12.8345 30.7885 12.5378 31.3727 12.5378 32.2913V34.2297C12.5378 34.6295 12.6272 34.7035 13.1763 34.7311V34.9168C12.6809 34.871 12.4923 34.8607 12.1774 34.8607C11.8538 34.8607 11.6651 34.871 11.1707 34.9168V34.7311C11.7188 34.7035 11.8178 34.6295 11.8178 34.2297V31.1973C11.8092 30.798 11.7636 30.7523 11.2966 30.7424L11.1795 30.7417ZM17.7232 30.3159V31.847H17.5248C17.3628 31.0391 17.0303 30.6497 16.482 30.6497C15.8068 30.6497 15.4116 31.4017 15.4116 32.7281C15.4116 34.0265 15.7622 34.6853 16.4546 34.6853C17.0122 34.6853 17.3449 34.2774 17.453 33.4614H17.8215C17.7044 34.4543 17.1918 34.992 16.3828 34.992C15.3394 34.992 14.6293 34.0826 14.6293 32.7288C14.6293 31.3459 15.3484 30.4 16.4098 30.4C16.7966 30.4 17.0394 30.5023 17.3277 30.7899L17.5698 30.3166H17.7234V30.3159H17.7232ZM19.1999 32.2541C19.2899 31.1875 19.6312 30.6408 20.2071 30.6408C20.7917 30.6408 21.0884 31.1601 21.1418 32.2541H19.1999ZM20.3691 34.6846C19.5505 34.6846 19.1911 34.0351 19.182 32.5879H21.8619C21.844 31.1594 21.2768 30.3986 20.2164 30.3986C19.1365 30.3986 18.4618 31.2987 18.4618 32.7274C18.4618 34.1559 19.1363 34.9906 20.2973 34.9906C21.1785 34.9906 21.7543 34.4243 21.8707 33.4691H21.511C21.4032 34.2575 21.0075 34.6846 20.3691 34.6846ZM24.3526 34.7409C23.705 34.7409 23.3635 34.0445 23.3635 32.7188C23.3635 31.3744 23.6781 30.7154 24.3258 30.7154C24.9917 30.7154 25.3335 31.4202 25.3335 32.7847C25.3333 34.0728 25.0003 34.7409 24.3526 34.7409ZM26.0433 33.9518V28.5962C25.5937 28.7203 25.1894 28.7939 24.686 28.8495V29.0077C25.2524 29.0077 25.3244 29.0726 25.3244 29.5548V31.1779C24.9917 30.6217 24.7308 30.4542 24.245 30.4542C23.2829 30.4542 22.6079 31.3909 22.6079 32.7267C22.6079 34.0627 23.291 34.9988 24.2719 34.9988C24.7845 34.9988 25.1353 34.7577 25.3869 34.2386C25.4227 34.5911 25.4227 34.628 25.5131 34.9801C25.8814 34.8593 26.0347 34.8224 26.5654 34.7577L26.7001 34.7395V34.5818C26.0974 34.5633 26.0433 34.5176 26.0433 33.9518ZM27.7786 32.2541C27.8686 31.1875 28.2101 30.6408 28.7861 30.6408C29.3706 30.6408 29.6669 31.1601 29.7208 32.2541H27.7786ZM28.948 34.6846C28.129 34.6846 27.7701 34.0351 27.7605 32.5879H30.4406C30.4224 31.1594 29.856 30.3986 28.7951 30.3986C27.7152 30.3986 27.041 31.2987 27.041 32.7274C27.041 34.1559 27.7152 34.9906 28.876 34.9906C29.7573 34.9906 30.3328 34.4243 30.4492 33.4691H30.0893C29.9822 34.2575 29.5858 34.6846 28.948 34.6846ZM31.2043 35.0002V33.4504L31.4022 33.4416C31.5637 34.2861 31.9417 34.6944 32.5716 34.6944C33.1016 34.6944 33.4977 34.3323 33.4977 33.8602C33.4977 33.5448 33.3272 33.3318 32.8857 33.1271L32.5442 32.969L32.1306 32.7744C31.4733 32.4592 31.2668 32.1992 31.2668 31.661C31.2668 30.9279 31.8239 30.4278 32.616 30.4278C32.9668 30.4278 33.2282 30.5112 33.5335 30.7235L33.6859 30.3434H33.8478V31.7813H33.6406C33.559 31.0389 33.2628 30.6871 32.6966 30.6871C32.2201 30.6871 31.8504 31.0211 31.8504 31.4571C31.8504 31.8278 31.9854 31.9491 32.8039 32.3198L33.182 32.4873C33.8648 32.7924 34.1085 33.09 34.1085 33.6376C34.1085 34.4169 33.5056 34.9726 32.661 34.9726C32.247 34.9726 31.9231 34.8612 31.5816 34.5832L31.3648 35.0002H31.204H31.2043ZM39.1104 31.7995C39.5867 31.7995 39.8564 31.8834 40.0637 32.0962C40.2707 32.3104 40.388 32.709 40.388 33.1535C40.388 34.0812 39.9377 34.6012 39.1375 34.6012H38.8139C38.3369 34.6012 38.2563 34.5264 38.2563 34.1183V31.7988L39.1104 31.7995ZM38.2556 28.9885H39.0202C39.7758 28.9885 40.1083 29.3695 40.1083 30.2318C40.1083 30.6583 40.0095 30.9651 39.8118 31.2054C39.6138 31.4381 39.3713 31.5115 38.868 31.5115H38.2563V28.9882H38.2556V28.9885ZM40.9084 30.2131C40.9084 29.7307 40.711 29.3046 40.3689 29.0347C40.0637 28.803 39.7133 28.7014 39.1278 28.7014H36.7626V28.9331C37.4106 28.9705 37.5 29.0446 37.5 29.5454V34.0443C37.5 34.5454 37.4275 34.6096 36.7626 34.6661V34.8892H39.0379C39.7031 34.8892 40.0634 34.8051 40.4414 34.564C40.8908 34.2674 41.1875 33.7013 41.1875 33.118C41.1875 32.616 40.9805 32.1619 40.6299 31.8846C40.4414 31.7362 40.2433 31.6517 39.9191 31.5874C40.5674 31.3358 40.9084 30.8625 40.9084 30.2131ZM42.6556 32.2541C42.746 31.1875 43.0876 30.6408 43.6635 30.6408C44.2476 30.6408 44.5448 31.1601 44.5982 32.2541H42.6556ZM43.8255 34.6846C43.0069 34.6846 42.6466 34.0351 42.638 32.5879H45.3185C45.3004 31.1594 44.7335 30.3986 43.6721 30.3986C42.5929 30.3986 41.9182 31.2987 41.9182 32.7274C41.9182 34.1559 42.5929 34.9906 43.7528 34.9906C44.634 34.9906 45.2098 34.4243 45.3266 33.4691H44.9667C44.8596 34.2575 44.464 34.6846 43.8255 34.6846ZM45.7941 30.7786V30.6217C46.3159 30.5469 46.6217 30.4733 46.9809 30.3432C47.0264 30.5574 47.0536 30.7978 47.071 31.1503C47.3952 30.649 47.7634 30.4271 48.2855 30.4271C48.8254 30.4271 49.2925 30.7134 49.473 31.1685C49.5634 31.3916 49.6082 31.6509 49.6082 32.003V34.2295C49.6082 34.6287 49.6981 34.7028 50.2462 34.7304V34.9161C49.7697 34.8694 49.5901 34.8605 49.2662 34.8605C48.9328 34.8605 48.7534 34.8694 48.2853 34.9161V34.7304C48.7708 34.7126 48.8879 34.6194 48.8879 34.2484V31.9754C48.8879 31.1685 48.6542 30.8433 48.0789 30.8433C47.4667 30.8433 47.1433 31.2428 47.1433 32.003V34.2484C47.1433 34.6194 47.2609 34.7126 47.7288 34.7304V34.9161C47.2609 34.8694 47.0813 34.8605 46.7572 34.8605C46.4423 34.8605 46.253 34.8694 45.7855 34.9161V34.7304C46.3336 34.7028 46.424 34.6287 46.424 34.2295V31.2246C46.4149 30.8433 46.361 30.7885 45.9117 30.7885C45.8838 30.7885 45.8394 30.7786 45.7941 30.7786ZM50.5956 34.8892L53.0329 30.7515H51.9265C51.3424 30.7515 51.1976 30.881 50.8742 31.7161H50.6951L50.9021 30.5102H53.996L51.5494 34.6477H52.6012C53.2134 34.6477 53.4648 34.3977 53.7348 33.553H53.9237L53.6902 34.8892H50.5956Z" fill="#9E9E9E"/>
<path d="M38.003 20.0396C39.2012 17.9845 39.8328 15.6309 39.8295 13.2328C39.8295 5.92444 34.0851 0 26.9996 0C19.9139 0 14.1699 5.92468 14.1699 13.2328C14.1666 15.631 14.7983 17.9846 15.9968 20.0396L15.9501 20.0782L16.0059 20.0559C18.2515 23.8964 22.3344 26.4656 26.9996 26.4656C31.665 26.4656 35.7475 23.8964 37.9928 20.0559L38.0486 20.0782L38.003 20.0396ZM38.2533 13.2328C38.2554 15.2593 37.7404 17.2507 36.7598 19.0068L28.823 12.4135L27.1952 1.63148C33.3195 1.73932 38.2533 6.8902 38.2533 13.2328ZM15.7473 13.2328C15.7473 6.89044 20.6806 1.73956 26.8049 1.63148L25.1771 12.4135L17.2403 19.0068C16.26 17.2506 15.7451 15.2592 15.7473 13.2328ZM27 24.8392C23.007 24.8392 19.5022 22.692 17.505 19.458L27 15.6693L36.4951 19.4582C34.4977 22.692 30.9935 24.8392 27 24.8392Z" fill="#9E9E9E"/>
</g>
<defs>
<clipPath id="clip0">
<rect width="54" height="35" fill="white"/>
</clipPath>
</defs>
</svg>
