<svg width="103" height="14" viewBox="0 0 103 14" fill="none" xmlns="http://www.w3.org/2000/svg">
<path fill-rule="evenodd" clip-rule="evenodd" d="M1.51465 0.821004V2.61501H4.50864L10.3678 13.4147H17.5779L23.4371 2.59715L26.4305 2.57877L26.4369 0.821004H17.4801V2.58507H19.8654L15.7279 10.2626L11.2527 2.61186L14.5171 2.59715L14.5112 0.821004H1.51465ZM59.2981 0.821004V2.61501H62.291L68.1513 13.4147H75.3608L81.22 2.59715L84.2145 2.57877L84.2193 0.821004H75.2641V2.58507H77.6484L73.5114 10.2626L69.0362 2.61186L72.3 2.59715L72.2947 0.821004H59.2981ZM44.5665 0.821004V2.61501H47.5605L47.5648 11.4322H44.4094V13.3985L47.5669 13.4147H62.5149V7.55271H60.5672C60.4609 10.6565 57.7212 11.4364 56.5681 11.4364C55.5101 11.4364 53.4614 11.4322 53.4614 11.4322V2.61186L56.4099 2.59715L56.4057 0.821004H44.5665ZM34.488 0.459684C29.3994 0.459684 25.2747 3.43743 25.2747 7.10946C25.2747 10.7815 29.3994 13.7592 34.488 13.7592C39.5767 13.7592 43.7019 10.7815 43.7019 7.10946C43.7019 3.43743 39.5767 0.459684 34.488 0.459684ZM34.3561 11.8019C32.5622 11.8019 31.1088 9.69018 31.1088 7.08373C31.1088 4.47676 32.5622 2.36345 34.3561 2.36345C36.1494 2.36345 37.6039 4.47676 37.6039 7.08373C37.6039 9.69018 36.1494 11.8019 34.3561 11.8019ZM92.2726 0.241211C87.1839 0.241211 83.0592 3.26675 83.0592 6.9997C83.0592 10.7311 87.1839 13.7571 92.2726 13.7571C97.3602 13.7571 101.486 10.7311 101.486 6.9997C101.486 3.26727 97.3602 0.241211 92.2726 0.241211ZM92.1401 11.7683C90.3473 11.7683 88.8933 9.62138 88.8933 6.97239C88.8933 4.3234 90.3473 2.17596 92.1401 2.17596C93.9339 2.17596 95.3868 4.32288 95.3868 6.97239C95.3868 9.62138 93.9339 11.7683 92.1401 11.7683Z" fill="#9E9E9E"/>
</svg>
