<svg width="88" height="33" viewBox="0 0 88 33" fill="none" xmlns="http://www.w3.org/2000/svg">
<path fill-rule="evenodd" clip-rule="evenodd" d="M64.0306 19.6982C63.5463 21.1829 65.4938 21.2294 65.9211 22.3391C66.1814 22.6948 66.0613 23.2161 66.4982 23.4894C67.2364 24.0484 68.3536 24.2228 68.6845 25.1536C68.9315 25.6606 69.436 25.7683 69.94 25.7798C70.1432 25.6693 70.4153 25.5723 70.5098 25.3105C70.6577 24.9258 70.7239 24.5136 70.45 24.1717C70.1226 24.0493 69.8492 23.8032 69.4684 23.8184L69.5369 23.8865C69.6866 24.0645 69.6606 24.3663 69.4164 24.4501C69.116 24.2048 68.8279 23.8354 68.7859 23.4231C68.8073 22.1882 67.2693 22.2227 67.1141 21.0706C67.1675 20.865 67.3716 20.7946 67.5761 20.8351C68.3412 21.3941 69.362 21.3214 70.1003 21.977C70.4034 22.8945 71.6721 23.2603 71.7579 24.2757C72.5363 24.7252 72.5943 25.5893 72.9107 26.2877C73.3467 26.4092 73.8361 26.3245 74.1757 26.0485C74.3666 26.1023 74.435 26.308 74.3949 26.515C74.614 26.8017 75.0769 26.677 75.3755 26.6204C75.9489 26.7832 75.6796 27.4973 75.8311 27.9358C75.8864 28.1001 76.0238 28.4838 75.7243 28.5128L77.0314 28.5073L76.9227 28.3977C76.8935 27.9312 77.424 27.8323 77.7225 27.6395C77.7878 27.0078 77.2007 26.6402 77.0218 26.0922C77.0706 24.843 75.8288 24.2996 75.8654 23.0505C76.2667 21.4014 74.3154 20.669 74.8811 19.019L74.7724 19.02C75.0267 18.0307 74.3141 17.059 74.0652 16.0859C74.414 14.8901 74.4209 13.2567 73.8306 12.1755C73.8023 11.8461 74.1552 11.6938 74.4556 11.7614C75.7773 11.9744 77.2893 12.2841 78.5155 12.1548C78.3516 12.1148 78.2695 11.95 78.2275 11.7996C78.322 11.6068 78.5251 11.3864 78.7981 11.4536C79.5062 11.4646 80.0901 10.982 80.7302 10.993L80.5111 10.7607C80.4818 10.1432 81.2858 10.4142 81.5291 10.1244C79.5149 10.2569 77.3728 9.49771 75.1806 9.45262C73.7082 9.19772 72.5856 10.9733 71.2466 9.82622C70.6476 9.78757 69.9546 10.1888 69.4757 9.71027L69.7496 6.77207C70.3728 6.02808 71.4384 6.83372 72.02 5.95309C72.5646 5.92318 73.3672 5.72718 73.7375 6.12379C74.0639 6.15001 74.267 5.87441 74.4839 5.65402C74.2652 5.55878 73.9799 5.62872 73.7347 5.60249C73.5708 5.49345 73.312 5.41201 73.338 5.15113C73.7712 4.51849 74.5095 5.15987 75.0518 4.73198C75.0975 4.34043 74.5551 4.17618 74.4766 3.82788V3.93877C74.4784 4.24059 74.1378 4.24197 73.9059 4.22955C73.7009 4.09336 73.6457 3.88769 73.6722 3.65396C73.8078 3.48879 73.9566 3.36502 74.1885 3.41885C73.18 3.27254 72.1857 3.12531 71.164 3.01994C71.2462 3.29416 71.0293 3.43219 70.8805 3.59737C70.7038 3.7354 70.4988 3.61255 70.3623 3.49017C70.103 3.31257 70.224 3.05123 70.3596 2.85845L70.1276 2.85983C69.8957 2.76459 69.6095 2.6284 69.7309 2.28516L68.8179 2.28884C68.2864 2.18072 68.6243 1.45238 68.527 1.13721L67.8897 1.77123C67.8263 2.96519 66.5078 3.34155 65.6783 3.79797C65.6417 4.71772 64.7177 5.1608 64.2027 5.82196L64.5451 6.1086C64.71 6.53373 64.3036 6.9055 63.9772 7.14061C63.7631 8.11602 63.7677 9.17287 63.2952 10.0259C63.3522 10.7257 62.7281 11.236 62.7994 11.8672C61.8927 13.3124 62.1876 15.4105 62.126 17.0581C62.5254 18.0441 63.5768 18.7393 64.0306 19.6982ZM67.1177 21.8128C67.2551 22.0861 67.6911 22.0709 67.5834 22.4551C67.4487 22.7031 67.2026 22.6906 66.9584 22.6768C66.589 22.4183 66.6283 21.9651 66.3813 21.6508C65.9704 21.0485 65.6134 20.4325 64.9994 19.9273C65.0245 19.5426 65.3363 19.2813 65.6906 19.17C66.9305 19.5762 66.2973 21.0743 67.1177 21.8128ZM68.7608 17.5504C68.5832 17.4685 68.6503 17.2762 68.5951 17.1533C68.7165 16.7958 69.1397 17.0139 69.2191 16.6284C69.4734 15.5848 67.4583 15.4151 68.7475 14.5036C69.3611 14.6794 70.15 14.5248 70.5212 15.1823C70.5088 15.5117 70.796 15.7845 70.6467 16.102C69.872 16.3518 69.7551 17.7114 68.7608 17.5504ZM74.457 24.9507L74.2803 25.0749C73.8023 24.5968 72.8883 24.4496 72.8445 23.6408C71.5749 22.8779 72.0305 21.1742 70.6664 20.6584C70.5025 20.3989 70.2418 20.1113 70.4308 19.7948C70.7284 19.3264 71.1763 18.9813 71.7351 19.0338C72.1309 19.2109 71.9287 19.6512 72.1469 19.8974C73.2946 20.7564 73.9534 21.9895 73.8776 23.3481C74.3026 23.7852 74.5638 24.3604 74.457 24.9507ZM76.5182 25.985C76.5461 26.3006 76.2749 26.5896 76.0037 26.6733C75.938 26.6756 75.8726 26.662 75.8132 26.6335C75.7538 26.6051 75.702 26.5627 75.6622 26.51C75.4152 26.0591 75.9421 25.137 75.1933 25.0712C75.0285 24.8251 75.2595 24.6047 75.4216 24.4252C76.1306 24.6005 76.1475 25.4651 76.5182 25.985ZM75.5805 23.2856C75.4038 23.4921 75.1052 23.5892 74.8459 23.4526C74.5318 23.194 74.4483 22.837 74.5008 22.4256C74.8948 22.2448 74.3625 21.891 74.7843 21.7249C75.2755 22.052 75.6864 22.6124 75.5805 23.2856ZM74.3109 19.366C74.4492 19.942 74.5072 20.5595 74.7272 21.0932L74.8902 21.1479C74.6861 21.176 74.7281 21.395 74.7286 21.5602C74.3611 21.6301 74.2766 21.0541 74.0306 20.8079C73.4439 20.4941 72.9381 19.9894 72.8258 19.3172C72.7705 19.0154 72.9184 18.6855 73.2179 18.6298C73.7621 18.5714 73.9826 19.0512 74.3109 19.366ZM69.5876 10.232C70.35 10.1603 70.9366 10.5421 71.5913 10.745C71.7127 10.3875 72.0944 10.5642 72.3268 10.6871C73.5973 11.766 73.9593 13.6584 73.4352 15.047C73.3677 15.3764 73.1517 15.762 72.9207 15.9138C72.8121 15.9552 72.4715 15.8195 72.3491 16.0394C72.4875 16.4646 73.06 16.5713 73.1572 17.0655C73.2266 17.3116 73.0636 17.5049 72.8737 17.5877C72.072 18.0036 71.9561 16.3845 71.1553 16.9642C71.0466 16.9785 70.9366 16.9518 70.8681 16.8566C70.854 16.6086 71.0982 16.4296 71.2749 16.3325H71.3836C71.405 14.9596 70.3386 13.8664 69.5442 12.8261C69.5538 11.9611 69.2369 11.0294 69.5876 10.232ZM68.4782 5.57028C68.9274 5.58225 69.0247 6.13069 69.2306 6.43159C68.7065 8.16341 68.4289 10.0857 68.1641 11.8438C68.0554 11.8852 68.0002 11.8033 67.9322 11.7347C67.6916 9.58145 68.0504 7.52111 68.4782 5.57028ZM64.4068 15.2085C65.2103 15.3424 65.881 15.9713 66.4137 16.6408C66.3069 16.9159 66.6338 17.1064 66.8114 17.1612C67.3962 17.0622 67.8199 17.4989 68.2435 17.6627C68.3408 18.0464 67.9048 18.1301 67.6738 18.2415C66.9383 18.1347 66.1882 18.0151 65.4527 17.9079C64.9757 17.6903 64.4013 17.3631 64.1822 16.8842C64.2206 16.3348 63.6179 15.4592 64.4068 15.2085Z" fill="#9E9E9E"/>
<path fill-rule="evenodd" clip-rule="evenodd" d="M74.4765 3.82802L74.4755 3.65088C74.4619 3.70916 74.4622 3.76989 74.4765 3.82802ZM10.627 24.0747L13.5803 24.0614L13.5662 20.6718C13.6611 20.5334 13.7958 20.2596 14.0277 20.3268C14.7139 21.5309 15.3047 22.7915 15.8685 24.0517L19.1364 24.037C18.2703 22.106 17.2815 20.2297 16.5373 18.2292L19.103 16.2691L17.7275 16.2756L13.736 19.1747L13.5584 18.9966L13.5465 16.2935L10.5781 16.2512C10.6571 18.8176 10.5475 21.4398 10.627 24.0747ZM21.3008 23.9887C21.3008 23.9887 21.5177 23.3022 21.7605 23.1062L24.8924 23.0938C25.1928 23.3805 25.1663 23.7973 25.4667 24.0435L28.505 24.0678L25.217 16.2434L24.0049 16.2489L20.4973 24.032C20.9187 24.251 21.3008 23.9887 21.3008 23.9887ZM23.3397 19.7641H23.4488C23.8063 20.5996 24.3076 21.4292 24.5294 22.3208L22.2614 22.2946C22.4476 21.4563 22.9891 20.6033 23.3397 19.7641ZM31.5866 18.8186C32.3696 20.3392 33.3192 22.4796 34.0483 24.0416C34.4162 24.0398 34.6335 24.0255 34.9609 24.0927C35.7447 22.5794 37.5682 19.1816 37.5682 19.1816L37.5736 24.0807L40.6123 24.1033L40.5786 16.2862L37.7325 16.2438C36.9071 17.5648 36.4779 19.09 35.6256 20.3424C34.8979 19.0008 34.3199 17.6034 33.6063 16.2618L30.8146 16.2733L30.7931 24.0554L31.5286 24.0517L31.5866 18.8186ZM44.1076 22.901C44.8335 23.0809 47.0975 23.0441 47.0975 23.0441C47.0975 23.0441 47.381 23.3713 47.4755 24.0379L50.4982 24.0255L47.2828 16.2576L46.0168 16.2622L42.7362 24.0039C43.5419 24.453 43.7278 23.2328 44.1076 22.901ZM45.5096 19.6688L46.6108 22.2578L44.3217 22.1994L45.5096 19.6688ZM51.7902 17.0476C52.5115 17.0996 53.3415 16.8903 53.956 17.2165C53.6323 18.0143 52.8448 18.7035 52.9991 19.6366C53.463 19.6895 54.019 19.4811 54.3751 19.7949C53.6323 21.212 52.8763 22.6839 52.2691 24.0734L55.4694 24.0591L57.5097 20.139L57.575 19.494C57.3262 18.6985 56.4168 19.2925 55.9657 18.8696C56.2885 17.9766 56.8975 17.2045 57.2755 16.3382L51.8961 16.2383C51.5149 16.3349 51.8984 16.8139 51.7902 17.0476Z" fill="#9E9E9E"/>
<path fill-rule="evenodd" clip-rule="evenodd" d="M7.32214 26.1558H59.9301C60.1558 26.1555 60.3721 26.0649 60.5317 25.9041C60.6913 25.7433 60.7811 25.5252 60.7815 25.2977V14.8889C60.7814 14.6613 60.6916 14.4431 60.532 14.2822C60.3723 14.1213 60.1558 14.0309 59.9301 14.0308H7.32214C7.0964 14.031 6.87997 14.1215 6.72035 14.2824C6.56073 14.4432 6.47094 14.6613 6.4707 14.8889V25.2977C6.4707 25.7707 6.85282 26.1558 7.32214 26.1558ZM7.01535 14.8889C7.01535 14.7182 7.15277 14.5797 7.32214 14.5797H59.9301C60.0994 14.5797 60.2369 14.7186 60.2369 14.8889V25.2977C60.2369 25.3797 60.2045 25.4584 60.147 25.5164C60.0895 25.5744 60.0114 25.6069 59.9301 25.6069H7.32214C7.24078 25.6069 7.16274 25.5744 7.10521 25.5164C7.04767 25.4584 7.01535 25.3797 7.01535 25.2977V14.8889ZM6.64601 29.8008H81.0905V28.5599H6.64601V29.8008Z" fill="#9E9E9E"/>
</svg>
