<svg width="38" height="38" viewBox="0 0 38 38" fill="none" xmlns="http://www.w3.org/2000/svg">
<path fill-rule="evenodd" clip-rule="evenodd" d="M9.41038 30.7496H11.5259V34.7902H9.41038L9.40939 33.9963C9.40939 33.6247 9.15449 33.4353 8.89505 33.4353H7.15825C6.89901 33.4353 6.6441 33.6247 6.6441 33.9963L6.64312 34.7902H4.77462V30.7496H6.64312L6.6441 31.4227C6.6441 31.7943 6.89901 31.9833 7.15825 31.9833H8.89505C9.15449 31.9833 9.40939 31.7943 9.40939 31.4227L9.41038 30.7496ZM13.3224 34.7902H15.5387V30.7496H13.3224V34.7902ZM22.4282 31.92C22.4282 32.1237 22.3438 32.187 22.1825 32.187C21.9361 32.187 19.6335 30.7496 19.4018 30.7496H17.3311V34.7902H19.4017V33.1157C19.4017 32.9582 19.4937 32.8458 19.6619 32.8458C19.9387 32.8458 20.4554 33.0309 22.0772 34.185C22.442 34.444 22.428 34.6467 22.428 34.7872V34.7904H24.4871V30.7498H22.428V31.92H22.4282ZM33.4278 32.339V33.3182C33.4278 34.3809 32.9734 34.8125 31.8942 34.9911C31.2581 35.0962 30.3406 35.1486 29.7568 35.1486C29.1731 35.1486 28.2556 35.0962 27.6198 34.9911C26.5401 34.8125 26.0863 34.3807 26.0863 33.3182V32.339C26.0863 31.079 27.0339 30.5858 28.0331 30.5858H31.481C32.4803 30.5858 33.4278 31.079 33.4278 32.339ZM31.3771 32.3267C31.3773 32.2416 31.3605 32.1572 31.3277 32.0786C31.295 31.9999 31.247 31.9285 31.1865 31.8686C31.126 31.8081 31.0542 31.7602 30.9752 31.7276C30.8962 31.6949 30.8115 31.6782 30.726 31.6783H28.7573C28.6719 31.6781 28.5872 31.6948 28.5083 31.7275C28.4293 31.7601 28.3576 31.8081 28.2972 31.8686C28.2367 31.9285 28.1887 31.9999 28.156 32.0785C28.1232 32.1572 28.1065 32.2416 28.1066 32.3267V33.2178C28.1067 33.3031 28.1237 33.3875 28.1564 33.4663C28.1892 33.545 28.2372 33.6165 28.2976 33.6767C28.3581 33.7369 28.4298 33.7846 28.5087 33.817C28.5876 33.8495 28.6721 33.866 28.7573 33.8658H30.726C31.0848 33.8658 31.3771 33.5754 31.3771 33.2178V32.3267ZM36.3238 13.9925C36.325 22.6164 24.8031 25.2334 22.2602 25.1317C20.1506 25.0473 20.4798 24.0123 21.8533 23.5546C23.2264 23.0972 29.4864 21.0854 29.966 17.2477C30.1438 15.8233 27.5223 15.6374 19.0003 15.6201C10.495 15.6027 7.85672 15.8235 8.03473 17.2477C8.51438 21.0852 14.7742 23.097 16.1475 23.5546C17.5207 24.0123 17.8498 25.0473 15.7406 25.1317C13.1974 25.2334 1.67538 22.6162 1.67676 13.9925C1.67794 5.33486 13.1974 2.75173 15.7406 2.85345C17.8498 2.93783 17.5207 3.97242 16.1475 4.43038C14.7742 4.88814 8.51438 6.89976 8.03473 10.7375C7.85672 12.1616 10.4406 12.3659 19.0003 12.3651C27.5225 12.3643 30.1438 12.1616 29.966 10.7375C29.4862 6.89996 23.2262 4.88814 21.8533 4.43038C20.4798 3.97262 20.1506 2.93803 22.2602 2.85345C24.8029 2.75173 36.3226 5.33486 36.3238 13.9925ZM7.53873 12.1463C7.29644 12.0394 7.14208 12.0142 7.05396 12.0727C6.96584 12.1315 6.84834 12.205 6.64272 12.3225C6.43711 12.44 6.3344 12.5869 6.62794 12.6898C8.00575 13.1718 17.0058 13.1598 19.0478 13.1598C21.0894 13.1598 30.0896 13.1718 31.4674 12.6898C31.7612 12.5871 31.6585 12.44 31.4528 12.3225C31.2472 12.205 31.1293 12.1315 31.0416 12.0727C30.9535 12.014 30.7991 12.0392 30.5568 12.1463C29.4256 12.6458 30.079 12.8366 19.048 12.8366C8.0164 12.8368 8.66992 12.6458 7.53873 12.1463ZM35.6622 14.2494C35.7038 13.3254 35.3302 9.71315 31.5504 6.92874C27.7701 4.14433 24.1742 3.68342 23.3259 3.53576C22.478 3.3883 21.6114 3.46203 23.2153 3.88608C29.7371 5.61027 31.8452 8.40394 33.0623 10.9301C34.2794 13.4565 31.8822 13.4563 30.2962 13.5117C28.7554 13.5655 23.1211 13.5844 19.0476 13.5854C14.9739 13.5844 9.34 13.5655 7.79856 13.5117C6.21276 13.4563 3.81553 13.4565 5.03268 10.9301C6.24963 8.40394 8.35785 5.61027 14.8796 3.88608C16.484 3.46203 15.6171 3.3883 14.7689 3.53576C13.9206 3.68342 10.3249 4.14433 6.54455 6.92874C2.76478 9.71335 2.39159 13.3254 2.43279 14.2494C2.46295 14.925 2.65418 14.4707 2.67251 14.2125C2.69105 13.9542 2.90987 11.323 4.9828 9.12035C5.21779 8.87057 5.36486 8.94411 5.18842 9.25244C5.01218 9.56096 3.45516 11.6173 3.58744 14.3789C3.71972 17.1404 5.85673 22.3501 15.2944 24.338C15.5736 24.3966 16.2346 24.338 15.3092 24.0735C14.3838 23.8089 8.15144 22.4155 5.49714 17.9189C2.99977 13.6887 6.95105 14.1589 8.93409 14.1147C10.7271 14.0747 16.1948 14.107 18.7026 14.1135V14.1147L19.0476 14.1143L19.3924 14.1147V14.1135C21.9006 14.107 27.3681 14.0747 29.1613 14.1147C31.1443 14.1589 35.0956 13.6887 32.5986 17.9191C29.9441 22.4157 23.7119 23.8091 22.7864 24.0737C21.8612 24.3382 22.5218 24.3968 22.8009 24.3382C32.2386 22.3503 34.376 17.1406 34.5081 14.3791C34.6402 11.6175 33.0834 9.56116 32.9072 9.25263C32.7307 8.94431 32.878 8.87057 33.1128 9.12055C35.1859 11.323 35.4045 13.9544 35.4231 14.2127C35.4412 14.4707 35.6322 14.9252 35.6622 14.2494Z" fill="#9E9E9E"/>
</svg>
