<svg width="39" height="39" viewBox="0 0 39 39" fill="none" xmlns="http://www.w3.org/2000/svg">
<path fill-rule="evenodd" clip-rule="evenodd" d="M19.4992 35.7109C28.4529 35.7109 35.7104 28.4534 35.7104 19.5007C35.7104 10.5467 28.4531 3.28955 19.4992 3.28955C10.5466 3.28955 3.28906 10.5467 3.28906 19.5007C3.28906 28.4534 10.5466 35.7109 19.4992 35.7109Z" fill="#9E9E9E"/>
<path fill-rule="evenodd" clip-rule="evenodd" d="M16.2138 12.4775C16.4762 12.2165 16.6021 11.8408 16.6021 11.3299C16.6021 10.8191 16.4772 10.4448 16.2199 10.1872C15.8721 9.83898 15.3017 9.69775 14.2512 9.69775H11.0664V12.9799H14.2512C15.2754 12.9799 15.863 12.8298 16.2138 12.4775ZM15.9902 10.4168C16.1873 10.6135 16.2779 10.9038 16.2779 11.3299C16.2779 12.3337 15.7861 12.6556 14.251 12.6556H11.3907V10.0221H14.2512C15.1933 10.0221 15.7143 10.1407 15.9902 10.4168Z" fill="#DEDEDE"/>
<path fill-rule="evenodd" clip-rule="evenodd" d="M28.8133 28.5405C31.1783 26.1051 32.4801 22.9002 32.4801 19.5007C32.4801 16.0334 31.129 12.7741 28.6769 10.3225C26.2265 7.87048 22.9658 6.51953 19.4987 6.51953C17.6885 6.51953 15.9379 6.88534 14.2934 7.60684H8.59869V12.4514C7.23763 14.5515 6.51855 16.987 6.51855 19.5009C6.51855 22.9682 7.8697 26.2273 10.3201 28.6793C12.7721 31.1313 16.0324 32.4808 19.4987 32.4808C22.0946 32.4808 24.5915 31.7201 26.7334 30.2801L27.311 31.3116L27.3574 31.3948H30.5159L28.8133 28.5405ZM28.4489 10.5507C30.8388 12.9422 32.1556 16.1206 32.1556 19.5007C32.1556 22.7849 30.908 25.8856 28.6405 28.2516L27.5571 26.4353C29.029 26.0276 29.8375 24.827 29.8375 23.0297C29.8375 21.8453 29.5419 20.974 28.9357 20.3673C28.2434 19.6747 27.1437 19.338 25.5744 19.338H25.2515C25.2096 17.8624 24.618 16.4789 23.569 15.4307C22.4814 14.3434 21.0362 13.7443 19.4987 13.7443C19.0661 13.7443 18.6384 13.7936 18.2222 13.8869C18.797 13.2791 19.1026 12.401 19.1026 11.2973C19.1026 10.1131 18.8074 9.24307 18.2008 8.63629C17.5548 7.99066 16.5546 7.65479 15.1521 7.6121C16.5397 7.10264 17.9989 6.84407 19.4987 6.84407C22.8802 6.84366 26.0574 8.16061 28.4489 10.5507ZM24.7971 21.7534H24.9853C25.9135 21.7534 26.4319 21.8768 26.7192 22.1647C26.9175 22.3612 27.0132 22.6552 27.0132 23.0627C27.0132 24.0488 26.5203 24.3653 24.9853 24.3653H22.5759C22.935 24.1374 23.268 23.8709 23.569 23.5705C24.0915 23.0495 24.5085 22.4325 24.7971 21.7534ZM19.4987 24.932C18.0482 24.932 16.6845 24.3667 15.6581 23.3415C14.6329 22.3149 14.0676 20.9514 14.0676 19.5009C14.0657 18.4738 14.3567 17.4675 14.9065 16.5999L16.102 18.7329C16.0367 19.0163 16.0051 19.2613 16.0051 19.5009C16.0051 20.4344 16.3693 21.3109 17.0291 21.9707C17.3525 22.2965 17.7373 22.5547 18.1613 22.7305C18.5853 22.9063 19.0399 22.9961 19.4989 22.9947C20.4323 22.9947 21.3104 22.6315 21.9698 21.9707C22.2951 21.6471 22.553 21.2622 22.7286 20.8383C22.9041 20.4143 22.9939 19.9598 22.9925 19.5009C22.9925 18.5678 22.6293 17.6897 21.9698 17.0301C21.3102 16.3705 20.4321 16.0071 19.4989 16.0071C18.9097 16.0071 18.3548 16.1473 17.8477 16.4223L16.8525 14.7537C16.9639 14.6911 17.0776 14.6325 17.1932 14.5781C17.2602 14.5515 17.3245 14.5226 17.3874 14.4923C18.0562 14.2122 18.7741 14.0681 19.4991 14.0686C20.9508 14.0686 22.3143 14.6335 23.3397 15.6603C24.3659 16.6857 24.9314 18.0504 24.9314 19.5009C24.9312 22.4952 22.4942 24.932 19.4987 24.932ZM11.2273 14.7304H11.0657V19.3378H8.92262V7.93097H14.8383C16.3177 7.93097 17.3417 8.23628 17.9713 8.86553C18.5138 9.40797 18.7782 10.2039 18.7782 11.2971C18.7782 12.7316 18.221 13.7465 17.194 14.2222C17.1726 14.2325 17.1515 14.2426 17.1301 14.2515C16.9455 14.3308 16.7489 14.3952 16.5368 14.4407L16.3151 14.4872L19.2096 19.3382H16.812L14.2782 14.8138L14.2317 14.7304H11.2273ZM16.3503 19.1768L16.5763 19.58L16.6228 19.6624H19.3336V22.6653C18.5488 22.6265 17.8174 22.3009 17.2573 21.7421C16.9623 21.4483 16.7284 21.099 16.569 20.7143C16.4097 20.3297 16.328 19.9173 16.3288 19.5009C16.3288 19.3959 16.3367 19.2887 16.3503 19.1768ZM19.6576 19.6624H22.6644C22.5826 21.283 21.278 22.5858 19.6576 22.6667V19.6624ZM19.5871 19.338L18.0144 16.7005C18.4709 16.4561 18.969 16.3312 19.4989 16.3312C20.3461 16.3312 21.142 16.6604 21.7403 17.2593C22.2972 17.8125 22.6269 18.554 22.6646 19.338H19.5871ZM19.4987 32.1565C16.1182 32.1565 12.9398 30.8398 10.5497 28.4497C8.15964 26.0598 6.84289 22.8814 6.84289 19.5009C6.84289 17.2231 7.44805 15.012 8.59869 13.0671V19.6624H11.39V15.0547H14.0411L14.7286 16.2817C14.0844 17.2313 13.741 18.3529 13.7433 19.5005C13.7433 21.0384 14.3424 22.4834 15.4297 23.5705C16.4765 24.6174 17.8576 25.2102 19.3336 25.2521V31.3943H22.1171V26.7869H24.7759L26.5748 29.9944C24.4807 31.4095 22.0377 32.1565 19.4987 32.1565ZM25.013 26.5451L24.9664 26.4628H21.7931V31.0702H19.6576V25.2521C20.4798 25.2292 21.2721 25.0374 21.9946 24.6894H24.9853C26.0333 24.6894 26.6047 24.5455 26.9555 24.1953C27.2127 23.938 27.3377 23.5683 27.3377 23.0627C27.3377 22.5658 27.2105 22.1961 26.9489 21.9351C26.5039 21.4896 25.7064 21.4291 24.9853 21.4291H24.9248C25.1254 20.8609 25.2356 20.2647 25.2515 19.6624H25.5744C27.0529 19.6624 28.0783 19.9687 28.7059 20.5969C29.2497 21.1394 29.5132 21.9351 29.5132 23.0297C29.5132 24.7452 28.7172 25.8615 27.2718 26.1717L27.0512 26.2196L27.1674 26.4136L29.9447 31.0702H27.5484L25.013 26.5451Z" fill="#DEDEDE"/>
</svg>
