<svg width="38" height="38" viewBox="0 0 38 38" fill="none" xmlns="http://www.w3.org/2000/svg">
<path fill-rule="evenodd" clip-rule="evenodd" d="M9.32732 24.605V25.7515L9.3011 25.775C8.18052 26.0141 7.06977 26.2971 5.9714 26.6233C5.59204 25.9764 5.26163 25.302 4.98294 24.6058L3.53711 24.605C5.82926 30.9273 11.887 35.4431 18.9996 35.4431C26.1122 35.4431 32.1696 30.9275 34.4617 24.6066L32.9917 24.605C32.6884 25.3503 32.3272 26.0707 31.9115 26.7597C30.8429 26.4308 29.7622 26.1425 28.6717 25.8957V24.605H27.1585L27.15 25.5773C24.376 25.0504 21.5585 24.7858 18.7349 24.7871C16.0771 24.7864 13.4246 25.0209 10.8082 25.488L10.8098 24.605H9.32732ZM31.0626 28.0707C28.3088 31.7274 23.9301 34.0923 18.9996 34.0923C14.011 34.0923 9.58774 31.6717 6.84 27.9414C10.6967 26.7718 14.7049 26.178 18.7351 26.1793C23.0219 26.1793 27.1551 26.8366 31.0402 28.0557L31.0626 28.0707Z" fill="#9E9E9E"/>
<path fill-rule="evenodd" clip-rule="evenodd" d="M8.53511 19.1861V22.7658C9.13521 22.7658 9.32742 23.2699 9.32742 23.2699V24.6047H10.8103L10.8154 21.7817L14.9355 21.7675L15.3353 23.0534H16.7052L17.217 21.7817L20.2451 21.7756L20.7872 23.0534H22.1571L22.5691 21.7817H27.1834L27.1584 24.6047H28.6716V23.2699C28.6716 23.2699 28.8634 22.7658 29.4637 22.7658V19.1861H27.1836V20.1496L23.0638 20.1395L23.3599 19.1861H21.9661L21.6333 20.1496L20.9437 20.1326L20.5587 19.1861H19.1602L19.576 20.1661L17.9608 20.1734L18.3803 19.1861H16.9183L16.5213 20.1496H15.825L15.5157 19.1861H14.1304L14.4328 20.1496H10.8152V19.1861H8.53511ZM34.0902 19.1861C34.0668 21.1043 33.6741 22.9287 32.9918 24.6063L34.4618 24.6047C35.0917 22.8667 35.4229 21.0347 35.4414 19.1861H34.0902ZM3.53721 24.6049C2.92252 22.9119 2.57871 21.0876 2.55762 19.1855L3.90882 19.1863C3.93208 21.1004 4.31118 22.9275 4.98304 24.6057L3.53721 24.6049Z" fill="#9E9E9E"/>
<path fill-rule="evenodd" clip-rule="evenodd" d="M2.55763 19.1861C2.557 19.1241 2.55668 19.0621 2.55664 19C2.55664 9.91875 9.91825 2.55713 18.9995 2.55713C28.0808 2.55713 35.4424 9.91875 35.4424 19C35.4424 19.0621 35.442 19.1242 35.4412 19.1861H34.09C34.0908 19.1242 34.0912 19.0621 34.0912 19C34.0912 10.6649 27.3346 3.90793 18.9995 3.90793C10.6644 3.90793 3.90745 10.6649 3.90745 19C3.90745 19.0625 3.90784 19.125 3.90863 19.1873L2.55763 19.1861ZM10.8154 19.1861V15.3971H9.32742V18.6613C9.32742 18.6613 9.13541 19.1652 8.53511 19.1652V19.1859H10.8154V19.1861ZM15.5157 19.1861L15.3035 18.5249C17.3778 17.9234 17.7102 14.657 16.0623 13.7697C17.0409 13.4619 18.1313 9.3636 14.5209 9.3636H11.7313V18.6205H13.9529L14.1303 19.1861H15.5157ZM19.1602 19.1861L18.7704 18.2678L18.3803 19.1861H16.9183L18.1017 16.3144H19.3908L20.5587 19.1861H19.1602ZM23.3599 19.1861L24.2265 16.3984H22.8846L22.2192 18.4419L22.2135 14.854H23.3512C24.0177 14.8662 24.7458 14.6215 25.2887 14.1896C25.9428 13.6713 26.2675 12.7826 26.2675 11.9927C26.2675 10.6967 25.5463 9.3638 23.8925 9.3638H20.7907V18.6207L22.1654 18.6083L21.9659 19.1863H23.3599V19.1861ZM29.4639 19.1861V19.1654C28.8636 19.1654 28.6718 18.6615 28.6718 18.6615V15.3973H27.1836V19.1863H29.4639V19.1861ZM13.1237 13.1035V10.7213H13.9261C14.7159 10.7461 15.559 10.7779 15.559 11.5607C15.559 13.3504 13.9655 13.0426 13.4447 13.1035H13.1237ZM22.209 10.7213H22.9991C23.974 10.7213 24.8696 10.882 24.8696 11.9434C24.8696 13.0665 23.8874 13.4418 23.1345 13.4418H22.209V10.7213ZM13.5247 17.2295L13.2665 16.3984H14.6084L14.817 17.0391C15.2818 16.8569 15.6988 16.5366 15.6988 15.8263C15.6988 14.8266 14.8641 14.6247 13.7903 14.6247H13.1237V17.2632H13.494L13.5247 17.2295Z" fill="#9E9E9E"/>
</svg>
