<svg width="45" height="25" viewBox="0 0 45 25" fill="none" xmlns="http://www.w3.org/2000/svg">
<g clip-path="url(#clip0)">
<path d="M33.2784 17.9673H29.7789V24.696H33.3082V21.6601L37.4741 24.696H41.0014V17.9673H37.4715V21.0301L33.2784 17.9673ZM22.8251 0.248047C10.4313 0.248047 0.384766 10.1402 0.384766 22.3425C0.384766 23.1379 0.427549 23.9225 0.510566 24.6962H2.86063C2.76677 23.9151 2.71984 23.1291 2.72009 22.3425C2.72009 11.4101 11.7216 2.54739 22.8252 2.54739C33.9289 2.54739 42.9305 11.4101 42.9305 22.3425C42.9305 23.1391 42.8827 23.9244 42.7901 24.6962H45.14C45.2239 23.9144 45.2659 23.1287 45.2658 22.3425C45.2653 10.1402 35.2186 0.248047 22.8251 0.248047ZM24.7084 17.9673H20.9559L16.5084 24.696H20.151L20.6453 23.9431H25.0192L25.5139 24.696H29.1563L24.7084 17.9673ZM23.8557 22.1547H21.8089L22.8323 20.5978L23.8557 22.1547ZM7.89564 17.9673H4.5849V24.696H8.11494V22.0352L10.2236 24.1111L12.3318 22.0352V24.696H15.8617V17.9673H12.5509L10.2235 20.2591L7.89564 17.9673Z" fill="#9E9E9E"/>
</g>
<defs>
<clipPath id="clip0">
<rect width="45" height="25" fill="white"/>
</clipPath>
</defs>
</svg>
