<svg width="72" height="14" viewBox="0 0 72 14" fill="none" xmlns="http://www.w3.org/2000/svg">
<path fill-rule="evenodd" clip-rule="evenodd" d="M59.9316 3.38986C60.9567 3.44666 61.6964 4.18576 61.8105 5.15243C61.867 5.66398 61.867 6.46025 61.867 6.97142C61.867 7.59731 61.867 8.10885 61.8105 8.62002C61.6399 9.81425 60.7861 10.4966 59.9316 10.4966H58.4518C57.6545 10.4966 56.7435 9.81425 56.5729 8.62002C56.5157 8.10885 56.5157 7.59693 56.5157 7.02859C56.5157 6.45988 56.5157 5.66398 56.5729 5.15206C56.687 4.18539 57.4832 3.44629 58.5083 3.38949C58.7362 3.33269 58.9068 3.33269 59.1915 3.33269L59.9316 3.38986ZM59.3625 0.0922852C60.4441 0.0922852 61.4693 0.149082 62.3231 0.262676C64.7138 0.547033 66.6493 2.4232 67.0477 4.75448C67.105 5.15243 67.2183 6.06193 67.2183 6.97142C67.2183 7.93809 67.105 8.84796 67.0477 9.18874C66.6493 11.5772 64.7138 13.3962 62.3231 13.7377C61.4693 13.7941 60.4441 13.9081 59.3625 13.9081H59.0213C57.8824 13.9081 56.9145 13.7941 56.0042 13.7377C53.6127 13.3962 51.7349 11.5772 51.336 9.18874C51.2788 8.84796 51.1647 7.93809 51.1647 6.97142C51.1647 6.06193 51.2788 5.15243 51.336 4.75448C51.7345 2.4232 53.6127 0.547033 56.0042 0.262676C56.9145 0.149082 57.8824 0.0922852 58.964 0.0922852H59.3625ZM38.8117 6.97142C38.8117 6.23232 38.8689 5.49358 39.0395 4.75448C39.438 2.4232 41.3169 0.547033 43.7077 0.262676C44.5615 0.149082 45.5866 0.0922852 46.6683 0.0922852C47.8633 0.0922852 48.9449 0.149082 49.8559 0.262676C50.1972 0.319474 50.425 0.603832 50.425 0.944986V2.99154C50.425 3.38949 50.1403 3.67385 49.7983 3.67385C49.7983 3.67385 48.7167 3.61705 48.1476 3.61705C47.4652 3.61705 46.8954 3.61705 46.2694 3.67385C45.2443 3.73064 44.5046 4.46975 44.3905 5.43642C44.3333 5.94796 44.2764 6.45988 44.2764 6.97105V7.02822C44.2764 7.54014 44.3329 8.05131 44.3905 8.56323C44.5046 9.52989 45.1878 10.2686 46.2694 10.3822C46.8385 10.4394 47.5217 10.4962 48.1476 10.4962C48.7167 10.4962 49.7983 10.4398 49.7983 10.4398C50.1403 10.4398 50.425 10.7241 50.425 11.1221V13.169C50.425 13.5098 50.1972 13.7941 49.8559 13.8513C48.9449 13.8513 47.8633 13.9077 46.6683 13.9077C45.5866 13.9077 44.5615 13.7938 43.7077 13.7373C41.3169 13.3958 39.4384 11.5768 39.0395 9.18837C38.8689 8.5068 38.8117 7.76733 38.8117 7.02859V6.97142ZM37.2747 10.3262C37.6732 10.3262 37.9579 10.667 37.9579 11.0085V13.0554C37.9579 13.4534 37.6732 13.7377 37.2747 13.7377H29.1341C28.7827 13.7381 28.4345 13.6692 28.1097 13.5351C27.7849 13.4009 27.4898 13.2041 27.2413 12.9558C26.9928 12.7076 26.7957 12.4128 26.6614 12.0884C26.5271 11.764 26.4582 11.4163 26.4587 11.0653V2.99191C26.4583 2.6409 26.5272 2.29326 26.6615 1.96889C26.7958 1.64453 26.9929 1.34981 27.2414 1.1016C27.4899 0.853403 27.785 0.656595 28.1098 0.522449C28.4346 0.388304 28.7827 0.319457 29.1341 0.319847H37.2747C37.6732 0.319847 37.9579 0.604203 37.9579 0.945358V2.93511C37.9579 3.33307 37.6732 3.61742 37.2747 3.61742H32.2653C31.8669 3.61742 31.5821 3.84498 31.5821 4.24293V5.49358L35.8515 5.43679C36.1927 5.43679 36.5347 5.77757 36.5347 6.11872V7.82486C36.5347 8.22207 36.1927 8.50717 35.8515 8.50717H31.5821V9.64386C31.5821 10.0418 31.8669 10.3262 32.2653 10.3262H37.2747ZM16.5536 13.7373C15.3583 13.7373 14.3331 12.9411 13.9915 11.8608L11.2023 1.11538V0.944986C11.2023 0.603832 11.487 0.319476 11.8855 0.319476H16.0411C16.3827 0.319476 16.6674 0.546664 16.7243 0.831021L18.8875 9.81425C18.8875 9.92822 19.0013 10.0418 19.1723 10.0418C19.286 10.0418 19.3997 9.92784 19.3997 9.81425L21.6199 0.831021C21.6768 0.546664 21.9615 0.319476 22.2462 0.319476H24.5801C24.9786 0.319476 25.2633 0.603832 25.2633 0.944986V1.11538L22.5878 11.6332C22.3031 12.8275 21.3352 13.7373 19.9692 13.7373H16.5536ZM5.11092 0.319476H9.15276C9.55122 0.319476 9.83594 0.603832 9.83594 0.944986V13.055C9.83594 13.453 9.55122 13.7373 9.15276 13.7373H5.11092C4.76933 13.7373 4.42773 13.453 4.42773 13.055V0.944986C4.42811 0.603832 4.7697 0.319476 5.11092 0.319476Z" fill="#9E9E9E"/>
</svg>
