<svg width="61" height="32" viewBox="0 0 61 32" fill="none" xmlns="http://www.w3.org/2000/svg">
<g clip-path="url(#clip0)">
<path fill-rule="evenodd" clip-rule="evenodd" d="M55.7391 14.9659H37.6884L31.5266 -0.150879L30.393 2.67403L25.4669 14.9659H6.15514L0.896484 27.1731L30.393 31.2111L31.2538 31.3298L60.1025 27.1731L55.7391 14.9659ZM31.1686 27.8179L30.393 27.7924L2.60949 26.8168L7.04978 16.688H25.3647L30.393 3.8956L31.5266 1.02816L37.671 16.688H54.7419L58.1847 26.8168L31.1686 27.8179Z" fill="#9E9E9E"/>
<path fill-rule="evenodd" clip-rule="evenodd" d="M56.1821 22.7448L54.3833 21.9221L55.3723 20.5732L54.4691 17.4091H40.1336L41.591 20.4718H49.6706L48.5623 21.9221L49.9519 23.2028H38.8725L31.5265 2.56348L30.3929 5.49864L24.2909 21.3957H21.5465L20.7456 17.4088H15.8452L13.5014 20.6665L11.6862 17.4088H7.44182L3.58984 26.1887H7.69753L9.49566 23.2028L10.8508 26.1887H16.0325L17.6604 23.0161L19.2883 26.1887H27.0096L28.5524 24.2887L30.3933 25.4677L31.5268 26.1887L34.2285 24.2887L35.7025 26.1887H57.3666L56.1821 22.7448ZM31.5265 22.1085L30.3929 21.3195L29.1828 20.4715L30.3929 17.6211L31.5265 14.9656L33.8016 20.4715L31.5265 22.1085Z" fill="#9E9E9E"/>
</g>
<defs>
<clipPath id="clip0">
<rect width="61" height="32" fill="white"/>
</clipPath>
</defs>
</svg>
