<svg width="81" height="14" viewBox="0 0 81 14" fill="none" xmlns="http://www.w3.org/2000/svg">
<g clip-path="url(#clip0)">
<path d="M35.271 13.9058C35.5574 13.9058 37.2991 13.8965 38.7052 13.798C40.4044 13.6789 41.2801 13.0934 41.9219 12.2545C42.7178 11.2162 42.7126 9.26931 42.7116 7.7543C42.7106 6.0624 42.7339 1.1605 42.7266 0.723394C42.721 0.284663 42.5558 0.056689 42.0565 0.0608311C41.5567 0.0639985 40.1475 0.0608311 39.6638 0.0650543L38.802 0.0608311C38.3023 0.0567703 38.1375 0.284663 38.1304 0.723394V1.19331C38.1375 1.7122 38.1236 6.65779 38.1215 7.81732V8.33093C38.108 9.39893 37.9786 10.4377 36.4756 10.5985C35.8272 10.6672 35.53 10.6979 34.7266 10.6979C33.9224 10.6979 33.6261 10.6672 32.9689 10.5985C31.4664 10.4397 31.3753 9.39893 31.3614 8.33093V7.81732C31.3593 6.65779 31.3453 1.7122 31.3515 1.19331V0.723394C31.3453 0.284663 31.1796 0.056689 30.6808 0.0608311L29.818 0.0650543C29.3343 0.0608311 27.9261 0.0639985 27.4258 0.0608311C26.9271 0.0567703 26.7619 0.284663 26.7562 0.723394C26.7489 1.1605 26.7541 6.0624 26.7521 7.7543C26.7511 9.26931 26.7469 11.2162 27.5419 12.2545C28.182 13.0935 29.0458 13.6789 30.7394 13.798C32.1455 13.8974 33.8354 13.9058 34.2098 13.9058H35.271H35.271ZM4.72892 13.2697C4.71906 13.7459 4.57924 13.9338 4.09398 13.9453C3.60711 13.9593 1.22529 13.9515 0.791355 13.9479C0.359362 13.9431 0.0932154 13.8114 0.0921648 13.3457C0.0890935 12.8804 0.0890935 1.1817 0.0859415 0.737282C0.0848908 0.294978 0.292603 0.0852772 0.748843 0.0992464C1.20411 0.110211 3.54342 0.0868203 4.16438 0.0977033C4.63411 0.0940486 4.74444 0.366286 4.74597 0.852366C4.75737 1.506 4.74031 12.7961 4.72892 13.2697ZM69.6283 8.53714C69.6372 9.63519 69.9013 10.37 71.1536 10.5658C72.1562 10.6698 73.5127 10.6912 74.5536 10.585C75.5065 10.4798 76.2404 10.0916 76.2834 9.00755C76.3316 8.09216 76.3357 7.93444 76.3388 6.96902C76.344 4.62609 76.3186 1.22296 76.3264 0.888913L76.3304 0.746785C76.3228 0.227974 76.5583 0.00885259 76.9955 0.00885259L77.257 0C77.7548 0.00422325 79.7574 0.0089338 80.2422 0.0089338C80.6793 0.0089338 80.915 0.227974 80.9077 0.746866L80.9015 0.90873C80.9108 1.3979 80.8958 6.58088 80.8906 8.11035C80.8632 8.8785 80.8088 10.6678 80.2199 11.8023C79.7072 12.787 78.7895 13.5441 77.2291 13.6997C74.2299 14 71.4954 13.8752 69.3896 13.7866C67.8246 13.7054 66.8162 13.3531 65.9797 12.419C65.0331 11.348 64.9834 9.51759 64.9973 7.41822C64.9792 2.78588 64.9652 1.45101 64.9724 1.00911V0.746785C64.9652 0.227974 65.2009 0.00885259 65.6379 0.00885259L65.8979 0C66.4003 0.00422325 68.4781 0.0089338 68.9639 0.0089338C69.3995 0.0089338 69.6372 0.227974 69.6283 0.746866C69.6211 1.26779 69.6263 7.20016 69.6283 8.50693V8.53714ZM46.2996 0.0498669C46.7678 0.0358976 55.1412 0.045806 57.7592 0.0603438C60.0773 0.086333 60.9344 0.417858 61.5637 1.26413C62.2897 2.24198 62.3649 3.46705 61.778 4.4751C61.357 5.19793 60.5781 5.82874 59.4097 6.40172C58.4822 6.88057 56.858 7.60705 55.2707 8.30909C53.1447 9.25266 51.2196 10.0697 50.896 10.2399C50.4578 10.471 50.6236 10.817 50.9716 10.8119C51.88 10.8009 60.6511 10.7291 61.1193 10.728C61.5896 10.7275 61.7423 10.8978 61.7423 11.4051C61.7413 11.936 61.7464 12.8436 61.7475 13.2552C61.7367 13.7502 61.5797 13.8855 61.113 13.8902C60.5802 13.8959 51.2368 13.8985 50.5722 13.9016C49.0952 13.898 47.5742 13.9037 46.6668 13.4619C45.5337 12.9086 45.1504 11.7996 45.1493 11.0221C45.2032 9.12726 46.2541 8.52041 48.1475 7.63881C50.2528 6.67859 56.4676 3.97709 56.8378 3.80426C57.2967 3.58936 57.1543 3.16671 56.7285 3.18084C56.4018 3.18758 46.8822 3.23647 46.412 3.23607C45.9432 3.23444 45.645 3.15842 45.645 2.7015C45.646 2.24669 45.6409 1.10592 45.6409 0.636493C45.6409 0.16495 45.8294 0.0650543 46.2996 0.0499481V0.0498669ZM21.7145 7.17547C19.6087 6.29654 13.4644 4.34345 12.6492 3.93802C12.2567 3.76828 12.2831 3.26457 12.8144 3.26457C13.7218 3.27806 22.728 3.29576 23.1983 3.29893C23.668 3.29998 23.8659 3.11619 23.8659 2.60778C23.868 2.07743 23.8643 1.1043 23.8581 0.67702C23.8519 0.242512 23.696 0.0779677 23.3075 0.0769119C22.9192 0.0769119 12.5176 0.0894192 12.5176 0.0894192C9.61484 0.0826783 8.87015 0.511988 8.04771 1.50445C6.97552 2.79929 7.31627 4.55218 7.93157 5.45612C8.62453 6.46726 9.76865 6.91428 11.589 7.55442C13.7942 8.27522 18.9877 10.1108 18.9877 10.1108C19.4636 10.3174 19.4274 10.8186 18.8396 10.8186C18.8396 10.8186 8.93271 10.729 8.46346 10.728C7.99323 10.7275 7.76378 10.958 7.76176 11.4145C7.76176 11.8709 7.75756 12.7072 7.75554 13.1817C7.75554 13.6512 7.89116 13.9192 8.36146 13.9359C8.82861 13.9521 17.347 13.9198 19.9665 13.9146C21.9594 13.9094 23.8844 13.2906 24.2796 11.0788C24.5163 9.17299 23.7135 7.99161 21.7145 7.17555" fill="#9E9E9E"/>
</g>
<defs>
<clipPath id="clip0">
<rect width="81" height="14" fill="white"/>
</clipPath>
</defs>
</svg>
