<svg width="44" height="44" viewBox="0 0 44 44" fill="none" xmlns="http://www.w3.org/2000/svg">
<path fill-rule="evenodd" clip-rule="evenodd" d="M24.5926 22.0005L34.2965 12.2966C35.0133 11.5798 35.0133 10.4211 34.2965 9.70431C33.5796 8.98748 32.421 8.98748 31.7041 9.70431L22.0003 19.4081L12.2965 9.70431C11.5796 8.98748 10.421 8.98748 9.70413 9.70431C8.9873 10.4211 8.9873 11.5798 9.70413 12.2966L19.408 22.0005L9.70413 31.7043C8.9873 32.4211 8.9873 33.5798 9.70413 34.2966C10.0616 34.6541 10.531 34.8338 11.0003 34.8338C11.4696 34.8338 11.939 34.6541 12.2965 34.2966L22.0003 24.5928L31.7041 34.2966C32.0616 34.6541 32.531 34.8338 33.0003 34.8338C33.4696 34.8338 33.939 34.6541 34.2965 34.2966C35.0133 33.5798 35.0133 32.4211 34.2965 31.7043L24.5926 22.0005Z" fill="white"/>
</svg>
