<svg width="20" height="20" viewBox="0 0 20 20" fill="none" xmlns="http://www.w3.org/2000/svg">
<g clip-path="url(#clip0)">
<path d="M16.2764 3.05455C16.6 3.05455 16.8623 2.79221 16.8623 2.46861V1.21338C16.8623 0.889785 16.6 0.627441 16.2764 0.627441C15.9528 0.627441 15.6904 0.889785 15.6904 1.21338V2.46857C15.6904 2.79221 15.9528 3.05455 16.2764 3.05455Z" fill="#502F5A" stroke="#502F5A" stroke-width="0.5"/>
<path d="M3.72363 13.1797C3.40004 13.1797 3.1377 13.442 3.1377 13.7656V15.0208C3.1377 15.3444 3.40004 15.6068 3.72363 15.6068C4.04723 15.6068 4.30957 15.3444 4.30957 15.0208V13.7656C4.30957 13.442 4.04723 13.1797 3.72363 13.1797Z" fill="#502F5A" stroke="#502F5A" stroke-width="0.5"/>
<path d="M16.2764 6.82015C16.6 6.82015 16.8623 6.5578 16.8623 6.23421V4.97901C16.8623 4.65541 16.6 4.39307 16.2764 4.39307C15.9528 4.39307 15.6904 4.65541 15.6904 4.97901V6.23421C15.6904 6.5578 15.9528 6.82015 16.2764 6.82015Z" fill="#502F5A" stroke="#502F5A" stroke-width="0.5"/>
<path d="M3.72363 16.9453C3.40004 16.9453 3.1377 17.2077 3.1377 17.5312V18.7864C3.1377 19.11 3.40004 19.3724 3.72363 19.3724C4.04723 19.3724 4.30957 19.11 4.30957 18.7864V17.5312C4.30957 17.2077 4.04723 16.9453 3.72363 16.9453Z" fill="#502F5A" stroke="#502F5A" stroke-width="0.5"/>
<path d="M11.2549 9.41406C10.9313 9.41406 10.6689 9.67641 10.6689 10C10.6689 10.3236 10.9313 10.5859 11.2549 10.5859H12.5101C12.8337 10.5859 13.0961 10.3236 13.0961 10C13.0961 9.67641 12.8337 9.41406 12.5101 9.41406H11.2549Z" fill="#502F5A" stroke="#502F5A" stroke-width="0.5"/>
<path d="M7.48926 9.41406C7.16566 9.41406 6.90332 9.67641 6.90332 10C6.90332 10.3236 7.16566 10.5859 7.48926 10.5859H8.74449C9.06809 10.5859 9.33043 10.3236 9.33043 10C9.33043 9.67641 9.06809 9.41406 8.74449 9.41406H7.48926Z" fill="#502F5A" stroke="#502F5A" stroke-width="0.5"/>
<path d="M15.0205 10.5858C16.0357 10.5858 16.8616 9.75982 16.8616 8.74463C16.8616 8.42104 16.5993 8.15869 16.2757 8.15869C15.9521 8.15869 15.6898 8.42104 15.6898 8.74463C15.6898 9.11365 15.3895 9.41389 15.0205 9.41389C14.6969 9.41389 14.4346 9.67623 14.4346 9.99982C14.4346 10.3234 14.6969 10.5858 15.0205 10.5858Z" fill="#502F5A" stroke="#502F5A" stroke-width="0.5"/>
<path d="M4.9782 9.41406C3.96336 9.41406 3.1377 10.2397 3.1377 11.2552C3.1377 11.5788 3.40004 11.8408 3.72363 11.8408C4.04723 11.8408 4.30957 11.5782 4.30957 11.2546C4.30957 10.8859 4.60953 10.5859 4.9782 10.5859H4.97883C5.30242 10.5859 5.56445 10.3236 5.56445 10C5.56445 9.67641 5.3018 9.41406 4.9782 9.41406Z" fill="#502F5A" stroke="#502F5A" stroke-width="0.5"/>
<path d="M19.4143 0C19.0907 0 18.8284 0.262344 18.8284 0.585938V8.7448C18.8284 10.8472 17.1273 12.5521 15.0211 12.5521H6.8623C6.53871 12.5521 6.27637 12.8144 6.27637 13.138V19.4141C6.27637 19.7377 6.53871 20 6.8623 20C7.1859 20 7.44824 19.7377 7.44824 19.4141V13.7239H15.0211C17.7707 13.7239 20.0003 11.4993 20.0003 8.7448V0.585938C20.0003 0.262344 19.7379 0 19.4143 0V0Z" fill="#502F5A" stroke="#502F5A" stroke-width="0.5"/>
<path d="M13.138 7.44793C13.4616 7.44793 13.7239 7.18559 13.7239 6.86199V0.585938C13.7239 0.262344 13.4616 0 13.138 0C12.8144 0 12.552 0.262344 12.552 0.585938V6.27605H4.97914C2.22871 6.27605 0 8.50113 0 11.2552V19.4141C0 19.7377 0.262344 20 0.585938 20C0.909531 20 1.17188 19.7377 1.17188 19.4141V11.2552C1.17188 9.15211 2.87324 7.44793 4.97914 7.44793H13.138Z" fill="#502F5A" stroke="#502F5A" stroke-width="0.5"/>
</g>
<defs>
<clipPath id="clip0">
<rect width="20" height="20" fill="white"/>
</clipPath>
</defs>
</svg>
