<svg width="40" height="41" viewBox="0 0 40 41" fill="none" xmlns="http://www.w3.org/2000/svg">
<path d="M35.6898 11.3089H35.096C34.6924 8.96029 32.6314 7.1665 30.1557 7.1665H9.84362C7.3679 7.1665 5.30697 8.96029 4.90332 11.3089H4.30957C3.77025 11.3089 3.33301 11.7436 3.33301 12.2798V32.8623C3.33301 33.3985 3.77025 33.8332 4.30957 33.8332H35.6898C36.2291 33.8332 36.6663 33.3985 36.6663 32.8623V12.2798C36.6663 11.7436 36.2291 11.3089 35.6898 11.3089ZM24.8174 15.1924V13.2506H29.3747V15.1924H24.8174ZM18.307 15.1924V13.2506H22.8643V15.1924H18.307ZM11.7966 15.1924V13.2506H16.3539V15.1924H11.7966ZM5.28613 15.1924V13.2506H9.84349V15.1924H5.28613ZM31.3279 13.2506H34.7132V15.1924H31.3279V13.2506ZM9.84362 9.10825H30.1557C31.5495 9.10825 32.7287 10.0394 33.0967 11.3089H6.9026C7.27064 10.0394 8.44981 9.10825 9.84362 9.10825ZM17.0049 29.9497H9.19238V26.0662H17.0049V29.9497ZM9.19238 29.9497H17.0049V31.8914H9.19238V29.9497ZM17.0049 26.0662H9.19238V22.1827H17.0049V26.0662ZM30.807 29.9497H22.9945V26.0662H30.807V29.9497ZM22.9945 29.9497H30.807V31.8914H22.9945V29.9497ZM30.807 26.0662H22.9945V22.1827H30.807V26.0662ZM32.7601 31.8914V21.2118C32.7601 20.6756 32.3229 20.2409 31.7835 20.2409H22.0179C21.4786 20.2409 21.0413 20.6756 21.0413 21.2118V31.8914H18.958V21.2118C18.958 20.6756 18.5208 20.2409 17.9814 20.2409H8.21582C7.6765 20.2409 7.23926 20.6756 7.23926 21.2118V31.8914H5.28613V17.1341H34.7132V31.8914H32.7601Z" fill="white"/>
</svg>
