<svg width="40" height="41" viewBox="0 0 40 41" fill="none" xmlns="http://www.w3.org/2000/svg">
<path d="M38.1697 19.8177L34.1711 13.2513C33.9747 12.9286 33.6306 12.7328 33.2608 12.7328H25.9432V11.0412C25.9432 8.90476 24.2544 7.1665 22.1781 7.1665H5.00071C3.16251 7.1665 1.66699 8.70555 1.66699 10.5973V27.757C1.66699 28.3673 2.14787 28.8625 2.74121 28.8625H6.20752C6.20053 28.9676 6.19578 29.0738 6.19578 29.1806C6.19578 31.746 8.22392 33.8332 10.7167 33.8332C13.2095 33.8332 15.2374 31.746 15.2374 29.1806C15.2374 29.0735 15.2326 28.9676 15.2256 28.8625H27.361C27.3542 28.9676 27.3492 29.0738 27.3492 29.1806C27.3492 31.746 29.3774 33.8332 31.8702 33.8332C34.363 33.8332 36.3908 31.746 36.3908 29.1806C36.3908 29.0735 36.3861 28.9676 36.3791 28.8625H37.2594C37.8528 28.8625 38.3337 28.3673 38.3337 27.757V20.4047C38.3337 20.1971 38.2769 19.9936 38.1697 19.8177ZM35.5578 19.6922H30.9288V14.9438H32.6663L35.5578 19.6922ZM3.81543 10.5973C3.81543 9.92475 4.34722 9.37747 5.00071 9.37747H22.1781C23.0697 9.37747 23.7948 10.124 23.7948 11.0412V21.6014H3.81543V10.5973ZM3.81543 26.6515V23.8124H23.7948V26.6515H14.5078C13.701 25.3748 12.3034 24.5284 10.7167 24.5284C9.12973 24.5284 7.73213 25.3751 6.92535 26.6515H3.81543ZM10.7167 31.6222C9.40864 31.6222 8.34421 30.5271 8.34421 29.1809C8.34421 27.8348 9.40864 26.7393 10.7167 26.7393C12.0248 26.7393 13.089 27.8348 13.089 29.1809C13.089 30.5271 12.0248 31.6222 10.7167 31.6222ZM31.8702 31.6222C30.5621 31.6222 29.4976 30.5271 29.4976 29.1809C29.4976 27.8348 30.5621 26.7393 31.8702 26.7393C33.1782 26.7393 34.2424 27.8348 34.2424 29.1809C34.2424 30.5271 33.1782 31.6222 31.8702 31.6222ZM31.8702 24.5284C30.2832 24.5284 28.8856 25.3751 28.0788 26.6515H25.9432V14.9438H28.7804V20.7974C28.7804 21.408 29.2615 21.9029 29.8546 21.9029H36.1852V26.6513H35.6613C34.8545 25.3748 33.4569 24.5284 31.8702 24.5284Z" fill="white"/>
</svg>
