<svg width="40" height="40" viewBox="0 0 40 40" fill="none" xmlns="http://www.w3.org/2000/svg">
<path d="M7.33446 22.0822C7.03459 22.0068 6.71731 22.0946 6.49872 22.3132L5.25552 23.5564C4.91222 23.8997 4.91222 24.4562 5.25552 24.7995L8.06003 27.604C7.51666 28.339 6.96608 29.0971 6.4049 29.8828C6.15513 30.2324 6.19481 30.7115 6.49867 31.0153L8.98496 33.5016C9.28887 33.8055 9.76784 33.845 10.1175 33.5953C10.9031 33.0341 11.6612 32.4836 12.3962 31.9402L15.2008 34.7448C15.5439 35.0879 16.1007 35.088 16.444 34.7448L17.6871 33.5016C17.9057 33.283 17.9934 32.9657 17.9181 32.6659L16.8687 28.4888C18.3351 27.3031 19.7291 26.1159 21.0961 24.889L30.5352 34.3282C30.8785 34.6715 31.4351 34.6715 31.7784 34.3282L33.6431 32.4635C33.9284 32.1782 33.9829 31.7354 33.7752 31.3894L30.3978 25.7634L33.0215 23.1397C33.3646 22.7967 33.3648 22.2398 33.0215 21.8966L30.5352 19.4103C30.1919 19.067 29.6353 19.067 29.292 19.4103L27.5997 21.1025L26.6671 19.5489L30.5352 15.6808C32.2726 13.9433 33.6411 12.026 34.3886 10.282C35.2442 8.2856 35.2002 6.67097 34.2647 5.73549C33.3294 4.80007 31.7146 4.75611 29.7183 5.61166C27.9743 6.35908 26.057 7.72758 24.3196 9.46504L20.4515 13.3331L18.8978 12.4004L20.5901 10.7081C20.9334 10.3648 20.9334 9.80828 20.5901 9.46499L18.1038 6.97869C17.7605 6.6354 17.2039 6.6354 16.8606 6.97869L14.2368 9.60247L8.61089 6.22506C8.26514 6.01743 7.82222 6.07181 7.53688 6.35715L5.67213 8.2219C5.32883 8.56519 5.32883 9.12175 5.67213 9.46504L15.1113 18.9042C13.8844 20.2713 12.6972 21.6652 11.5115 23.1316L7.33446 22.0822ZM7.12027 24.178L7.38943 23.9088L10.3102 24.6426C9.91681 25.1456 9.52206 25.6584 9.12467 26.1824L7.12027 24.178ZM16.0916 32.6109L15.8224 32.8801L13.818 30.8756C14.342 30.4782 14.8548 30.0834 15.3578 29.6901L16.0916 32.6109ZM31.1568 32.4635L22.3961 23.7027C23.3927 22.7785 24.3832 21.8257 25.3854 20.8294L31.9147 31.7057L31.1568 32.4635ZM29.9137 21.2751L31.1569 22.5182L29.4653 24.2099L28.5326 22.6562L29.9137 21.2751ZM25.5626 10.7082C27.1457 9.12509 28.8675 7.88903 30.4108 7.22758C31.6269 6.70637 32.6516 6.60873 33.0216 6.97869C33.3916 7.34865 33.2939 8.37345 32.7728 9.58946C32.1114 11.1327 30.8752 12.8545 29.2921 14.4376C28.6685 15.0612 25.2101 18.5197 24.4224 19.3074C19.6705 24.0593 15.3123 27.688 9.7005 31.7308L8.26947 30.2998C12.5276 24.3891 16.175 20.0958 20.6929 15.5779C21.3739 14.8969 24.8576 11.4132 25.5626 10.7082ZM17.4822 8.8435L18.7253 10.0866L17.3442 11.4678L15.7905 10.5351L17.4822 8.8435ZM7.53688 8.84344L8.29461 8.0857L19.1709 14.615C18.1746 15.6171 17.2218 16.6076 16.2976 17.6042L7.53688 8.84344Z" fill="white"/>
</svg>
