<svg width="40" height="40" viewBox="0 0 40 40" fill="none" xmlns="http://www.w3.org/2000/svg">
<path d="M35.6591 15.5599C34.0356 9.71798 29.2052 5.26421 23.2396 4.13271C21.9189 3.88188 20.6443 4.59419 20.1226 5.75684C19.8484 5.74204 19.5733 5.73446 19.2993 5.73446C10.9756 5.73446 4.23926 12.4701 4.23926 20.7945C4.23926 29.1333 10.9952 35.9174 19.2993 35.9174C27.6035 35.9174 34.3594 29.1333 34.3594 20.7946C34.3594 20.1343 34.3155 19.4736 34.2301 18.8214C35.4268 18.1967 36.0124 16.8311 35.6591 15.5599ZM21.2963 13.5331C23.6022 14.168 25.488 15.8844 26.3406 18.1244C26.7369 19.1658 27.6481 19.856 28.6762 19.9737C28.6999 20.2463 28.7119 20.5205 28.7119 20.7945C28.7119 26.0192 24.4894 30.2698 19.2993 30.2698C14.1092 30.2698 9.88677 26.0193 9.88677 20.7945C9.88677 15.634 14.0614 11.4308 19.2109 11.3831C19.4316 12.3895 20.2086 13.2336 21.2963 13.5331ZM19.2993 34.0348C12.0332 34.0348 6.12174 28.0953 6.12174 20.7945C6.12174 13.5284 12.0332 7.61694 19.2993 7.61694C19.4301 7.61694 19.5611 7.61931 19.6922 7.62322L19.3405 9.49986C19.3268 9.49986 19.3131 9.49949 19.2993 9.49949C13.0713 9.49949 8.00429 14.5665 8.00429 20.7945C8.00429 27.0255 13.0602 32.1523 19.2993 32.1523C25.5297 32.1523 30.5944 27.0336 30.5944 20.7945C30.5944 20.4361 30.5768 20.0774 30.5429 19.721L32.3948 19.3216C32.449 19.8095 32.4768 20.3021 32.4768 20.7945C32.4769 28.0952 26.5654 34.0348 19.2993 34.0348ZM33.1229 17.2388L29.184 18.0882C28.7328 18.1854 28.2768 17.9192 28.1 17.4548C27.0348 14.6562 24.6783 12.5117 21.796 11.7182C21.2694 11.5732 20.9535 11.1137 21.045 10.6256L21.7721 6.74503C21.8684 6.2302 22.3701 5.884 22.8888 5.98224C28.1184 6.97421 32.4191 10.9315 33.8454 16.0639C33.9892 16.5819 33.6556 17.124 33.1229 17.2388Z" fill="white"/>
<path d="M19.2987 15.1476C19.8185 15.1476 20.2399 14.7262 20.2399 14.2064C20.2399 13.6865 19.8185 13.2651 19.2987 13.2651C18.7788 13.2651 18.3574 13.6865 18.3574 14.2064C18.3574 14.7262 18.7788 15.1476 19.2987 15.1476Z" fill="white"/>
<path d="M19.2987 28.3254C19.8185 28.3254 20.2399 27.9039 20.2399 27.3841C20.2399 26.8643 19.8185 26.4429 19.2987 26.4429C18.7788 26.4429 18.3574 26.8643 18.3574 27.3841C18.3574 27.9039 18.7788 28.3254 19.2987 28.3254Z" fill="white"/>
<path d="M12.7098 21.7365C13.2296 21.7365 13.651 21.3151 13.651 20.7952C13.651 20.2754 13.2296 19.854 12.7098 19.854C12.19 19.854 11.7686 20.2754 11.7686 20.7952C11.7686 21.3151 12.19 21.7365 12.7098 21.7365Z" fill="white"/>
<path d="M25.8875 21.7365C26.4074 21.7365 26.8288 21.3151 26.8288 20.7952C26.8288 20.2754 26.4074 19.854 25.8875 19.854C25.3677 19.854 24.9463 20.2754 24.9463 20.7952C24.9463 21.3151 25.3677 21.7365 25.8875 21.7365Z" fill="white"/>
<path d="M14.6405 26.3947C15.1603 26.3947 15.5817 25.9733 15.5817 25.4534C15.5817 24.9336 15.1603 24.5122 14.6405 24.5122C14.1206 24.5122 13.6992 24.9336 13.6992 25.4534C13.6992 25.9733 14.1206 26.3947 14.6405 26.3947Z" fill="white"/>
<path d="M23.9578 26.3947C24.4777 26.3947 24.8991 25.9733 24.8991 25.4534C24.8991 24.9336 24.4777 24.5122 23.9578 24.5122C23.438 24.5122 23.0166 24.9336 23.0166 25.4534C23.0166 25.9733 23.438 26.3947 23.9578 26.3947Z" fill="white"/>
<path d="M14.6405 17.0768C15.1603 17.0768 15.5817 16.6554 15.5817 16.1356C15.5817 15.6157 15.1603 15.1943 14.6405 15.1943C14.1206 15.1943 13.6992 15.6157 13.6992 16.1356C13.6992 16.6554 14.1206 17.0768 14.6405 17.0768Z" fill="white"/>
<path d="M19.2992 17.0293C17.2232 17.0293 15.5342 18.7183 15.5342 20.7943C15.5342 22.8704 17.2232 24.5593 19.2992 24.5593C21.3752 24.5593 23.0642 22.8704 23.0642 20.7943C23.0642 18.7183 21.3752 17.0293 19.2992 17.0293ZM19.2992 22.6768C18.2612 22.6768 17.4167 21.8323 17.4167 20.7943C17.4167 19.7563 18.2612 18.9118 19.2992 18.9118C20.3372 18.9118 21.1817 19.7563 21.1817 20.7943C21.1817 21.8323 20.3372 22.6768 19.2992 22.6768Z" fill="white"/>
</svg>
