<svg width="40" height="41" viewBox="0 0 40 41" fill="none" xmlns="http://www.w3.org/2000/svg">
<rect x="5.75" y="21.25" width="18.5" height="8.5" rx="1.25" stroke="#502F5A" stroke-width="1.5" stroke-linecap="round" stroke-linejoin="round"/>
<g clip-path="url(#clip0)">
<line x1="16" y1="17.4393" x2="20.9393" y2="12.5" stroke="#502F5A" stroke-width="1.5" stroke-linecap="round" stroke-linejoin="round"/>
<line x1="28" y1="20.4393" x2="35.9393" y2="12.5" stroke="#502F5A" stroke-width="1.5" stroke-linecap="round" stroke-linejoin="round"/>
<line x1="18" y1="20.4393" x2="25.9393" y2="12.5" stroke="#502F5A" stroke-width="1.5" stroke-linecap="round" stroke-linejoin="round"/>
<line x1="23" y1="20.4393" x2="30.9393" y2="12.5" stroke="#502F5A" stroke-width="1.5" stroke-linecap="round" stroke-linejoin="round"/>
</g>
<rect x="15.75" y="12.25" width="18.5" height="8.5" rx="1.25" stroke="#502F5A" stroke-width="1.5" stroke-linecap="round" stroke-linejoin="round"/>
<line x1="6" y1="26.4393" x2="10.9393" y2="21.5" stroke="#502F5A" stroke-width="1.5" stroke-linecap="round" stroke-linejoin="round"/>
<line x1="18" y1="29.4393" x2="23.9393" y2="23.5" stroke="#502F5A" stroke-width="1.5" stroke-linecap="round" stroke-linejoin="round"/>
<line x1="8" y1="29.4393" x2="15.9393" y2="21.5" stroke="#502F5A" stroke-width="1.5" stroke-linecap="round" stroke-linejoin="round"/>
<line x1="13" y1="29.4393" x2="20.9393" y2="21.5" stroke="#502F5A" stroke-width="1.5" stroke-linecap="round" stroke-linejoin="round"/>
<path d="M10 14.5L8 11.5" stroke="#502F5A" stroke-width="1.5" stroke-linecap="round" stroke-linejoin="round"/>
<path d="M29.2894 27.2977L30.9907 30.4766" stroke="#502F5A" stroke-width="1.5" stroke-linecap="round" stroke-linejoin="round"/>
<path d="M8 16.5L5 15.5" stroke="#502F5A" stroke-width="1.5" stroke-linecap="round" stroke-linejoin="round"/>
<path d="M31.4727 25.5L34.3623 26.7847" stroke="#502F5A" stroke-width="1.5" stroke-linecap="round" stroke-linejoin="round"/>
<defs>
<clipPath id="clip0">
</clipPath>
</defs>
</svg>
