<svg width="40" height="40" viewBox="0 0 40 40" fill="none" xmlns="http://www.w3.org/2000/svg">
<path d="M18.3342 15.8179C17.7469 15.8179 17.271 16.2938 17.271 16.8811V23.1184C17.271 23.7057 17.7469 24.1816 18.3342 24.1816C18.9215 24.1816 19.3974 23.7057 19.3974 23.1184V16.8811C19.3973 16.2938 18.9214 15.8179 18.3342 15.8179Z" fill="#502F5A"/>
<path d="M15.0383 12.5225C14.451 12.5225 13.9751 12.9984 13.9751 13.5857V26.4152C13.9751 27.0025 14.451 27.4784 15.0383 27.4784C15.6256 27.4784 16.1015 27.0025 16.1015 26.4149V13.5856C16.1015 12.9984 15.6256 12.5225 15.0383 12.5225Z" fill="#502F5A"/>
<path d="M11.7068 9.43896C11.1195 9.43896 10.6436 9.91491 10.6436 10.5022V29.4978C10.6436 30.0851 11.1195 30.561 11.7068 30.561C12.294 30.561 12.77 30.0851 12.77 29.4978V10.5022C12.77 9.91491 12.294 9.43896 11.7068 9.43896Z" fill="#502F5A"/>
<path d="M8.41135 12.5225C7.82409 12.5225 7.34814 12.9984 7.34814 13.5857V26.4152C7.34814 27.0025 7.82409 27.4784 8.41135 27.4784C8.99861 27.4784 9.47455 27.0025 9.47455 26.4149V13.5856C9.47455 12.9984 8.99855 12.5225 8.41135 12.5225Z" fill="#502F5A"/>
<path d="M5.0798 15.6055C4.49254 15.6055 4.0166 16.0814 4.0166 16.6687V23.3314C4.0166 23.9186 4.49254 24.3946 5.0798 24.3946C5.66707 24.3946 6.14301 23.9189 6.14301 23.3314V16.6687C6.14301 16.0814 5.667 15.6055 5.0798 15.6055Z" fill="#502F5A"/>
<path d="M28.2927 9.43896C27.7054 9.43896 27.2295 9.91491 27.2295 10.5022V29.4978C27.2295 30.0851 27.7054 30.561 28.2927 30.561C28.88 30.561 29.3559 30.0851 29.3559 29.4978V10.5022C29.3559 9.91491 28.8799 9.43896 28.2927 9.43896Z" fill="#502F5A"/>
<path d="M24.9616 12.5225C24.3744 12.5225 23.8984 12.9984 23.8984 13.5857V26.4152C23.8984 27.0025 24.3744 27.4784 24.9616 27.4784C25.5489 27.4784 26.0248 27.0025 26.0248 26.4149V13.5856C26.0248 12.9984 25.5488 12.5225 24.9616 12.5225Z" fill="#502F5A"/>
<path d="M21.6657 14.188C21.0785 14.188 20.6025 14.6639 20.6025 15.2512V24.749C20.6025 25.3363 21.0785 25.8122 21.6657 25.8122C22.253 25.8122 22.7289 25.3366 22.7289 24.749V15.2512C22.7289 14.6639 22.2529 14.188 21.6657 14.188Z" fill="#502F5A"/>
<path d="M31.5886 12.5225C31.0013 12.5225 30.5254 12.9984 30.5254 13.5857V26.4152C30.5254 27.0025 31.0013 27.4784 31.5886 27.4784C32.1759 27.4784 32.6518 27.0025 32.6518 26.4149V13.5856C32.6518 12.9984 32.1759 12.5225 31.5886 12.5225Z" fill="#502F5A"/>
<path d="M34.9202 15.6055C34.3329 15.6055 33.8569 16.0814 33.8569 16.6687V23.3314C33.8569 23.9186 34.3329 24.3946 34.9202 24.3946C35.5074 24.3946 35.9834 23.9189 35.9834 23.3314V16.6687C35.9834 16.0814 35.5074 15.6055 34.9202 15.6055Z" fill="#502F5A"/>
</svg>
