<svg width="40" height="40" viewBox="0 0 40 40" fill="none" xmlns="http://www.w3.org/2000/svg">
<path d="M33.2575 6.55246C32.7712 6.07107 32.1947 5.82701 31.5436 5.82701C31.5393 5.82701 31.535 5.82701 31.5307 5.82707C30.8928 5.8302 30.2951 6.08088 29.8476 6.53285L28.7605 7.63073C25.188 5.59577 21.4473 4.68301 17.6388 4.91928C14.0492 5.1419 10.28 6.39686 6.43603 8.64925C6.16475 8.80822 5.99805 9.09904 5.99805 9.41349V19.8428C5.99805 21.6884 6.27364 23.3485 6.81709 24.7769C7.45207 26.4458 8.45452 27.8064 9.79658 28.8209L17.8878 34.9372C18.0459 35.0567 18.2339 35.1164 18.422 35.1164C18.6102 35.1164 18.7984 35.0566 18.9564 34.937L27.0407 28.82C28.3815 27.8055 29.3829 26.4454 30.0171 24.7773C30.5598 23.3497 30.8351 21.6906 30.8351 19.846V12.4627L33.311 9.96202C34.2521 9.01153 34.2286 7.51387 33.2575 6.55246ZM29.0636 19.846C29.0636 23.311 28.0234 25.855 25.9718 27.4073L18.4218 33.1201L10.8649 27.4077C8.81101 25.8551 7.76959 23.3099 7.76959 19.8428V9.92529C14.8417 5.91831 21.2969 5.59376 27.4668 8.93742L26.0269 10.3917C23.4691 8.91675 20.7951 8.23288 18.0705 8.35807C15.3928 8.48125 12.583 9.39448 9.7194 11.0724C9.44812 11.2314 9.28142 11.5222 9.28142 11.8367V19.8873C9.28142 22.827 10.2556 25.1173 12.0986 26.5105L17.8863 30.8855C18.0443 31.005 18.2324 31.0647 18.4204 31.0647C18.6086 31.0647 18.7968 31.0049 18.9549 30.8853L24.7376 26.5098C26.5786 25.1168 27.5517 22.8276 27.5517 19.8895V15.7789L29.0635 14.252V19.846H29.0636ZM13.1426 19.4165L17.722 24.39C17.886 24.568 18.1156 24.6712 18.3576 24.6756C18.3629 24.6756 18.3683 24.6757 18.3737 24.6757C18.6099 24.6757 18.8366 24.5813 19.0031 24.4132L25.7802 17.5682V19.8896C25.7802 22.285 25.0698 24.037 23.6687 25.0972L18.4202 29.0684L13.1669 25.0973C11.7642 24.0369 11.0529 22.284 11.0529 19.8872V12.3503C15.9612 9.60937 20.4504 9.39406 24.7333 11.6982L18.5141 17.9797L16.7597 16.1507C15.8321 15.1837 14.3788 15.1196 13.3792 16.0017C12.8729 16.4485 12.5632 17.0779 12.5294 17.7285C12.4971 18.3525 12.7149 18.952 13.1426 19.4165ZM32.0521 8.71562L18.3969 22.5076L14.4459 18.2166C14.3405 18.1021 14.2909 17.9687 14.2986 17.8202C14.3078 17.6423 14.4 17.4637 14.5514 17.33C14.6858 17.2114 14.8394 17.1526 14.9925 17.1526C15.1657 17.1526 15.3382 17.2279 15.4813 17.3771L17.8649 19.862C18.0303 20.0343 18.2583 20.1326 18.4971 20.1345C18.7375 20.139 18.9655 20.0418 19.1336 19.872L31.1064 7.77931C31.221 7.66357 31.3747 7.59938 31.5394 7.59855C31.5411 7.59855 31.5427 7.59855 31.5443 7.59855C31.6758 7.59855 31.8234 7.62554 32.0111 7.81137C32.246 8.04403 32.3356 8.42928 32.0521 8.71562Z" fill="#502F5A"/>
</svg>
