<svg width="40" height="41" viewBox="0 0 40 41" fill="none" xmlns="http://www.w3.org/2000/svg">
<path d="M33.4937 6.56252C33.1875 6.43559 32.8346 6.50548 32.5998 6.73998L25.1514 14.1815L25.1099 14.14C24.7896 13.8197 24.2702 13.8197 23.9498 14.14L21.4645 16.6252C21.1442 16.9455 21.1445 17.4653 21.4645 17.7854L21.8138 18.1347C20.9026 19.0454 19.7619 18.7327 19.2052 18.1762L17.3417 16.3128C17.3409 16.312 17.3403 16.3112 17.3395 16.3104C14.961 13.933 11.1093 13.929 8.72696 16.3105L6.24027 18.7971C5.91991 19.1174 5.92018 19.6372 6.24027 19.9572L8.14542 21.8623L6.24027 23.7675C5.91991 24.0878 5.92018 24.6075 6.24027 24.9276L10.3263 29.0137L6.24027 33.0996C5.91991 33.42 5.91991 33.9394 6.24027 34.2597C6.56057 34.5801 7.08 34.5801 7.40035 34.2597L11.4863 30.1738L15.5596 34.2471C15.88 34.5676 16.3994 34.5674 16.7197 34.2471L18.6249 32.3419L20.1234 33.8404C21.0112 34.7279 22.4624 34.7177 23.3623 33.8177C23.3623 33.8177 24.8036 32.376 24.8048 32.3748C26.5273 30.6483 27.4889 28.3647 27.5213 25.9308L28.5657 24.8863L29.2283 25.5489C29.5493 25.8698 30.0686 25.8686 30.3884 25.5489L32.8736 23.0637C33.194 22.7434 33.1937 22.2237 32.8736 21.9036L32.8324 21.8624L33.7598 20.9348C33.9136 20.781 34 20.5724 34 20.3548V7.32032C33.9999 6.98864 33.8002 6.68956 33.4937 6.56252ZM22.974 19.2946L24.2095 20.5304C23.3002 21.0007 22.1544 20.9219 21.3067 20.2515C22.1709 20.0427 22.6959 19.5725 22.974 19.2946ZM15.548 16.9448L13.0332 19.4596L10.5185 16.9448C12.471 15.6023 14.5504 16.2589 15.548 16.9448ZM16.1396 32.5069L7.98037 24.3476L9.3055 23.0225L17.4648 31.1819L16.1396 32.5069ZM22.2021 32.6577C21.9754 32.8844 21.5599 32.9567 21.2834 32.6802L7.98042 19.3772L9.3055 18.0521L23.0564 31.8032L22.2021 32.6577ZM26.1217 25.0102C25.9679 25.164 25.8815 25.3726 25.8815 25.5902V25.8036C25.8815 27.5748 25.2846 29.2543 24.186 30.6125L14.1932 20.6198L16.7609 18.0521L19.9088 21.1999C21.1179 22.4089 23.4114 23.0807 25.4044 21.7254L27.4054 23.7263L26.1217 25.0102ZM29.8083 23.8088L23.2047 17.2053L24.5298 15.8801L31.1334 22.4837L29.8083 23.8088ZM32.3593 20.0151L31.6723 20.7023L26.3114 15.3416L32.3593 9.29941V20.0151Z" fill="#502F5A"/>
</svg>
