<svg width="17" height="18" viewBox="0 0 17 18" fill="none" xmlns="http://www.w3.org/2000/svg">
<path fill-rule="evenodd" clip-rule="evenodd" d="M13.4587 3.33334C14.6323 3.33334 15.5837 4.28474 15.5837 5.45834V12.5417C15.5837 13.7153 14.6323 14.6667 13.4587 14.6667H3.54199C2.36839 14.6667 1.41699 13.7153 1.41699 12.5417V5.45834C1.41699 4.28474 2.36839 3.33334 3.54199 3.33334H13.4587ZM14.167 5.69068L8.96677 10.2414C8.72196 10.4556 8.36649 10.4735 8.10324 10.295L8.03389 10.2414L2.83366 5.69138V12.5417C2.83366 12.9329 3.15079 13.25 3.54199 13.25H13.4587C13.8499 13.25 14.167 12.9329 14.167 12.5417V5.69068ZM13.0903 4.75001H3.90891L8.50033 8.76713L13.0903 4.75001Z" fill="#1F1A17"/>
</svg>
