<svg width="19" height="20" viewBox="0 0 19 20" fill="none" xmlns="http://www.w3.org/2000/svg">
<path fill-rule="evenodd" clip-rule="evenodd" d="M7.56381 8.28372C7.78405 8.13689 7.91634 7.88971 7.91634 7.62501V4.45834C7.91634 3.14667 6.85302 2.08334 5.54134 2.08334H2.37467C1.93745 2.08334 1.58301 2.43778 1.58301 2.87501C1.58301 10.7451 8.75462 17.9167 16.6247 17.9167C17.0619 17.9167 17.4163 17.5622 17.4163 17.125V13.9583C17.4163 12.6467 16.353 11.5833 15.0413 11.5833H11.8747C11.61 11.5833 11.3628 11.7156 11.216 11.9359L9.70757 14.1985C8.06469 13.1362 6.62533 11.7331 5.51818 10.1179L5.30122 9.79212L7.56381 8.28372ZM12.2984 13.1667H15.0413C15.4786 13.1667 15.833 13.5211 15.833 13.9583V16.3059C14.2994 16.1998 12.8026 15.7896 11.4066 15.1392L11.0863 14.9848L12.2984 13.1667ZM3.19379 3.66668H5.54134C5.97857 3.66668 6.33301 4.02112 6.33301 4.45834V7.20132L4.51485 8.41343C3.77499 6.92712 3.30808 5.3183 3.19379 3.66668Z" fill="#D5A260"/>
</svg>
