<svg width="17" height="18" viewBox="0 0 17 18" fill="none" xmlns="http://www.w3.org/2000/svg">
<path fill-rule="evenodd" clip-rule="evenodd" d="M8.50033 1.91666C12.4123 1.91666 15.5837 5.08797 15.5837 8.99999C15.5837 12.912 12.4123 16.0833 8.50033 16.0833C4.58831 16.0833 1.41699 12.912 1.41699 8.99999C1.41699 5.08797 4.58831 1.91666 8.50033 1.91666ZM8.50033 3.33332C5.37071 3.33332 2.83366 5.87038 2.83366 8.99999C2.83366 12.1296 5.37071 14.6667 8.50033 14.6667C11.6299 14.6667 14.167 12.1296 14.167 8.99999C14.167 5.87038 11.6299 3.33332 8.50033 3.33332ZM8.50033 4.74999C8.86358 4.74999 9.16298 5.02344 9.20389 5.37572L9.20866 5.45832V8.70659L10.4179 9.91579C10.6945 10.1924 10.6945 10.6409 10.4179 10.9175C10.1625 11.1729 9.76073 11.1925 9.48285 10.9764L9.41613 10.9175L7.99946 9.50086C7.88876 9.39016 7.81849 9.24659 7.79814 9.0931L7.79199 8.99999V5.45832C7.79199 5.06712 8.10912 4.74999 8.50033 4.74999Z" fill="#1F1A17"/>
</svg>
