<svg width="344" height="196" viewBox="0 0 344 196" fill="none" xmlns="http://www.w3.org/2000/svg">
<g opacity="0.1" filter="url(#filter0_d)">
<path d="M62.8336 43.1148V153H40.1718V65.9396L16.0427 80.7758L5.93462 65.1245L42.4543 43.1148H62.8336ZM121.861 40.9954C134.686 40.9954 144.468 44.8539 151.207 52.5708C158.055 60.2878 161.478 70.6133 161.478 83.5474C161.478 98.4378 159.141 110.72 154.468 120.393C149.903 129.958 142.838 137.675 133.273 143.544C123.709 149.305 111.101 153.924 95.4494 157.402L90.5584 140.935C104.905 137.349 115.72 132.729 123.002 127.078C130.393 121.317 134.958 113.383 136.697 103.275C130.828 110.774 123.111 114.524 113.546 114.524C107.786 114.524 102.514 113.057 97.7319 110.122C93.0582 107.187 89.3084 103.003 86.4825 97.5683C83.7653 92.1338 82.4067 85.7755 82.4067 78.4933C82.4067 70.9937 84.1457 64.418 87.6237 58.7661C91.1018 53.1143 95.8298 48.7667 101.808 45.7234C107.786 42.5714 114.47 40.9954 121.861 40.9954ZM120.231 97.8944C127.187 97.8944 133.056 94.4163 137.838 87.4602C137.947 76.6999 136.751 69.0916 134.252 64.6354C131.86 60.0704 127.73 57.7879 121.861 57.7879C116.753 57.7879 112.731 59.527 109.796 63.005C106.97 66.3744 105.558 71.3198 105.558 77.8412C105.558 84.7973 106.862 89.9057 109.47 93.1664C112.188 96.3184 115.774 97.8944 120.231 97.8944ZM222.088 79.4715C228.066 79.4715 233.391 80.8845 238.065 83.7104C242.847 86.5363 246.597 90.6665 249.314 96.101C252.032 101.427 253.39 107.894 253.39 115.502C253.39 123.11 251.76 129.958 248.499 136.044C245.347 142.131 240.837 146.913 234.967 150.391C229.098 153.87 222.359 155.609 214.751 155.609C200.947 155.609 190.731 150.935 184.101 141.588C177.471 132.132 174.156 119.089 174.156 102.459C174.156 90.1774 176.003 79.4172 179.699 70.1785C183.503 60.8312 188.883 53.6577 195.839 48.658C202.795 43.5496 211.001 40.9954 220.457 40.9954C229.913 40.9954 238.065 43.3322 244.912 48.0059L236.435 62.1899C231.435 59.2552 226.272 57.7879 220.946 57.7879C214.316 57.7879 208.991 60.6682 204.969 66.4288C200.947 72.1893 198.665 80.2867 198.122 90.7209C204.643 83.2213 212.632 79.4715 222.088 79.4715ZM214.914 138.653C219.914 138.653 223.664 136.642 226.163 132.621C228.772 128.599 230.076 123.002 230.076 115.828C230.076 108.655 228.881 103.546 226.49 100.503C224.207 97.3509 220.729 95.7749 216.055 95.7749C209.425 95.7749 203.447 99.1443 198.122 105.883C198.339 117.622 199.698 126.045 202.197 131.153C204.806 136.153 209.045 138.653 214.914 138.653ZM329.818 59.9074H289.222V85.1777C294.548 82.6778 300.091 81.4279 305.852 81.4279C311.938 81.4279 317.318 82.8409 321.992 85.6668C326.774 88.4927 330.524 92.6229 333.241 98.0574C335.959 103.383 337.317 109.687 337.317 116.969C337.317 124.578 335.578 131.316 332.1 137.186C328.622 142.946 323.677 147.457 317.264 150.718C310.96 153.978 303.623 155.609 295.254 155.609C281.125 155.609 269.278 150.283 259.713 139.631L272.756 127.404C278.842 134.36 286.124 137.838 294.602 137.838C300.58 137.838 305.199 136.044 308.46 132.458C311.83 128.871 313.514 123.708 313.514 116.969C313.514 104.035 307.971 97.5683 296.885 97.5683C294.494 97.5683 292.211 97.8944 290.037 98.5465C287.972 99.09 285.69 100.068 283.19 101.481H267.049V43.1148H332.589L329.818 59.9074Z" fill="black"/>
<path d="M62.8336 43.1148H63.8336V42.1148H62.8336V43.1148ZM62.8336 153V154H63.8336V153H62.8336ZM40.1718 153H39.1718V154H40.1718V153ZM40.1718 65.9396H41.1718V64.1509L39.6481 65.0878L40.1718 65.9396ZM16.0428 80.7758L15.2027 81.3183L15.7333 82.1399L16.5665 81.6276L16.0428 80.7758ZM5.93462 65.1245L5.41844 64.268L4.53494 64.8005L5.09458 65.667L5.93462 65.1245ZM42.4543 43.1148V42.1148H42.1763L41.9381 42.2584L42.4543 43.1148ZM61.8336 43.1148V153H63.8336V43.1148H61.8336ZM62.8336 152H40.1718V154H62.8336V152ZM41.1718 153V65.9396H39.1718V153H41.1718ZM39.6481 65.0878L15.519 79.9239L16.5665 81.6276L40.6956 66.7915L39.6481 65.0878ZM16.8828 80.2332L6.77466 64.5819L5.09458 65.667L15.2027 81.3183L16.8828 80.2332ZM6.4508 65.9809L42.9705 43.9713L41.9381 42.2584L5.41844 64.268L6.4508 65.9809ZM42.4543 44.1148H62.8336V42.1148H42.4543V44.1148ZM151.207 52.5708L150.454 53.2286L150.459 53.2345L151.207 52.5708ZM154.468 120.393L153.567 119.958L153.565 119.962L154.468 120.393ZM133.273 143.544L133.789 144.401L133.796 144.396L133.273 143.544ZM95.4494 157.402L94.4908 157.687L94.7562 158.58L95.6663 158.378L95.4494 157.402ZM90.5584 140.935L90.3158 139.965L89.3023 140.219L89.5998 141.22L90.5584 140.935ZM123.002 127.078L123.615 127.868L123.617 127.866L123.002 127.078ZM136.697 103.275L137.683 103.444L135.91 102.658L136.697 103.275ZM97.7319 110.122L97.2001 110.969L97.2089 110.974L97.7319 110.122ZM86.4825 97.5683L85.5881 98.0155L85.5916 98.0226L85.5953 98.0297L86.4825 97.5683ZM87.6237 58.7661L88.4754 59.2902L87.6237 58.7661ZM101.808 45.7234L102.261 46.6145L102.268 46.6113L102.274 46.6079L101.808 45.7234ZM137.838 87.4602L138.662 88.0267L138.835 87.7753L138.838 87.4703L137.838 87.4602ZM134.252 64.6354L133.366 65.0994L133.372 65.1121L133.379 65.1246L134.252 64.6354ZM109.796 63.005L109.032 62.3601L109.03 62.3624L109.796 63.005ZM109.47 93.1664L108.689 93.7911L108.701 93.8054L108.713 93.8193L109.47 93.1664ZM121.861 41.9954C134.476 41.9954 143.951 45.7819 150.454 53.2286L151.96 51.9131C144.986 43.9258 134.897 39.9954 121.861 39.9954V41.9954ZM150.459 53.2345C157.106 60.7255 160.478 70.7936 160.478 83.5474H162.478C162.478 70.433 159.003 59.85 151.955 51.9071L150.459 53.2345ZM160.478 83.5474C160.478 98.3419 158.155 110.462 153.567 119.958L155.368 120.828C160.128 110.977 162.478 98.5338 162.478 83.5474H160.478ZM153.565 119.962C149.089 129.342 142.161 136.917 132.75 142.692L133.796 144.396C143.515 138.432 150.717 130.573 155.37 120.824L153.565 119.962ZM132.757 142.687C123.316 148.374 110.82 152.962 95.2325 156.426L95.6663 158.378C111.381 154.886 124.101 150.235 133.789 144.401L132.757 142.687ZM96.408 157.117L91.517 140.651L89.5998 141.22L94.4908 157.687L96.408 157.117ZM90.8009 141.906C105.211 138.303 116.177 133.641 123.615 127.868L122.389 126.288C115.263 131.818 104.6 136.394 90.3158 139.965L90.8009 141.906ZM123.617 127.866C131.223 121.938 135.906 113.772 137.683 103.444L135.712 103.105C134.01 112.993 129.563 120.696 122.387 126.289L123.617 127.866ZM135.91 102.658C130.231 109.914 122.805 113.524 113.546 113.524V115.524C123.417 115.524 131.425 111.634 137.485 103.891L135.91 102.658ZM113.546 113.524C107.965 113.524 102.876 112.105 98.2549 109.27L97.2089 110.974C102.153 114.008 107.606 115.524 113.546 115.524V113.524ZM98.2636 109.275C93.7568 106.445 90.1228 102.401 87.3697 97.107L85.5953 98.0297C88.494 103.604 92.3597 107.929 97.2001 110.969L98.2636 109.275ZM87.3769 97.1211C84.7416 91.8504 83.4066 85.6508 83.4066 78.4933H81.4066C81.4066 85.9002 82.7889 92.4173 85.5881 98.0155L87.3769 97.1211ZM83.4066 78.4933C83.4066 71.1541 85.1065 64.7647 88.4754 59.2902L86.7721 58.242C83.1849 64.0713 81.4066 70.8333 81.4066 78.4933H83.4066ZM88.4754 59.2902C91.856 53.7968 96.4455 49.5754 102.261 46.6145L101.354 44.8322C95.2141 47.958 90.3476 52.4318 86.7721 58.242L88.4754 59.2902ZM102.274 46.6079C108.095 43.5387 114.617 41.9954 121.861 41.9954V39.9954C114.323 39.9954 107.476 41.6041 101.341 44.8388L102.274 46.6079ZM120.231 98.8944C127.589 98.8944 133.739 95.1882 138.662 88.0267L137.014 86.8937C132.373 93.6444 126.785 96.8944 120.231 96.8944V98.8944ZM138.838 87.4703C138.947 76.6889 137.762 68.8484 135.124 64.1461L133.379 65.1246C135.741 69.3349 136.947 76.7109 136.838 87.4501L138.838 87.4703ZM135.137 64.1714C133.86 61.732 132.097 59.8692 129.844 58.6245C127.599 57.3838 124.924 56.7879 121.861 56.7879V58.7879C124.667 58.7879 126.992 59.3333 128.877 60.375C130.755 61.4128 132.252 62.9737 133.366 65.0994L135.137 64.1714ZM121.861 56.7879C116.498 56.7879 112.181 58.6276 109.032 62.3602L110.561 63.6499C113.281 60.4263 117.007 58.7879 121.861 58.7879V56.7879ZM109.03 62.3624C105.995 65.9812 104.558 71.1946 104.558 77.8412H106.558C106.558 71.4449 107.946 66.7677 110.563 63.6476L109.03 62.3624ZM104.558 77.8412C104.558 84.8857 105.872 90.2688 108.689 93.7911L110.251 92.5417C107.852 89.5426 106.558 84.7089 106.558 77.8412H104.558ZM108.713 93.8193C111.635 97.2088 115.507 98.8944 120.231 98.8944V96.8944C116.042 96.8944 112.74 95.428 110.228 92.5134L108.713 93.8193ZM238.065 83.7104L237.548 84.5662L237.556 84.5713L238.065 83.7104ZM249.314 96.101L248.42 96.5482L248.424 96.5555L249.314 96.101ZM248.499 136.044L247.618 135.572L247.611 135.585L248.499 136.044ZM234.967 150.391L234.458 149.531L234.967 150.391ZM184.101 141.588L183.282 142.162L183.285 142.166L184.101 141.588ZM179.699 70.1785L178.772 69.8016L178.77 69.8072L179.699 70.1785ZM195.839 48.658L196.423 49.4701L196.431 49.464L195.839 48.658ZM244.912 48.0059L245.771 48.5189L246.254 47.7107L245.476 47.1799L244.912 48.0059ZM236.435 62.1899L235.928 63.0523L236.784 63.5545L237.293 62.7029L236.435 62.1899ZM204.969 66.4287L205.789 67.0012L204.969 66.4287ZM198.122 90.7209L197.123 90.6689L196.972 93.5669L198.876 91.377L198.122 90.7209ZM226.163 132.621L225.325 132.077L225.319 132.085L225.314 132.093L226.163 132.621ZM226.49 100.503L225.68 101.089L225.691 101.105L225.703 101.121L226.49 100.503ZM198.122 105.883L197.337 105.263L197.115 105.544L197.122 105.902L198.122 105.883ZM202.197 131.153L201.299 131.593L201.305 131.605L201.311 131.616L202.197 131.153ZM222.088 80.4715C227.901 80.4715 233.045 81.8434 237.548 84.5661L238.582 82.8547C233.738 79.9255 228.23 78.4715 222.088 78.4715V80.4715ZM237.556 84.5713C242.157 87.2902 245.78 91.2691 248.42 96.5482L250.209 95.6538C247.414 90.064 243.537 85.7824 238.574 82.8495L237.556 84.5713ZM248.424 96.5555C251.052 101.707 252.39 108.01 252.39 115.502H254.39C254.39 107.778 253.011 101.146 250.205 95.6465L248.424 96.5555ZM252.39 115.502C252.39 122.963 250.793 129.645 247.618 135.572L249.381 136.517C252.727 130.27 254.39 123.258 254.39 115.502H252.39ZM247.611 135.585C244.545 141.506 240.165 146.149 234.458 149.531L235.477 151.252C241.508 147.678 246.15 142.756 249.387 136.504L247.611 135.585ZM234.458 149.531C228.76 152.908 222.201 154.609 214.751 154.609V156.609C222.518 156.609 229.436 154.831 235.477 151.252L234.458 149.531ZM214.751 154.609C201.196 154.609 191.319 150.036 184.916 141.009L183.285 142.166C190.142 151.834 200.699 156.609 214.751 156.609V154.609ZM184.919 141.014C178.449 131.785 175.156 118.97 175.156 102.459H173.156C173.156 119.208 176.492 132.478 183.282 142.162L184.919 141.014ZM175.156 102.459C175.156 90.2758 176.989 79.6463 180.627 70.5499L178.77 69.8072C175.018 79.188 173.156 90.0791 173.156 102.459H175.156ZM180.625 70.5555C184.371 61.3511 189.645 54.3416 196.423 49.47L195.255 47.846C188.121 52.9739 182.635 60.3114 178.772 69.8016L180.625 70.5555ZM196.431 49.464C203.199 44.4938 211.193 41.9954 220.457 41.9954V39.9954C210.81 39.9954 202.391 42.6054 195.247 47.852L196.431 49.464ZM220.457 41.9954C229.741 41.9954 237.69 44.287 244.349 48.8318L245.476 47.1799C238.44 42.3774 230.085 39.9954 220.457 39.9954V41.9954ZM244.054 47.4928L235.576 61.6768L237.293 62.7029L245.771 48.5189L244.054 47.4928ZM236.941 61.3274C231.802 58.311 226.466 56.7879 220.946 56.7879V58.7879C226.079 58.7879 231.068 60.1995 235.928 63.0523L236.941 61.3274ZM220.946 56.7879C213.967 56.7879 208.344 59.8467 204.149 65.8563L205.789 67.0012C209.637 61.4897 214.665 58.7879 220.946 58.7879V56.7879ZM204.149 65.8563C199.98 71.8276 197.672 80.133 197.123 90.6689L199.12 90.7729C199.658 80.4404 201.915 72.551 205.789 67.0012L204.149 65.8563ZM198.876 91.377C205.219 84.0832 212.937 80.4715 222.088 80.4715V78.4715C212.326 78.4715 204.067 82.3594 197.367 90.0647L198.876 91.377ZM214.914 139.653C220.236 139.653 224.318 137.483 227.013 133.149L225.314 132.093C223.009 135.801 219.592 137.653 214.914 137.653V139.653ZM227.002 133.165C229.756 128.92 231.076 123.105 231.076 115.828H229.076C229.076 122.898 227.788 128.279 225.325 132.077L227.002 133.165ZM231.076 115.828C231.076 108.597 229.882 103.202 227.276 99.8851L225.703 101.121C227.88 103.891 229.076 108.712 229.076 115.828H231.076ZM227.299 99.9164C224.79 96.4508 220.977 94.7749 216.055 94.7749V96.7749C220.481 96.7749 223.624 98.251 225.68 101.089L227.299 99.9164ZM216.055 94.7749C209.033 94.7749 202.792 98.3613 197.337 105.263L198.906 106.503C204.103 99.9274 209.817 96.7749 216.055 96.7749V94.7749ZM197.122 105.902C197.34 117.663 198.697 126.275 201.299 131.593L203.096 130.714C200.698 125.815 199.338 117.58 199.121 105.865L197.122 105.902ZM201.311 131.616C202.689 134.257 204.522 136.281 206.825 137.639C209.126 138.996 211.835 139.653 214.914 139.653V137.653C212.124 137.653 209.779 137.06 207.841 135.917C205.905 134.775 204.315 133.05 203.084 130.691L201.311 131.616ZM329.818 59.9074V60.9074H330.666L330.804 60.0702L329.818 59.9074ZM289.222 59.9074V58.9074H288.222V59.9074H289.222ZM289.222 85.1777H288.222V86.7518L289.647 86.0829L289.222 85.1777ZM321.992 85.6668L321.475 86.5226L321.483 86.5277L321.992 85.6668ZM333.241 98.0574L332.347 98.5046L332.351 98.5119L333.241 98.0574ZM332.1 137.186L332.956 137.703L332.96 137.695L332.1 137.186ZM317.264 150.718L316.811 149.826L316.805 149.829L317.264 150.718ZM259.713 139.631L259.029 138.902L258.315 139.571L258.969 140.299L259.713 139.631ZM272.756 127.404L273.508 126.745L272.827 125.966L272.072 126.674L272.756 127.404ZM308.46 132.458L307.731 131.773L307.726 131.779L307.72 131.785L308.46 132.458ZM290.037 98.5465L290.292 99.5136L290.308 99.5092L290.325 99.5043L290.037 98.5465ZM283.19 101.481V102.481H283.453L283.682 102.352L283.19 101.481ZM267.049 101.481H266.049V102.481H267.049V101.481ZM267.049 43.1148V42.1148H266.049V43.1148H267.049ZM332.589 43.1148L333.576 43.2777L333.768 42.1148H332.589V43.1148ZM329.818 58.9074H289.222V60.9074H329.818V58.9074ZM288.222 59.9074V85.1777H290.222V59.9074H288.222ZM289.647 86.0829C294.843 83.6441 300.241 82.4279 305.852 82.4279V80.4279C299.941 80.4279 294.253 81.7116 288.797 84.2725L289.647 86.0829ZM305.852 82.4279C311.777 82.4279 316.974 83.8015 321.475 86.5225L322.509 84.8111C317.662 81.8802 312.099 80.4279 305.852 80.4279V82.4279ZM321.483 86.5277C326.084 89.2466 329.707 93.2255 332.347 98.5046L334.136 97.6102C331.341 92.0204 327.464 87.7389 322.501 84.8059L321.483 86.5277ZM332.351 98.5119C334.982 103.67 336.317 109.811 336.317 116.969H338.317C338.317 109.563 336.935 103.097 334.132 97.603L332.351 98.5119ZM336.317 116.969C336.317 124.419 334.616 130.978 331.24 136.676L332.96 137.695C336.54 131.655 338.317 124.736 338.317 116.969H336.317ZM331.244 136.669C327.869 142.258 323.069 146.644 316.811 149.826L317.717 151.609C324.285 148.27 329.375 143.634 332.956 137.703L331.244 136.669ZM316.805 149.829C310.666 153.004 303.492 154.609 295.254 154.609V156.609C303.755 156.609 311.254 154.952 317.723 151.606L316.805 149.829ZM295.254 154.609C281.413 154.609 269.835 149.407 260.457 138.963L258.969 140.299C268.72 151.159 280.837 156.609 295.254 156.609V154.609ZM260.397 140.361L273.44 128.133L272.072 126.674L259.029 138.902L260.397 140.361ZM272.003 128.062C278.26 135.213 285.808 138.838 294.602 138.838V136.838C286.441 136.838 279.424 133.506 273.508 126.745L272.003 128.062ZM294.602 138.838C300.791 138.838 305.707 136.973 309.2 133.13L307.72 131.785C304.692 135.116 300.369 136.838 294.602 136.838V138.838ZM309.189 133.142C312.788 129.311 314.514 123.867 314.514 116.969H312.514C312.514 123.549 310.871 128.431 307.731 131.773L309.189 133.142ZM314.514 116.969C314.514 110.383 313.106 105.256 310.116 101.768C307.101 98.25 302.626 96.5683 296.885 96.5683V98.5683C302.23 98.5683 306.07 100.12 308.598 103.069C311.151 106.048 312.514 110.622 312.514 116.969H314.514ZM296.885 96.5683C294.401 96.5683 292.022 96.9071 289.75 97.5887L290.325 99.5043C292.4 98.8816 294.586 98.5683 296.885 98.5683V96.5683ZM289.783 97.5794C287.612 98.1508 285.248 99.1689 282.698 100.611L283.682 102.352C286.131 100.967 288.333 100.029 290.292 99.5136L289.783 97.5794ZM283.19 100.481H267.049V102.481H283.19V100.481ZM268.049 101.481V43.1148H266.049V101.481H268.049ZM267.049 44.1148H332.589V42.1148H267.049V44.1148ZM331.603 42.952L328.831 59.7445L330.804 60.0702L333.576 43.2777L331.603 42.952Z" fill="black"/>
</g>
<path opacity="0.1" d="M302.114 24H298.689V11.2151H307.469L307.059 13.8445H302.114V24ZM313.868 10.8292C315.781 10.8292 317.277 11.4322 318.354 12.6383C319.432 13.8284 319.971 15.4848 319.971 17.6076C319.971 18.9584 319.721 20.1485 319.223 21.1777C318.74 22.1908 318.033 22.9788 317.1 23.5417C316.183 24.1045 315.098 24.386 313.843 24.386C311.93 24.386 310.426 23.7909 309.333 22.6009C308.255 21.3948 307.716 19.7303 307.716 17.6076C307.716 16.2567 307.958 15.0747 308.44 14.0616C308.939 13.0323 309.646 12.2363 310.563 11.6734C311.496 11.1106 312.597 10.8292 313.868 10.8292ZM313.868 13.3861C312.999 13.3861 312.348 13.7319 311.914 14.4234C311.496 15.0988 311.287 16.1602 311.287 17.6076C311.287 19.0549 311.496 20.1243 311.914 20.8158C312.348 21.4913 312.991 21.829 313.843 21.829C314.696 21.829 315.331 21.4913 315.749 20.8158C316.183 20.1243 316.4 19.0549 316.4 17.6076C316.4 16.1602 316.191 15.0988 315.773 14.4234C315.355 13.7319 314.72 13.3861 313.868 13.3861ZM333.653 21.443V27.9078H331.217L330.807 24H323.498L323.088 27.9078H320.651V21.443H321.471C321.777 21.2179 322.026 20.9445 322.219 20.6229C322.428 20.3012 322.613 19.7545 322.774 18.9825C322.935 18.2106 323.072 17.101 323.184 15.6536L323.522 11.2151H332.302V21.443H333.653ZM329.07 13.555H326.489L326.344 15.3159C326.232 16.6668 326.087 17.7362 325.91 18.5242C325.749 19.2961 325.524 19.9072 325.235 20.3575C324.961 20.7917 324.583 21.1536 324.101 21.443H329.07V13.555Z" fill="black"/>
<defs>
<filter id="filter0_d" x="0.534912" y="39.9951" width="341.782" height="126.585" filterUnits="userSpaceOnUse" color-interpolation-filters="sRGB">
<feFlood flood-opacity="0" result="BackgroundImageFix"/>
<feColorMatrix in="SourceAlpha" type="matrix" values="0 0 0 0 0 0 0 0 0 0 0 0 0 0 0 0 0 0 127 0" result="hardAlpha"/>
<feOffset dy="4"/>
<feGaussianBlur stdDeviation="2"/>
<feColorMatrix type="matrix" values="0 0 0 0 0 0 0 0 0 0 0 0 0 0 0 0 0 0 0.25 0"/>
<feBlend mode="normal" in2="BackgroundImageFix" result="effect1_dropShadow"/>
<feBlend mode="normal" in="SourceGraphic" in2="effect1_dropShadow" result="shape"/>
</filter>
</defs>
</svg>
