<svg width="102" height="102" viewBox="0 0 102 102" fill="none" xmlns="http://www.w3.org/2000/svg">
<path d="M80.8145 3.65422C80.5156 3.35538 80.1102 3.18749 79.6875 3.1875H74.9063C74.4836 3.18749 74.0782 3.35538 73.7793 3.65422L70.5918 6.84172C70.4438 6.98972 70.3264 7.16543 70.2463 7.3588C70.1662 7.55218 70.125 7.75944 70.125 7.96875C70.125 8.17806 70.1662 8.38532 70.2463 8.5787C70.3264 8.77207 70.4438 8.94778 70.5918 9.09578L71.0586 9.5625L68.5313 12.0898L68.0645 11.623C67.7655 11.3242 67.3602 11.1563 66.9375 11.1563C66.5149 11.1563 66.1095 11.3242 65.8106 11.623L48.2793 29.1542C48.0406 29.393 47.8838 29.7014 47.8316 30.0351C47.7795 30.3687 47.8346 30.7103 47.9891 31.0105C48.1437 31.3108 48.3895 31.5542 48.6913 31.7057C48.9931 31.8572 49.3352 31.9089 49.6683 31.8534C52.8999 31.3169 56.2174 31.7114 59.2331 32.9907C56.9333 37.645 53.6721 41.7583 49.665 45.0591C45.6579 48.3598 40.996 50.7727 35.9874 52.1385L33.4367 52.8341C30.9029 52.6019 28.3491 52.9302 25.9564 53.7956C23.5638 54.661 21.3908 56.0424 19.5918 57.8417L3.65435 73.7792C3.50634 73.9272 3.38893 74.1029 3.30883 74.2963C3.22873 74.4897 3.1875 74.6969 3.1875 74.9062C3.1875 75.1156 3.22873 75.3228 3.30883 75.5162C3.38893 75.7096 3.50634 75.8853 3.65435 76.0333L10.0293 82.4083C10.3282 82.7071 10.7336 82.875 11.1563 82.875C11.5789 82.875 11.9843 82.7071 12.2832 82.4083L15.9375 78.754L23.2461 86.0625L19.5918 89.7167C19.4438 89.8647 19.3264 90.0404 19.2463 90.2338C19.1662 90.4272 19.125 90.6344 19.125 90.8438C19.125 91.0531 19.1662 91.2603 19.2463 91.4537C19.3264 91.6471 19.4438 91.8228 19.5918 91.9708L25.9668 98.3458C26.2657 98.6446 26.6711 98.8125 27.0938 98.8125C27.5164 98.8125 27.9218 98.6446 28.2207 98.3458L44.1582 82.4083C45.9576 80.6093 47.3391 78.4363 48.2045 76.0435C49.07 73.6508 49.3983 71.0969 49.1661 68.563L49.8616 66.0126C51.2274 61.004 53.6403 56.3422 56.9409 52.3351C60.2416 48.328 64.3549 45.0668 69.0091 42.767C70.2882 45.7827 70.6827 49.1001 70.1467 52.3317C70.0912 52.6648 70.1429 53.0069 70.2944 53.3086C70.4458 53.6104 70.6892 53.8563 70.9895 54.0108C71.2897 54.1654 71.6312 54.2205 71.9649 54.1684C72.2985 54.1163 72.6069 53.9595 72.8457 53.7208L90.3769 36.1895C90.525 36.0415 90.6424 35.8658 90.7225 35.6724C90.8026 35.4791 90.8438 35.2718 90.8438 35.0625C90.8438 34.8532 90.8026 34.6459 90.7225 34.4526C90.6424 34.2592 90.525 34.0835 90.3769 33.9355L89.9102 33.4688L92.4375 30.9415L92.9043 31.4083C93.2032 31.7071 93.6086 31.875 94.0313 31.875C94.4539 31.875 94.8593 31.7071 95.1582 31.4083L98.3457 28.2208C98.6446 27.9219 98.8125 27.5165 98.8125 27.0938V22.3125C98.8125 21.8898 98.6446 21.4844 98.3457 21.1855L80.8145 3.65422ZM37.1231 75.373C35.909 76.5871 34.3114 77.3427 32.6026 77.511C30.8938 77.6793 29.1795 77.2499 27.7519 76.2959C26.3242 75.342 25.2715 73.9225 24.773 72.2794C24.2746 70.6363 24.3613 68.8712 25.0184 67.2848C25.6755 65.6985 26.8623 64.389 28.3766 63.5796C29.8909 62.7702 31.639 62.5109 33.3231 62.8459C35.0072 63.1809 36.523 64.0894 37.6122 65.4167C38.7015 66.744 39.2969 68.408 39.2969 70.125C39.2959 72.0932 38.5141 73.9806 37.1231 75.373ZM24.3731 77.627C26.1692 79.4183 28.5469 80.508 31.0764 80.6991C33.6059 80.8902 36.1203 80.1702 38.1652 78.6691L40.7127 81.2167C37.987 83.3893 34.5565 84.482 31.0764 84.2861C27.5962 84.0903 24.31 82.6196 21.8452 80.1548C19.3805 77.69 17.9098 74.4039 17.7139 70.9237C17.518 67.4435 18.6107 64.0131 20.7833 61.2873L23.33 63.8339C21.8262 65.878 21.1045 68.3933 21.2959 70.9237C21.4872 73.4542 22.579 75.8323 24.3731 77.627H24.3731ZM14.7674 67.1741C14.4335 69.1272 14.4335 71.1228 14.7674 73.076L11.8165 70.125L14.7674 67.1741ZM11.1563 79.0274L7.03513 74.9062L9.56251 72.379L13.6836 76.5L11.1563 79.0274ZM27.0938 94.9649L22.9726 90.8438L25.5 88.3165L29.6211 92.4375L27.0938 94.9649ZM31.875 90.1836L28.924 87.2326C30.8766 87.5731 32.8734 87.5731 34.8261 87.2326L31.875 90.1836ZM42.9667 78.9627L40.4201 76.4161C41.9244 74.3723 42.6463 71.857 42.455 69.3266C42.2638 66.7961 41.1719 64.4179 39.3774 62.6235C37.583 60.8291 35.2049 59.7372 32.6744 59.5459C30.1439 59.3546 27.6286 60.0766 25.5848 61.5809L23.0373 59.0333C25.7631 56.8607 29.1935 55.768 32.6737 55.9639C36.1539 56.1598 39.44 57.6305 41.9048 60.0952C44.3696 62.56 45.8403 65.8461 46.0361 69.3263C46.232 72.8065 45.1393 76.2369 42.9667 78.9627ZM57.0646 47.4627C52.7862 51.7453 49.5365 56.9438 47.5609 62.6659C45.8482 59.0578 42.9421 56.1518 39.334 54.4391C45.0561 52.4636 50.2546 49.2139 54.5372 44.9355C57.589 41.8881 60.124 38.364 62.0428 34.5016C62.9975 35.1339 63.8866 35.8602 64.6968 36.6695L65.3306 37.3033C66.1399 38.1134 66.8661 39.0025 67.4984 39.9572C63.6361 41.876 60.112 44.411 57.0646 47.4627ZM73.5432 48.5154C73.2953 43.4431 71.1717 38.6439 67.5845 35.0493L66.9507 34.4154C63.3562 30.828 58.5568 28.7044 53.4845 28.457L66.9375 15.0039L86.9961 35.0625L73.5432 48.5154ZM87.6563 31.2148L70.7852 14.3438L73.3125 11.8165L90.1836 28.6875L87.6563 31.2148ZM95.625 26.4336L94.0313 28.0274L73.9726 7.96875L75.5664 6.375H79.0274L95.625 22.9726V26.4336Z" fill="white"/>
<path d="M71.7188 35.0625C72.6644 35.0625 73.5888 34.7821 74.3751 34.2567C75.1613 33.7313 75.7742 32.9846 76.1361 32.111C76.4979 31.2373 76.5926 30.2759 76.4081 29.3485C76.2237 28.421 75.7683 27.5691 75.0996 26.9004C74.4309 26.2317 73.579 25.7764 72.6515 25.5919C71.7241 25.4074 70.7627 25.5021 69.889 25.864C69.0154 26.2258 68.2687 26.8387 67.7433 27.6249C67.2179 28.4112 66.9375 29.3356 66.9375 30.2813C66.9389 31.5489 67.4431 32.7642 68.3395 33.6605C69.2358 34.5569 70.4511 35.0611 71.7188 35.0625ZM71.7188 28.6875C72.034 28.6875 72.3421 28.781 72.6042 28.9561C72.8663 29.1312 73.0706 29.3801 73.1912 29.6714C73.3118 29.9626 73.3434 30.283 73.2819 30.5922C73.2204 30.9013 73.0686 31.1853 72.8457 31.4082C72.6228 31.6311 72.3388 31.7829 72.0297 31.8444C71.7205 31.9059 71.4001 31.8743 71.1089 31.7537C70.8176 31.6331 70.5687 31.4288 70.3936 31.1667C70.2185 30.9046 70.125 30.5965 70.125 30.2813C70.1255 29.8587 70.2936 29.4536 70.5923 29.1548C70.8911 28.8561 71.2962 28.688 71.7188 28.6875Z" fill="white"/>
<path d="M53.0605 63.2833L66.9375 77.1603V87.6563C66.9375 88.079 67.1054 88.4844 67.4043 88.7834L75.373 96.7521C75.6719 97.0509 76.0773 97.2188 76.5 97.2188H87.6562C88.0789 97.2188 88.4843 97.0509 88.7831 96.7521L96.7519 88.7834C97.0508 88.4844 97.2187 88.079 97.2187 87.6563V76.5001C97.2187 76.0774 97.0508 75.672 96.7519 75.373L88.7831 67.4043C88.4843 67.1055 88.0789 66.9376 87.6562 66.9376H77.1602L61.6894 51.4668L59.4356 53.7208L74.2461 68.5313L68.5312 74.2462L55.3144 61.0293L53.0605 63.2833ZM77.1602 70.1251H86.9961L94.0312 77.1602V86.9962L86.9961 94.0313H77.1601L70.125 86.9962V77.1603L77.1602 70.1251Z" fill="white"/>
<path d="M11.6231 33.002C11.922 33.3009 12.3273 33.4688 12.75 33.4688H23.246L38.7168 48.9395L40.9707 46.6855L26.1601 31.875L31.875 26.1601L48.2793 42.5645L50.5332 40.3105L33.4687 23.246V12.75C33.4687 12.3273 33.3008 11.9219 33.0019 11.623L25.0332 3.65422C24.7343 3.35538 24.3289 3.18749 23.9062 3.1875H12.75C12.4348 3.1875 12.1266 3.28097 11.8645 3.4561C11.6024 3.63124 11.3982 3.88016 11.2775 4.17139C11.1569 4.46262 11.1254 4.78308 11.1869 5.09224C11.2484 5.40141 11.4002 5.68539 11.6231 5.90828L20.7187 15.0039V18.4649L18.4649 20.7188H15.0039L5.90818 11.623C5.68527 11.4001 5.40129 11.2484 5.09214 11.1869C4.78299 11.1254 4.46256 11.157 4.17136 11.2776C3.88015 11.3983 3.63126 11.6025 3.45613 11.8646C3.28101 12.1267 3.18753 12.4348 3.1875 12.75V23.9062C3.1875 24.329 3.35542 24.7344 3.65432 25.0333L11.6231 33.002ZM6.375 16.5976L13.2168 23.4395C13.5157 23.7384 13.9211 23.9063 14.3437 23.9062H19.125C19.5477 23.9063 19.953 23.7384 20.2519 23.4395L23.4394 20.252C23.7383 19.9531 23.9062 19.5477 23.9062 19.125V14.3438C23.9062 13.921 23.7383 13.5156 23.4394 13.2167L16.5976 6.375H23.2461L30.2812 13.4101V23.246L23.246 30.2812H13.4101L6.375 23.2461V16.5976Z" fill="white"/>
<path d="M75.3731 85.5958L78.5606 88.7833C78.8595 89.0821 79.2648 89.25 79.6875 89.25H84.4688C84.8914 89.25 85.2968 89.0821 85.5957 88.7833L88.7832 85.5958C89.0821 85.2969 89.25 84.8915 89.25 84.4688V79.6875C89.25 79.2648 89.0821 78.8594 88.7832 78.5605L85.5957 75.373C85.2968 75.0741 84.8914 74.9062 84.4688 74.9063H79.6875C79.2648 74.9062 78.8595 75.0741 78.5606 75.373L75.3731 78.5605C75.0742 78.8594 74.9063 79.2648 74.9062 79.6875V84.4688C74.9063 84.8915 75.0742 85.2969 75.3731 85.5958ZM78.0938 80.3476L80.3476 78.0938H83.8086L86.0625 80.3476V83.8086L83.8086 86.0625H80.3476L78.0938 83.8086V80.3476Z" fill="white"/>
<path d="M33.0019 30.7484L30.748 33.0024L41.1079 43.3614L43.3617 41.1073L33.0019 30.7484Z" fill="white"/>
<path d="M59.2988 57.0453L57.0449 59.2993L67.4047 69.6582L69.6586 67.4042L59.2988 57.0453Z" fill="white"/>
</svg>
