<svg width="94" height="94" viewBox="0 0 94 94" fill="none" xmlns="http://www.w3.org/2000/svg">
<path d="M17.2323 17.2354H9.39955C8.53443 17.2354 7.83301 17.9368 7.83301 18.8019V26.6346C7.83301 27.4998 8.53443 28.2012 9.39955 28.2012H17.2323C18.0974 28.2012 18.7988 27.4998 18.7988 26.6346V18.8019C18.7988 17.9368 18.0974 17.2354 17.2323 17.2354ZM15.6657 25.0681H10.9661V20.3684H15.6657V25.0681Z" fill="white"/>
<path d="M32.8973 17.2354H25.0646C24.1995 17.2354 23.498 17.9368 23.498 18.8019V26.6346C23.498 27.4998 24.1995 28.2012 25.0646 28.2012H32.8973C33.7624 28.2012 34.4639 27.4998 34.4639 26.6346V18.8019C34.4639 17.9368 33.7624 17.2354 32.8973 17.2354ZM31.3308 25.0681H26.6311V20.3684H31.3308V25.0681Z" fill="white"/>
<path d="M32.8973 32.9009H25.0646C24.1995 32.9009 23.498 33.6023 23.498 34.4674V42.3002C23.498 43.1653 24.1995 43.8667 25.0646 43.8667H32.8973C33.7624 43.8667 34.4639 43.1653 34.4639 42.3002V34.4674C34.4639 33.6023 33.7624 32.9009 32.8973 32.9009ZM31.3308 40.7336H26.6311V36.034H31.3308V40.7336Z" fill="white"/>
<path d="M17.2323 32.9009H9.39955C8.53443 32.9009 7.83301 33.6023 7.83301 34.4674V42.3002C7.83301 43.1653 8.53443 43.8667 9.39955 43.8667H17.2323C18.0974 43.8667 18.7988 43.1653 18.7988 42.3002V34.4674C18.7988 33.6023 18.0974 32.9009 17.2323 32.9009ZM15.6657 40.7336H10.9661V36.034H15.6657V40.7336Z" fill="white"/>
<path d="M46.9967 54.8325H7.83301V57.9656H46.9967V54.8325Z" fill="white"/>
<path d="M39.1639 61.0989H7.83301V64.232H39.1639V61.0989Z" fill="white"/>
<path d="M15.6657 67.365H7.83301V70.4981H15.6657V67.365Z" fill="white"/>
<path d="M46.9961 76.7642H36.0303V79.8973H46.9961V76.7642Z" fill="white"/>
<path d="M42.2965 83.0303H36.0303V86.1634H42.2965V83.0303Z" fill="white"/>
<path d="M67.3612 12.5356C56.1138 12.5356 46.9961 21.6533 46.9961 32.9007C46.9961 44.1482 56.1138 53.2658 67.3612 53.2658C78.6086 53.2658 87.7263 44.1482 87.7263 32.9007C87.7134 21.6588 78.6031 12.5486 67.3612 12.5356ZM67.3612 50.1327C57.8442 50.1327 50.1292 42.4177 50.1292 32.9007C50.1292 23.3838 57.8442 15.6687 67.3612 15.6687C76.8782 15.6687 84.5932 23.3838 84.5932 32.9007C84.582 42.4132 76.8735 50.1216 67.3612 50.1327Z" fill="white"/>
<path d="M93.2496 26.6373C90.3621 14.6828 79.6598 6.26343 67.3615 6.27107C62.9883 6.26852 58.6826 7.34924 54.8291 9.41669V6.27107C54.8291 5.40594 54.1277 4.70452 53.2626 4.70452H40.7302V1.57143C40.7302 0.706304 40.0288 0.00488281 39.1636 0.00488281H17.232C16.3669 0.00488281 15.6655 0.706304 15.6655 1.57143V4.70452H1.56655C0.701421 4.70452 0 5.40594 0 6.27107V92.4311C0 93.2962 0.701421 93.9976 1.56655 93.9976H53.2626C54.1277 93.9976 54.8291 93.2962 54.8291 92.4311V56.388C56.8088 57.4407 58.9145 58.2371 61.0953 58.7582V92.4311C61.0953 93.2962 61.7967 93.9976 62.6618 93.9976H72.0611C72.9262 93.9976 73.6277 93.2962 73.6277 92.4311V58.7582C87.9161 55.3067 96.7011 40.9258 93.2496 26.6373ZM18.7985 3.13797H37.5971V9.40416H18.7985V3.13797ZM51.696 90.8645H3.13309V7.83761H15.6655V10.9707C15.6655 11.8358 16.3669 12.5372 17.232 12.5372H39.1636C40.0288 12.5372 40.7302 11.8358 40.7302 10.9707V7.83761H51.696V11.414C39.8283 20.0142 37.1794 36.6064 45.7796 48.4742C47.4264 50.7469 49.4235 52.7438 51.696 54.3907V90.8645ZM70.4946 90.8645H64.2284V87.7315H70.4946V90.8645ZM70.4946 84.5984H64.2284V59.3331C66.3086 59.6004 68.4144 59.6004 70.4946 59.3331V84.5984ZM67.3615 56.4005C54.3838 56.4005 43.8633 45.88 43.8633 32.9023C43.8633 19.9247 54.3838 9.40416 67.3615 9.40416C80.3391 9.40416 90.8597 19.9247 90.8597 32.9023C90.845 45.8739 80.3331 56.3859 67.3615 56.4005Z" fill="white"/>
<path d="M46.9965 61.0989H42.2969V64.232H46.9965V61.0989Z" fill="white"/>
<path d="M46.9967 67.365H18.7988V70.4981H46.9967V67.365Z" fill="white"/>
<path d="M74.008 24.0391L58.5 39.5471L60.7154 41.7625L76.2234 26.2545L74.008 24.0391Z" fill="white"/>
<path d="M75.1136 31.7861L66.252 40.6477L68.4674 42.8631L77.329 34.0015L75.1136 31.7861Z" fill="white"/>
<path d="M66.2493 22.9316L57.3877 31.7932L59.6031 34.0086L68.4647 25.147L66.2493 22.9316Z" fill="white"/>
</svg>
