<svg width="102" height="102" viewBox="0 0 102 102" fill="none" xmlns="http://www.w3.org/2000/svg">
<path d="M100.3 84.9999H95.2V28.8999C95.1942 24.2075 91.3924 20.4057 86.7 20.3999V23.7999C89.5165 23.7999 91.8 26.0834 91.8 28.8999V84.9999H10.2V28.8999C10.2 26.0834 12.4835 23.7999 15.3 23.7999V20.3999C10.6076 20.4057 6.80581 24.2075 6.8 28.8999V84.9999H1.7C0.761182 84.9999 0 85.7611 0 86.6999V93.4999C0 96.3163 2.28355 98.5999 5.1 98.5999H96.9C99.7165 98.5999 102 96.3163 102 93.4999V86.6999C102 85.7611 101.239 84.9999 100.3 84.9999ZM44.2 88.3999H57.8V90.0999H44.2V88.3999ZM98.6 93.4999C98.6 94.4387 97.8388 95.1999 96.9 95.1999H5.1C4.16118 95.1999 3.4 94.4387 3.4 93.4999V88.3999H40.8V90.0999C40.8 91.9775 42.3224 93.4999 44.2 93.4999H57.8C59.6776 93.4999 61.2 91.9775 61.2 90.0999V88.3999H98.6V93.4999Z" fill="white"/>
<path d="M23.8002 61.1999H78.2002C81.0167 61.1999 83.3002 58.9164 83.3002 56.0999V8.4999C83.3002 5.68345 81.0167 3.3999 78.2002 3.3999H23.8002C20.9837 3.3999 18.7002 5.68345 18.7002 8.4999V56.0999C18.7002 58.9164 20.9837 61.1999 23.8002 61.1999ZM78.2002 57.7999H23.8002C22.8614 57.7999 22.1002 57.0387 22.1002 56.0999V16.9999H79.9002V56.0999C79.9002 57.0387 79.139 57.7999 78.2002 57.7999ZM23.8002 6.7999H78.2002C79.139 6.7999 79.9002 7.56108 79.9002 8.4999V13.5999H22.1002V8.4999C22.1002 7.56108 22.8614 6.7999 23.8002 6.7999Z" fill="white"/>
<path d="M25.5 8.5H28.9V11.9H25.5V8.5Z" fill="white"/>
<path d="M32.2998 8.5H35.6998V11.9H32.2998V8.5Z" fill="white"/>
<path d="M39.0996 8.5H42.4996V11.9H39.0996V8.5Z" fill="white"/>
<path d="M56.6225 34.5713L51.1872 30.9405C50.1429 30.2432 48.799 30.1785 47.6925 30.7728C46.586 31.3663 45.8971 32.5218 45.9004 33.7777V41.0226C45.8971 42.2777 46.586 43.4324 47.6925 44.0267C48.7982 44.6202 50.1413 44.5563 51.1855 43.8598L56.6258 40.2374C57.5713 39.6065 58.1391 38.5457 58.1391 37.4085C58.1391 36.2721 57.5713 35.2104 56.6258 34.5796L56.6225 34.5713ZM49.3004 41.0351V33.7777L54.7407 37.4002L49.3004 41.0351Z" fill="white"/>
<path d="M51.0002 22.1001C42.55 22.1001 35.7002 28.9499 35.7002 37.4001C35.7002 45.8503 42.55 52.7001 51.0002 52.7001C59.4504 52.7001 66.3002 45.8503 66.3002 37.4001C66.2902 28.9541 59.4462 22.1101 51.0002 22.1001ZM51.0002 49.3001C44.4276 49.3001 39.1002 43.9727 39.1002 37.4001C39.1002 30.8275 44.4276 25.5001 51.0002 25.5001C57.5728 25.5001 62.9002 30.8275 62.9002 37.4001C62.8927 43.9693 57.5694 49.2926 51.0002 49.3001Z" fill="white"/>
<path d="M45.8996 68C43.7464 68.0091 41.8306 69.3696 41.1125 71.4H30.5996V74.8H41.1125C41.8223 76.837 43.7431 78.2017 45.8996 78.2017C48.0562 78.2017 49.977 76.837 50.6867 74.8H83.2996V71.4H50.6867C49.9687 69.3696 48.0528 68.0091 45.8996 68ZM45.8996 74.8C44.9608 74.8 44.1996 74.0388 44.1996 73.1C44.1996 72.1612 44.9608 71.4 45.8996 71.4C46.8384 71.4 47.5996 72.1612 47.5996 73.1C47.5996 74.0388 46.8384 74.8 45.8996 74.8Z" fill="white"/>
<path d="M23.7998 69.7H27.1998V76.4999H23.7998V69.7Z" fill="white"/>
<path d="M18.7002 69.7H22.1002V76.4999H18.7002V69.7Z" fill="white"/>
<path d="M27.2002 35.7H30.6002V39.1H27.2002V35.7Z" fill="white"/>
<path d="M27.2002 28.8999H30.6002V32.2999H27.2002V28.8999Z" fill="white"/>
<path d="M27.2002 42.5H30.6002V45.9H27.2002V42.5Z" fill="white"/>
</svg>
