<svg width="17" height="18" viewBox="0 0 17 18" fill="none" xmlns="http://www.w3.org/2000/svg">
<path fill-rule="evenodd" clip-rule="evenodd" d="M8.50033 1.91699C12.4123 1.91699 15.5837 5.08831 15.5837 9.00033C15.5837 12.9123 12.4123 16.0837 8.50033 16.0837C4.58831 16.0837 1.41699 12.9123 1.41699 9.00033C1.41699 5.08831 4.58831 1.91699 8.50033 1.91699ZM8.50033 3.33366C5.37071 3.33366 2.83366 5.87071 2.83366 9.00033C2.83366 12.1299 5.37071 14.667 8.50033 14.667C11.6299 14.667 14.167 12.1299 14.167 9.00033C14.167 5.87071 11.6299 3.33366 8.50033 3.33366ZM8.50033 4.75033C8.86358 4.75033 9.16298 5.02377 9.20389 5.37605L9.20866 5.45866V8.70692L10.4179 9.91613C10.6945 10.1927 10.6945 10.6412 10.4179 10.9179C10.1625 11.1732 9.76073 11.1928 9.48285 10.9768L9.41613 10.9179L7.99946 9.50119C7.88876 9.39049 7.81849 9.24693 7.79814 9.09343L7.79199 9.00033V5.45866C7.79199 5.06746 8.10912 4.75033 8.50033 4.75033Z" fill="white"/>
</svg>
