<svg width="17" height="18" viewBox="0 0 17 18" fill="none" xmlns="http://www.w3.org/2000/svg">
<path fill-rule="evenodd" clip-rule="evenodd" d="M13.4587 3.33301C14.6323 3.33301 15.5837 4.2844 15.5837 5.45801V12.5413C15.5837 13.7149 14.6323 14.6663 13.4587 14.6663H3.54199C2.36839 14.6663 1.41699 13.7149 1.41699 12.5413V5.45801C1.41699 4.2844 2.36839 3.33301 3.54199 3.33301H13.4587ZM14.167 5.69034L8.96677 10.2411C8.72196 10.4553 8.36649 10.4731 8.10324 10.2946L8.03389 10.2411L2.83366 5.69105V12.5413C2.83366 12.9325 3.15079 13.2497 3.54199 13.2497H13.4587C13.8499 13.2497 14.167 12.9325 14.167 12.5413V5.69034ZM13.0903 4.74967H3.90891L8.50033 8.7668L13.0903 4.74967Z" fill="white"/>
</svg>
