<svg width="19" height="20" viewBox="0 0 19 20" fill="none" xmlns="http://www.w3.org/2000/svg">
<path fill-rule="evenodd" clip-rule="evenodd" d="M7.56381 8.28338C7.78405 8.13655 7.91634 7.88937 7.91634 7.62467V4.45801C7.91634 3.14633 6.85302 2.08301 5.54134 2.08301H2.37467C1.93745 2.08301 1.58301 2.43745 1.58301 2.87467C1.58301 10.7447 8.75462 17.9163 16.6247 17.9163C17.0619 17.9163 17.4163 17.5619 17.4163 17.1247V13.958C17.4163 12.6463 16.353 11.583 15.0413 11.583H11.8747C11.61 11.583 11.3628 11.7153 11.216 11.9355L9.70757 14.1981C8.06469 13.1359 6.62533 11.7328 5.51818 10.1176L5.30122 9.79178L7.56381 8.28338ZM12.2984 13.1663H15.0413C15.4786 13.1663 15.833 13.5208 15.833 13.958V16.3056C14.2994 16.1994 12.8026 15.7893 11.4066 15.1388L11.0863 14.9845L12.2984 13.1663ZM3.19379 3.66634H5.54134C5.97857 3.66634 6.33301 4.02078 6.33301 4.45801V7.20099L4.51485 8.41309C3.77499 6.92678 3.30808 5.31796 3.19379 3.66634Z" fill="#B89C52"/>
</svg>
