<svg width="39" height="40" viewBox="0 0 39 40" fill="none" xmlns="http://www.w3.org/2000/svg">
<path fill-rule="evenodd" clip-rule="evenodd" d="M15.327 16.5226C15.7733 16.2251 16.0413 15.7242 16.0413 15.1878V8.77118C16.0413 6.11331 13.8867 3.95868 11.2288 3.95868H4.81217C3.92622 3.95868 3.20801 4.67689 3.20801 5.56285C3.20801 21.5101 17.74 36.042 33.6872 36.042C34.5731 36.042 35.2913 35.3238 35.2913 34.4378V28.0212C35.2913 25.3633 33.1367 23.2087 30.4788 23.2087H24.0622C23.5258 23.2087 23.0249 23.4767 22.7274 23.923L19.6709 28.5078C16.3419 26.3552 13.4253 23.5121 11.1819 20.2393L10.7423 19.5791L15.327 16.5226ZM24.9207 26.417H30.4788C31.3648 26.417 32.083 27.1352 32.083 28.0212V32.7781C28.9753 32.563 25.9425 31.7319 23.1137 30.4139L22.4646 30.1012L24.9207 26.417ZM6.47196 7.16701H11.2288C12.1148 7.16701 12.833 7.88522 12.833 8.77118V14.3293L9.14885 16.7854C7.64966 13.7737 6.70354 10.5137 6.47196 7.16701Z" fill="white"/>
</svg>
