<svg width="45" height="44" viewBox="0 0 45 44" fill="none" xmlns="http://www.w3.org/2000/svg">
<path fill-rule="evenodd" clip-rule="evenodd" d="M38.9007 31.1663C39.9132 31.1663 40.734 31.9871 40.734 32.9997C40.734 34.0122 39.9132 34.833 38.9007 34.833H5.90072C4.88819 34.833 4.06738 34.0122 4.06738 32.9997C4.06738 31.9871 4.88819 31.1663 5.90072 31.1663H38.9007ZM38.9007 20.1663C39.9132 20.1663 40.734 20.9871 40.734 21.9997C40.734 23.0122 39.9132 23.833 38.9007 23.833H5.90072C4.88819 23.833 4.06738 23.0122 4.06738 21.9997C4.06738 20.9871 4.88819 20.1663 5.90072 20.1663H38.9007ZM38.9007 9.16632C39.9132 9.16632 40.734 9.98713 40.734 10.9997C40.734 12.0122 39.9132 12.833 38.9007 12.833H5.90072C4.88819 12.833 4.06738 12.0122 4.06738 10.9997C4.06738 9.98713 4.88819 9.16632 5.90072 9.16632H38.9007Z" fill="white"/>
</svg>
