<svg width="36" height="36" viewBox="0 0 36 36" fill="none" xmlns="http://www.w3.org/2000/svg">
<path fill-rule="evenodd" clip-rule="evenodd" d="M12.8962 28.2087C14.1043 28.2087 15.0837 29.188 15.0837 30.3962C15.0837 31.6043 14.1043 32.5837 12.8962 32.5837C11.688 32.5837 10.7087 31.6043 10.7087 30.3962C10.7087 29.188 11.688 28.2087 12.8962 28.2087ZM26.0212 28.2087C27.2293 28.2087 28.2087 29.188 28.2087 30.3962C28.2087 31.6043 27.2293 32.5837 26.0212 32.5837C24.813 32.5837 23.8337 31.6043 23.8337 30.3962C23.8337 29.188 24.813 28.2087 26.0212 28.2087ZM4.87533 3.41699H7.79199C8.45641 3.41699 9.02911 3.86447 9.19937 4.49286L9.23337 4.65358L9.94056 9.25033H31.1253C32 9.25033 32.6638 10.0096 32.5765 10.855L32.5489 11.025L30.1398 21.8661C29.7143 23.7808 28.0714 25.1671 26.1348 25.284L25.869 25.292H13.2109C11.1379 25.292 9.36257 23.84 8.93336 21.8356L8.8868 21.5822L6.54086 6.33366H4.87533C4.06991 6.33366 3.41699 5.68074 3.41699 4.87533C3.41699 4.12744 3.97997 3.51104 4.70525 3.4268L4.87533 3.41699H7.79199H4.87533ZM29.3073 12.167H10.3893L11.7695 21.1387C11.8706 21.7954 12.3999 22.2934 13.0469 22.3662L13.2109 22.3753H25.869C26.4956 22.3753 27.0451 21.9764 27.2465 21.396L27.2926 21.2334L29.3073 12.167Z" fill="white"/>
</svg>
