<svg width="18" height="18" viewBox="0 0 18 18" fill="none" xmlns="http://www.w3.org/2000/svg">
<path fill-rule="evenodd" clip-rule="evenodd" d="M9.00033 0.666748C13.6027 0.666748 17.3337 4.39771 17.3337 9.00008C17.3337 13.6025 13.6027 17.3334 9.00033 17.3334C4.39795 17.3334 0.666992 13.6025 0.666992 9.00008C0.666992 4.39771 4.39795 0.666748 9.00033 0.666748ZM9.00033 2.33341C5.31843 2.33341 2.33366 5.31818 2.33366 9.00008C2.33366 12.682 5.31843 15.6667 9.00033 15.6667C12.6822 15.6667 15.667 12.682 15.667 9.00008C15.667 5.31818 12.6822 2.33341 9.00033 2.33341ZM11.7444 5.91083L7.33366 10.3216L6.25625 9.24416C5.93081 8.91872 5.40317 8.91872 5.07774 9.24416C4.7523 9.5696 4.7523 10.0972 5.07774 10.4227L6.7444 12.0893C7.06984 12.4148 7.59748 12.4148 7.92291 12.0893L12.9229 7.08934C13.2484 6.7639 13.2484 6.23626 12.9229 5.91083C12.5975 5.58539 12.0698 5.58539 11.7444 5.91083Z" fill="white"/>
</svg>
