<svg width="1110" height="1217" viewBox="0 0 1110 1217" fill="none" xmlns="http://www.w3.org/2000/svg">
<g clip-path="url(#clip0)">
<path d="M1462.7 1171.45C1468.34 1168.64 1468.49 1167.84 1466.17 1152.93C1464.85 1144.35 1461.95 1134.11 1459.74 1130.18C1456.22 1123.94 1456.36 1122.14 1460.77 1116.27C1463.58 1112.56 1467.2 1109.59 1468.82 1109.66C1470.47 1109.74 1474.26 1110.03 1477.27 1110.34C1483.87 1111.01 1488.83 1101.28 1486.07 1093.07C1484.65 1088.87 1485.31 1086.07 1488.29 1083.5C1492.57 1079.81 1492.54 1079.38 1486.44 1057.76C1484.64 1051.32 1485.01 1048.51 1488.09 1045.88C1491.19 1043.21 1491.26 1041.44 1488.37 1038.08C1486.33 1035.69 1485.15 1030.68 1485.78 1026.92C1486.42 1023.16 1485.97 1019.93 1484.77 1019.73C1482.25 1019.31 1471.98 1029.95 1472.25 1032.69C1472.34 1033.69 1468.93 1035.69 1464.66 1037.11C1460.4 1038.55 1455.65 1042.59 1454.11 1046.09C1452.59 1049.6 1450.27 1052.28 1448.97 1052.06C1447.68 1051.84 1444.45 1053.22 1441.79 1055.1C1434.73 1060.11 1426.36 1055.04 1422.41 1043.33C1419.93 1036.07 1416.81 1032.67 1411.52 1031.54C1407.44 1030.67 1399.28 1028.64 1393.4 1027.07C1387.5 1025.46 1381.91 1025.05 1380.94 1026.14C1378.38 1029.06 1368.44 1024.67 1361.17 1017.42C1352.17 1008.43 1349.8 1006.5 1343.7 1003.1C1338.58 1000.26 1338.65 1000.07 1345.33 999.453L1352.33 998.815L1346.25 989.536C1342.91 984.44 1340.38 979.037 1340.63 977.543C1340.88 976.048 1339.75 974.603 1338.1 974.324C1336.45 974.045 1332.17 969.925 1328.58 965.192C1322.45 957.12 1320.65 956.431 1300.26 954.425C1269.04 951.341 1265.35 951.366 1264.77 954.565C1264.49 956.135 1259.27 959.584 1253.17 962.214C1240.53 967.667 1238.58 972.192 1245.99 978.742C1251.72 983.836 1250.81 997.599 1244.45 1002.13C1242.26 1003.68 1238.9 1013.63 1236.93 1024.34C1233.79 1041.41 1232.25 1044.57 1223.94 1050.89L1214.5 1058.06L1202.58 1051.35C1192.81 1045.86 1189.65 1045.15 1185.03 1047.46C1180.44 1049.76 1178.11 1049.31 1172.29 1044.95C1165.9 1040.15 1164.06 1040.04 1153.94 1043.89C1147.77 1046.27 1141.46 1051.05 1139.95 1054.54C1137.98 1059 1134.3 1060.91 1127.46 1061.05C1122.12 1061.14 1115.03 1063.36 1111.72 1065.98C1108.41 1068.59 1104.5 1069.69 1103.05 1068.42C1101.59 1067.14 1092.93 1065.11 1083.79 1063.89C1069.98 1062.09 1066.39 1060.49 1062.4 1054.48C1059.3 1049.77 1055.46 1047.42 1051.44 1047.77C1047.27 1048.14 1044.6 1046.37 1043.23 1042.36C1040.73 1034.88 1020.53 1030.78 1007.3 1035.06C1002.4 1036.66 995.98 1037.56 993.066 1037.09C987.045 1036.09 973.76 1017.61 974.766 1011.65C975.486 1007.38 962.707 996.569 955.509 995.354C948.409 994.155 931.682 980.005 930.429 974.13C929.503 969.786 929.037 970.031 927.95 975.512C927.205 979.209 922.719 985.531 917.996 989.548C909.025 997.157 904.878 1009.87 909.305 1016.12C911.135 1018.69 909.389 1021.49 903.182 1025.91C896.102 1030.94 892.776 1031.47 885.483 1028.78C880.552 1026.96 875.151 1023.97 873.515 1022.15C871.856 1020.35 869.209 1019.38 867.62 1020.04C864.342 1021.37 858.376 1012.62 856.92 1004.34C856.198 1000.24 853.512 998.65 846.457 998.146C841.241 997.772 835.926 995.702 834.672 993.548C832.914 990.541 828.448 990.394 815.576 992.955C806.345 994.795 795.136 995.533 790.682 994.599C784.857 993.393 782.793 994.117 783.417 997.135C784.378 1001.87 779.486 1003.41 763.917 1003.25C758.104 1003.18 752.361 1003.52 751.167 1004.01C749.972 1004.5 746.543 1001.21 743.539 996.715C740.26 991.813 734.206 987.535 728.3 985.972C719.973 983.777 718.344 981.925 717.42 973.617C716.811 968.235 714.591 963.532 712.447 963.17C710.028 962.761 709.107 959.228 710.014 953.859C711.205 946.799 709.775 944.008 702.214 938.707C695.613 934.073 691.92 932.944 689.349 934.756C683.672 938.794 675.269 933.33 672.128 923.536C669.114 914.066 661.302 910.138 660.07 917.435C659.669 919.815 657.416 921.417 655.056 921.018C651.673 920.448 651.413 916.358 653.809 902.158C655.492 892.187 655.996 876.859 654.922 868.121C653.851 859.364 653.667 851.707 654.541 851.086C655.391 850.481 653.557 846.126 650.468 841.418C643.503 830.796 643.769 828.859 652.352 827.617C658.279 826.777 657.727 826.097 648.215 822.53C640.322 819.559 635.975 819.311 632.688 821.648C628.113 824.902 617.224 822.902 608.124 817.139C604.302 814.734 604.157 813.678 607.458 812.333C610.76 810.989 610.589 809.484 606.659 805.321C603.914 802.41 600.1 799.724 598.199 799.362C596.281 798.978 595.771 796.849 597.094 794.645C598.824 791.701 597.447 790.275 591.979 789.352C584.84 788.147 582.855 782.533 588.214 778.704C589.547 777.756 591.673 772.592 592.946 767.204C594.822 759.207 594.239 757.268 589.676 756.498C586.608 755.98 581.998 752.613 579.448 749.027C575.737 743.809 572.991 742.699 565.733 743.517C555.815 744.634 530.861 735.73 502.836 721.048C493.897 716.363 484.724 712.226 482.482 711.848C480.24 711.469 476.478 708.71 474.114 705.702C471.746 702.713 468.464 700.824 466.837 701.48C461.95 703.467 457.914 717.673 460.73 722.922C462.974 727.124 462.744 727.166 459.113 723.155C452.471 715.885 441.425 716.852 440.921 724.757C440.476 732.186 432.448 732.531 427.121 725.381C424.571 721.917 423.932 723.306 423.627 732.903C422.853 758.582 422.744 759.11 417.579 759.27C414.791 759.366 410.264 755.75 407.522 751.261C404.764 746.75 400.839 743.398 398.766 743.817C393.908 744.797 390.118 738.008 390.38 728.788C390.51 724.299 388.468 720.698 385.08 719.439C382.037 718.298 378.218 714.559 376.572 711.125C374.901 707.607 371.633 705.275 369.1 705.778C366.607 706.288 361.583 705.379 357.93 703.772C352.862 701.561 351.605 698.942 352.654 692.727C354.33 682.795 350.544 678.738 345.39 684.947C342.494 688.443 342.371 686.299 344.864 675.959C347.533 664.94 347.215 661.67 343.169 658.56C340.451 656.443 338.674 653.19 339.229 651.341C341.715 643.083 340.481 640.327 334.222 640.14C329.291 639.995 327.655 638.303 327.786 633.451C327.932 627.67 326.685 626.913 316.396 626.633C309.612 626.439 305.021 625.118 305.303 623.446C305.568 621.873 300.25 619.944 293.488 619.146C283.43 617.975 280.844 618.792 279.284 623.606C278.231 626.847 275.349 629.9 272.856 630.41C267.873 631.409 265.31 624.302 268.63 618.652C272.648 611.867 268.242 608.129 255.753 607.7C246.258 607.392 242.97 608.658 240.838 613.496C238.041 619.882 225.613 623.407 226.602 617.546C226.905 615.757 224.61 616.886 221.508 620.044C217.191 624.413 216.478 626.841 218.467 630.272C220.487 633.768 219.795 635.229 215.401 636.814C210.082 638.728 210.064 639.311 215.385 646.257C219.228 651.295 220.176 655.501 218.348 659.501C216.876 662.711 215.392 666.951 215.04 668.914C214.669 670.874 212.45 672.159 210.09 671.76C204.897 670.884 202.598 681.034 207.088 684.988C214.24 691.272 195.017 688.675 184.345 681.918C174.698 675.799 172.282 675.25 164.946 677.612C160.345 679.101 155.717 680.039 154.662 679.7C145.712 676.874 142.469 678.592 141.741 686.5C141.322 691.142 138.999 696.636 136.585 698.717C132.942 701.844 133.064 703.159 137.251 706.394C140.024 708.541 143.242 709.61 144.411 708.796C145.583 707.962 146.273 708.787 145.961 710.635C145.626 712.622 140.814 713.205 134.147 712.08C121.954 710.022 122.884 708.945 113.421 735.889C110.654 743.776 108.4 746.106 104.151 745.389C92.1938 743.371 88.3272 737.277 90.5711 723.982C91.7429 717.04 91.4715 710.258 89.9758 708.933C88.4603 707.606 88.0399 703.145 89.0026 698.999C93.6532 679.355 93.09 674.182 85.6591 668.114C79.5606 663.141 78.3972 659.607 79.0344 647.922C79.4799 640.128 78.4551 633.017 76.7846 632.129C72.7198 629.966 67.8058 614.067 69.0074 606.948C69.5385 603.801 67.8175 599.101 65.1819 596.512C61.0895 592.464 61.007 586.624 64.61 556.264L68.8276 520.728L74.497 529.372C79.4936 536.991 80.9454 537.701 86.7548 535.304C92.0615 533.105 94.3659 533.473 98.503 537.125C103.111 541.22 103.761 540.966 104.827 534.652C105.477 530.798 107.426 527.041 109.182 526.346C110.921 525.628 112.176 526.103 111.983 527.365C111.608 529.709 123.813 539.131 128.14 539.861C132.486 540.595 131.845 531.931 127.304 528.272C123.281 525.024 123.312 524.483 127.583 523.626C133.596 522.396 146.942 529.968 146.228 534.196C145.521 538.386 158.385 536.592 162.241 531.963C163.865 530.013 167.074 528.734 169.356 529.119C171.657 529.507 173.718 528.682 173.953 527.285C174.189 525.889 177.071 524.515 180.377 524.223C187.772 523.55 191.012 508.906 186.688 495.574C185.108 490.675 185.05 483.829 186.566 480.363C188.898 475.052 188.026 473.509 181.152 470.731C174.088 467.88 173.249 466.262 175.087 458.967C176.257 454.309 180.411 448.396 184.328 445.801C192.839 440.198 193.166 438.979 188.781 429.723C185.568 422.991 185.812 422.506 193.098 421.046C197.68 420.14 202.16 416.487 204.094 412.1C206.829 405.846 205.907 402.798 198.277 392.995L189.179 381.346L198.571 374.354C209.671 366.114 211.763 366.063 212.478 374.052C212.869 378.446 215.423 380.455 222.05 381.574C227.951 382.57 230.618 381.867 229.688 379.586C227.685 374.676 238.389 354.637 246.508 348.119C250.233 345.107 255.783 342.302 258.847 341.888C264.649 341.067 268.661 329.163 264.376 325.426C263.11 324.302 263.113 321.046 264.381 318.205C265.672 315.349 265.463 311.915 263.928 310.584C259.755 306.906 261.875 299.74 266.89 300.586C269.289 300.991 273.275 298.346 275.732 294.695C278.209 291.048 281.939 288.36 284.063 288.718C286.168 289.074 288.108 288.127 288.366 286.593C288.622 285.078 291.876 282.816 295.564 281.577C301.31 279.655 301.926 279.961 299.747 283.639C296.322 289.432 301.223 289.996 307.009 284.48C309.538 282.075 318.301 278.214 326.474 275.932C342.632 271.398 349.51 273.914 353.479 285.749C357.009 296.236 361.168 293.762 361.283 281.099C361.352 272.899 362.415 269.477 364.775 269.876C366.663 270.194 367.555 268.868 366.765 266.955C365.838 264.655 367.105 264.342 370.439 266.038C381.239 271.562 406.005 279.788 417.785 281.776C430.097 283.854 441.914 279.274 439.513 273.367C437.281 267.893 443.639 259.945 450.174 260.057C453.745 260.113 456.604 258.512 456.536 256.519C456.471 254.505 458.998 253.314 462.145 253.845C465.685 254.442 468.213 252.887 468.754 249.802C469.59 244.967 482.38 239.541 489.952 240.819C491.977 241.16 496.489 238.281 499.995 234.403C508.793 224.702 515.013 221.645 523.457 222.909C533.537 224.428 537.296 222.17 541.281 212.223C544.191 204.927 546.401 203.58 555.352 203.635C563.133 203.673 567.756 205.526 572.792 210.563C576.565 214.335 580.403 216.884 581.302 216.227C582.219 215.592 584.34 217.407 585.996 220.296C587.986 223.726 587.922 226.022 585.779 226.975C581.496 228.861 576.35 240.655 579.576 241.199C580.952 241.432 583.139 244.774 584.43 248.633C587.324 257.253 576.462 317.053 571.18 321.622C569.173 323.327 562.477 325.372 556.278 326.146C546.983 327.288 543.895 326.524 538.77 321.776C529.446 313.143 525.05 282.504 529.447 256.931C530.87 248.736 525.548 250.427 519.443 260.117C513.666 269.296 513.359 270.033 511.533 278.221C510.526 282.743 507.645 285.433 503.201 285.998C491.538 287.508 481.621 295.807 479.988 305.483C479.155 310.419 476.678 315.746 474.452 317.312C471.809 319.192 471.491 320.352 473.537 320.697C475.248 320.986 476.894 323.934 477.189 327.22C477.779 333.914 484.942 336.417 489.451 331.515C491.064 329.744 492.92 325.101 493.577 321.207C494.327 316.763 496.69 314.026 499.881 313.938C503.964 313.838 504.593 315.744 502.99 323.443C498.973 342.811 510.831 354.764 519.122 339.678C523.585 331.572 523.709 331.552 539.285 336.224C548.755 339.076 556.036 343.036 557.656 346.263C559.175 349.25 559.107 351.807 557.5 352.102C552.724 352.955 556.648 358.35 562.784 359.386C569.687 360.551 576.674 356.066 579.414 348.701C580.528 345.693 584.271 343.412 587.937 343.505C591.524 343.584 597.474 340.927 601.15 337.604C605.382 333.746 609.424 332.446 612.126 334.055C617.166 337.03 617.077 338.876 611.421 348.54C608.219 353.967 606.437 354.819 604.036 352.027C598.471 345.566 588.536 348.703 585.576 357.852C582.029 368.803 587.282 376.507 597.757 375.685C616.447 374.248 639.391 380.204 645.408 388.057C648.427 391.984 651.509 393.738 652.81 392.259C654.039 390.848 657.756 390.161 661.06 390.718C666.862 391.698 666.868 391.901 660.966 396.548C655.852 400.6 655.338 402.213 657.86 406.562C659.696 409.704 663.414 411.525 667.409 411.228C671.531 410.893 675.321 412.887 677.723 416.63C680.073 420.324 684.918 422.902 690.51 423.441C698.628 424.245 699.252 424.977 696.719 430.759C694.321 436.22 694.915 437.251 700.6 437.604C710.252 438.181 714.819 435.695 715.911 429.225C717.647 418.939 725.456 421.208 734.115 434.502C742.322 447.114 745.6 457.174 742.313 459.511C741.371 460.182 742.705 463.663 745.255 467.249C747.802 470.855 750.014 477.762 750.168 482.602C750.303 487.439 752.055 491.679 754.021 492.011C759.941 493.01 766.016 485.903 765.056 479.127C764.558 475.604 766.013 471.177 768.309 469.198C771.246 466.66 771.53 465.454 769.249 465.069C764.194 464.216 766.916 455.998 774.561 449.055C778.385 445.574 782.03 439.676 782.661 435.94C783.474 431.121 785.438 429.43 789.411 430.1C792.479 430.618 802.135 426.261 810.846 420.429C819.577 414.6 826.987 409.884 827.341 409.944C827.695 410.003 831.082 411.869 834.874 414.087C844.169 419.54 842.166 429.133 829.483 439.918C822.207 446.113 819.496 450.551 819.649 456.119C819.757 460.87 817.807 465.234 814.497 467.588C811.555 469.681 808.972 472.522 808.736 473.918C808.5 475.314 804.779 481.422 800.481 487.473C795.545 494.427 792.875 501.258 793.233 505.971C793.658 511.363 792.41 513.721 788.746 514.458C785.941 515.016 784.057 517.429 784.531 519.774C785.057 522.412 782.495 524.649 777.807 525.577C773.645 526.392 770.024 528.309 769.772 529.804C769.519 531.299 764.789 533.919 759.247 535.593C749.887 538.443 749.005 538.274 746.402 533.081C744.857 530.008 743.424 528.553 743.208 529.831C742.993 531.11 741.139 530.23 739.11 527.865C736.879 525.264 735.208 524.739 734.903 526.548C733.668 533.865 737.046 539.856 745.403 545.109C753.499 550.238 755.748 550.456 768.283 547.252C786.416 542.646 799.986 533.548 802.261 524.506C804.655 514.999 808.204 512.786 815.706 516.156C822.716 519.321 824.972 532.203 819.245 536.293C814.556 539.628 812.183 552.011 816.096 552.672C817.67 552.937 821.224 556.328 823.97 560.19L828.973 567.224L827.984 560.139C827.428 556.243 825.182 551.211 822.977 548.938C819.338 545.209 819.514 544.409 824.883 540.157C828.148 537.593 831.28 532.701 831.854 529.298C833.122 521.786 824.552 506.888 818.307 505.773C815.833 505.335 812.338 503.633 810.511 501.99C806.384 498.279 812.997 485.944 823.329 478.06C828.317 474.27 830.418 469.972 830.777 462.811C831.28 452.884 836.26 446.867 843.005 448.006C844.913 448.327 849.543 446.783 853.295 444.564C859.94 440.669 859.98 440.676 854.687 445.547C851.698 448.279 848.196 454.646 846.9 459.687C844.989 467.172 845.817 469.699 851.39 473.471C855.13 476.004 858.015 479.161 857.793 480.478C857.567 481.816 859.292 483.219 861.613 483.611C867.021 484.524 865.509 475.389 859.184 469.001C853.654 463.416 854.348 455.826 860.307 456.832C862.687 457.234 864.398 458.837 864.133 460.411C863.864 462.004 865.733 463.634 868.29 464.065C871.456 464.6 872.774 463.022 872.409 459.077C872.05 454.849 873.285 453.642 877.054 454.561C879.889 455.262 881.398 456.751 880.418 457.88C879.442 458.99 880.623 460.261 883.042 460.669C885.481 461.081 887.729 464.778 888.062 468.92C888.43 473.452 891.238 477.547 895.231 479.293C903.215 482.805 903.149 486.434 895.038 487.149C890.952 487.511 888.655 490.097 887.775 495.308C886.965 500.107 887.774 502.388 889.966 501.504C892.03 500.659 891.462 502.586 888.539 506.239C885.84 509.647 883.809 513.774 884.055 515.434C884.555 519.058 884.914 526.522 884.704 529.561C884.504 532.784 893.09 533.687 893.628 530.501C893.877 529.026 892.973 526.83 891.618 525.631C890.031 524.25 890.575 521.025 893.132 516.662C895.32 512.926 897.764 505.996 898.564 501.256C899.36 496.536 901.875 490.265 904.15 487.331C907.129 483.465 907.547 480.987 905.671 478.324C904.229 476.321 903.367 472.797 903.749 470.536C904.134 468.254 902.761 464.645 900.716 462.499C898.036 459.68 897.979 455.706 900.496 448.343L904.022 438.117L923.685 441.941C937.553 444.625 943.168 446.827 942.727 449.443C942.269 452.157 943.648 452.613 947.96 451.156C952.396 449.679 954.124 446.391 955.093 437.654C955.958 429.891 957.796 425.832 960.709 425.232C963.094 424.765 964.53 423.085 963.884 421.52C962.243 417.461 982.105 412.439 992.745 414.234C998.094 415.137 1002.7 414.114 1004.11 411.723C1006.77 407.256 1014.77 407.413 1014.01 411.917C1013.74 413.51 1015.85 415.18 1018.68 415.658C1025.11 416.744 1040.37 412.725 1040.9 409.821C1041.12 408.645 1044.3 408.169 1047.97 408.79C1053.68 409.752 1054.66 408.705 1054.83 401.472C1055.06 390.75 1071.37 378.373 1076.87 384.762C1079.57 387.908 1079.44 388.957 1076.08 390.413C1072.76 391.836 1072.7 392.898 1075.76 395.741C1077.88 397.696 1081.21 399.572 1083.19 399.946C1085.15 400.298 1086.32 403.166 1085.79 406.333C1084.66 413.039 1089.66 414.896 1093.12 409.046C1096.8 402.811 1109.22 406.525 1118.75 416.69C1125.36 423.773 1126.37 426.349 1123.04 427.811C1119.55 429.365 1119.56 430.581 1123.1 434.415C1129.39 441.16 1127.83 444.901 1114.51 454.911C1108.02 459.783 1102.47 465.117 1102.19 466.769C1101.89 468.398 1094.81 474.909 1086.44 481.223C1078.05 487.534 1070.99 494.271 1070.73 496.169C1070.44 498.103 1072.27 497.704 1074.89 495.253C1077.46 492.835 1082.22 491.333 1085.49 491.884C1088.99 492.475 1092.63 490.561 1094.34 487.25C1096.03 483.935 1098.74 482.53 1100.93 483.811C1102.97 485.025 1106.83 484.442 1109.52 482.53C1115.89 478.001 1125.43 479.693 1126.61 485.535C1127.14 488.052 1128.95 490.36 1130.68 490.653C1132.39 490.941 1133.28 489.897 1132.65 488.355C1130.96 484.207 1145.97 478.466 1154.64 479.93C1158.75 480.624 1163.73 483.467 1165.7 486.226C1170.32 492.711 1183.86 494.956 1195.65 491.179C1203.54 488.648 1204.6 487.289 1202.8 481.99C1199.92 473.393 1203.59 470.371 1212.67 473.846C1217.76 475.797 1221.86 475.478 1224.85 472.887C1228.92 469.387 1230.09 469.727 1236.82 476.466C1241.11 480.77 1243.33 485.493 1242.08 487.648C1240.81 489.78 1241.66 491.664 1244.08 492.072C1248.92 492.889 1248.96 497.548 1244.16 499.509C1239.54 501.379 1242.7 507.314 1247.79 506.272C1250.58 505.71 1251.73 507.421 1251.1 511.138C1250.5 514.678 1252.94 518.588 1257.49 521.421C1267.89 527.889 1276.36 528.995 1275.94 523.806C1275.75 521.468 1275.87 515.238 1276.21 509.976C1276.72 501.95 1277.49 500.968 1280.97 503.759C1286.93 508.549 1296.08 506.958 1297.1 500.92C1298.21 494.331 1303.91 493.392 1311.6 498.533C1319.24 503.624 1328.3 499.046 1321.99 493.288C1318.82 490.406 1319.28 489.715 1324.71 489.156C1330.58 488.568 1331.06 487.637 1329.22 480.328C1328.1 475.83 1326.12 471.108 1324.86 469.843C1323.58 468.574 1323.98 465.326 1325.75 462.631C1327.51 459.913 1328.94 456.919 1328.94 455.968C1328.92 455.014 1334.81 452.366 1342 450.122C1352.88 446.698 1355.11 446.752 1355.29 450.402C1355.56 455.747 1360.47 457.101 1361.7 452.153C1362.19 450.213 1362.96 452.001 1363.38 456.137C1364.61 467.773 1369.34 465.861 1372.63 452.378C1375.06 442.392 1376.98 439.924 1383.26 438.678C1394.47 436.445 1396.96 437.512 1394 443.303C1391.54 448.066 1392.29 448.415 1403.87 447.78C1410.75 447.423 1418.18 448.173 1420.39 449.476C1424.79 452.079 1439.62 443.558 1440.57 437.874C1440.91 435.907 1445.19 430.886 1450.1 426.719C1457.52 420.425 1461.09 419.491 1471.38 421.227C1479.7 422.631 1484.03 424.798 1484.65 427.898C1486.65 437.762 1510.15 434.446 1510.6 424.226C1510.94 416.213 1517.64 407.796 1524.78 406.372C1528.9 405.551 1534.43 401.204 1537.05 396.711C1540.44 390.891 1543.22 389.155 1546.64 390.684C1549.31 391.883 1552.48 391.709 1553.72 390.321C1554.95 388.911 1558.25 388.78 1561.03 390.038C1563.83 391.3 1567.91 390.773 1570.11 388.879C1575.83 383.96 1570.57 375.971 1560.48 374.268C1549.17 372.359 1549.12 365.313 1560.39 356.696C1565.7 352.657 1569.46 349.225 1568.75 349.106C1568.02 348.983 1570.45 345.125 1574.16 340.552C1584.38 327.916 1596.98 320.961 1625.62 312.121C1630.76 310.541 1637.45 307.725 1640.51 305.895C1643.55 304.042 1647.16 303.518 1648.52 304.698C1649.87 305.898 1652.12 304.942 1653.51 302.587C1655.06 299.977 1657.72 299.293 1660.36 300.83C1663.54 302.722 1664.39 302.078 1663.63 298.328C1662.72 293.867 1664.62 293.802 1679.63 297.751C1693.1 301.32 1696.79 301.397 1697.33 298.211C1697.73 295.831 1695.08 293.684 1690.83 292.967C1682.51 291.563 1682.23 289.897 1689.44 284.764C1692.32 282.72 1694.3 279.232 1693.85 277.011C1693.39 274.689 1695.87 272.599 1699.67 272.088C1703.34 271.594 1710.3 269.29 1715.14 266.972C1724.43 262.532 1724.17 262.226 1723 275.52C1722.83 277.514 1723.81 280.349 1725.2 281.798C1726.76 283.457 1725.96 285.183 1723.02 286.426C1720.45 287.529 1718.91 289.231 1719.61 290.22C1720.87 292.009 1731.15 296.191 1738.16 297.78C1740.26 298.256 1740.73 299.952 1739.25 301.645C1737.47 303.671 1738.27 304.312 1741.69 303.614C1745.01 302.962 1746.52 304.066 1746.06 306.82C1745.67 309.121 1744.05 310.809 1742.48 310.544C1740.9 310.278 1739.72 311.069 1739.83 312.303C1739.97 313.539 1735.57 317.914 1730.04 322.018C1721.94 328.054 1719.18 328.74 1715.63 325.553C1712.18 322.483 1710.12 322.702 1705.99 326.595C1703.1 329.304 1700.21 334.44 1699.58 337.973C1698.67 342.877 1696.72 344.145 1691.39 343.245C1687.53 342.595 1683.8 340.63 1683.08 338.89C1681.16 334.178 1677.35 334.344 1674.44 339.273C1671.24 344.68 1678.71 353.263 1685.84 352.363C1689.54 351.895 1692.09 355.258 1694.96 364.399C1699.31 378.262 1696.41 385.499 1684.94 389.368C1681.08 390.658 1679.23 393.219 1679.87 396.361C1680.8 400.947 1681.21 400.997 1685.11 397.205C1687.44 394.927 1692.12 393.553 1695.48 394.121C1698.86 394.692 1701.87 393.764 1702.16 392.092C1702.76 388.512 1714.2 393.599 1716.23 398.331C1717.06 400.271 1718.45 400.385 1719.98 398.66C1723.09 395.119 1743.11 399.085 1745.07 403.624C1746.84 407.664 1733.9 418.304 1728.35 417.368C1723.63 416.571 1722.52 421.379 1726.9 423.716C1728.9 424.783 1729.07 433.387 1727.36 446.49C1725.83 458.065 1725.26 471.986 1726.09 477.385C1726.92 482.804 1727.66 489.908 1727.73 493.216C1727.8 496.505 1728.38 504.107 1728.98 510.096C1730.04 520.407 1729.75 520.925 1723.24 519.826C1714.68 518.382 1705.69 529.466 1702.29 545.641C1700.25 555.49 1699.37 556.515 1696.2 552.846C1692.99 549.127 1692.44 550.208 1692.07 561.048C1691.75 570.117 1690.62 573.344 1687.92 572.89C1681.77 571.851 1678.4 583.802 1682.51 592.143C1684.59 596.357 1688.49 606.32 1691.21 614.303C1696.11 628.784 1705.14 636.741 1706.63 627.93C1707.05 625.432 1709.48 623.758 1712.03 624.19C1715.18 624.721 1715.91 626.644 1714.29 630.234C1712.53 634.165 1713.76 636.375 1719.12 638.917C1723.09 640.801 1727.47 642.249 1728.88 642.164C1730.27 642.094 1733.74 643.207 1736.57 644.655C1742.66 647.786 1742.23 655.845 1736.04 654.799C1733.66 654.398 1731.32 656.491 1730.83 659.422C1729.52 667.131 1738.28 681.757 1744.89 682.873C1751.62 684.008 1753.98 692.295 1748.65 696.088C1746.56 697.576 1744.03 703.522 1743.06 709.304C1741.75 717.033 1742.89 721.472 1747.3 726.141C1753.02 732.163 1753.04 732.976 1747.57 742.835C1742.99 751.082 1742.57 753.317 1745.46 753.805C1750.24 754.612 1757.22 782.875 1755.37 793.868C1753.46 805.157 1746.05 804.027 1737.42 791.143C1733.88 785.853 1725.99 777.744 1719.87 773.112C1698.04 756.603 1660.6 708.171 1662.22 698.553C1663.52 690.903 1659.66 677.327 1656 676.709C1654.19 676.404 1654.6 675.077 1657.03 673.344C1662.99 669.11 1667.42 638.89 1662.87 633.591C1660.82 631.243 1659.56 626.945 1660.05 624.073C1660.53 621.202 1659.71 617.806 1658.23 616.505C1656.35 614.852 1656.63 613.18 1659.16 610.998C1661.76 608.767 1662.04 603.777 1660.11 593.641C1657.86 581.793 1658.19 578.511 1662.07 574.128C1667.38 568.148 1666.2 564.49 1654.02 549.064C1649.62 543.487 1647.4 537.226 1648.19 532.565C1649.65 523.911 1645.68 522.149 1638.97 528.46C1632.45 534.582 1632.14 539.1 1637.58 547.361C1640.23 551.409 1641.59 558.455 1640.72 563.628C1639.87 568.663 1639.31 576.862 1639.47 581.843C1639.67 589.14 1638.83 590.617 1635.15 589.409C1632.64 588.6 1629.08 584.783 1627.24 580.913C1623.39 572.8 1618.81 571.056 1617.76 577.29C1617.36 579.65 1614.97 581.249 1612.45 580.824C1609.95 580.402 1606.79 582.517 1605.43 585.525C1604.07 588.552 1601.9 590.836 1600.64 590.623C1596.57 589.936 1591.4 606.783 1594.19 611.602C1595.65 614.094 1596.3 623.791 1595.65 633.129C1595.01 642.466 1595.72 654.075 1597.22 658.941C1599.86 667.436 1600.21 667.636 1606.33 663.714C1610.07 661.331 1612.49 661.032 1612.16 662.979C1611.85 664.808 1607.9 668.57 1603.36 671.345C1598.83 674.1 1594.83 678.158 1594.46 680.341C1594.02 682.956 1592 683.405 1588.6 681.656C1585.73 680.182 1582.43 680.07 1581.26 681.409C1580.08 682.747 1576.64 682.734 1573.63 681.377C1569.82 679.66 1567.91 680.329 1567.36 683.554C1566.93 686.111 1565.64 687.876 1564.47 687.476C1556.18 684.702 1551.77 686.545 1548.93 693.996C1545.7 702.492 1541 706.332 1529.38 710.013C1525.7 711.173 1522.49 714.373 1522.27 717.147C1521.99 720.619 1520.96 721.154 1519 718.881C1517.08 716.634 1512.23 718.143 1503.87 723.549C1485.3 735.584 1479.65 742.763 1479.87 754.188C1479.97 759.605 1478.92 764.849 1477.52 765.827C1476.14 766.827 1473.67 774.016 1472.07 781.837C1470.47 789.637 1467.49 797.468 1465.45 799.208C1463.42 800.949 1460.46 810.825 1458.88 821.158C1457.3 831.49 1454.13 842.363 1451.82 845.332C1449.52 848.302 1447.09 853.979 1446.42 857.932C1445.75 861.885 1443.78 865.698 1442.04 866.416C1440.3 867.114 1438.44 870.199 1437.93 873.267C1437.21 877.515 1438.99 879.171 1445.42 880.257C1450.07 881.04 1454.88 880.539 1456.11 879.147C1457.36 877.74 1460.85 880.636 1463.96 885.63C1468.44 892.879 1469.74 893.685 1470.5 889.667C1471.62 883.586 1477.47 883.844 1476.44 889.921C1476.04 892.301 1477.66 894.557 1480.02 894.955C1482.38 895.354 1484.65 893.755 1485.05 891.375C1485.45 889.015 1487.71 887.393 1490.09 887.795C1494.99 888.622 1497.16 881.465 1493.1 877.886C1488.09 873.501 1498.4 867.918 1506.06 870.849C1522.87 877.307 1531.26 881.617 1530.85 883.57C1530.6 884.721 1534.22 891.037 1538.92 897.634C1544.26 905.151 1546.5 911.153 1544.97 913.766C1541.71 919.284 1544.39 939.721 1549.39 947.28C1551.56 950.599 1555.65 960.776 1558.46 969.887C1563.54 986.421 1563.52 986.621 1553.48 1038.31C1542.83 1093.06 1540.46 1102.43 1535.9 1107.63C1534.32 1109.41 1533.3 1114.01 1533.61 1117.84C1534.31 1126.86 1520.16 1148.36 1508.77 1155.6C1501.49 1160.22 1498.05 1160.51 1488.17 1157.45L1476.31 1153.75L1472.5 1165.08C1469.44 1174.07 1467.45 1176.2 1462.74 1175.41C1457.1 1174.45 1457.09 1174.27 1462.7 1171.45ZM1624.98 1052.03C1621.47 1046.44 1619.6 1040.14 1620.84 1038.04C1622.09 1035.95 1621.95 1034.02 1620.53 1033.78C1617.6 1033.29 1611.67 1015.58 1612.6 1010.09C1612.93 1008.11 1609.3 1003.04 1604.52 998.841C1599.73 994.634 1594.84 986.728 1593.63 981.266C1592.43 975.804 1588.04 964.767 1583.89 956.765C1579.72 948.759 1575.28 937.712 1573.98 932.214C1572.43 925.561 1569.69 921.903 1565.76 921.239C1559.88 920.246 1549.95 909.064 1550.76 904.305C1550.99 902.928 1549.53 899.849 1547.48 897.481C1545.45 895.136 1544.13 891.192 1544.54 888.753C1544.96 886.294 1543.48 881.494 1541.29 878.05C1538.19 873.197 1538.2 871.44 1541.31 870.164C1546.97 867.864 1545.31 852.433 1539.11 849.646C1536.27 848.378 1535.13 845.861 1536.43 843.673C1539.86 837.84 1543.77 840.016 1545.49 848.741C1546.35 853.094 1549.53 857.777 1552.51 859.13C1555.52 860.468 1557.66 863.397 1557.28 865.639C1556.91 867.862 1558.72 870.879 1561.33 872.33C1569.59 876.961 1572.57 881.61 1569.14 884.57C1565.04 888.106 1571.05 898.749 1580.85 905.278C1584.87 907.939 1587.92 911.447 1587.65 913.06C1587.38 914.673 1588.57 916.229 1590.3 916.522C1592.03 916.814 1600.22 925.376 1608.49 935.531C1616.77 945.687 1627.73 956.72 1632.86 960.052L1642.17 966.115L1628.4 964.034C1611.65 961.511 1609.36 964.421 1612.56 984.197C1615.75 1004.09 1622.29 1019.31 1628.07 1020.39C1630.7 1020.9 1635.05 1023.63 1637.73 1026.47C1640.4 1029.31 1644.83 1031.33 1647.55 1030.94C1654.1 1030.02 1659 1045.92 1652.92 1048.39C1650.75 1049.28 1647.91 1049.09 1646.62 1047.96C1645.35 1046.83 1646.23 1045.1 1648.61 1044.11C1651.78 1042.78 1651.97 1042.13 1649.34 1041.66C1643.16 1040.54 1632.94 1049.53 1634.97 1054.32C1640.15 1066.73 1633.19 1065.11 1624.98 1052.03ZM1613.66 1040.25C1614.03 1037.22 1615 1035.62 1615.78 1036.75C1616.59 1037.85 1616.27 1040.35 1615.09 1042.27C1613.78 1044.42 1613.23 1043.62 1613.66 1040.25ZM1695.85 1041.5C1697.23 1033.34 1699.34 1029.45 1702.77 1028.77C1706.96 1027.92 1707.13 1029.31 1703.89 1038.23C1698.31 1053.55 1693.48 1055.52 1695.85 1041.5ZM1709.81 1023.37C1706.47 1018.64 1712.56 993.934 1717.33 992.98C1719.84 992.473 1722.25 990.068 1722.66 987.669C1723.06 985.25 1724.68 983.479 1726.27 983.748C1730.18 984.409 1729.32 987.62 1722.28 998.79C1718.99 1004.02 1716.68 1010.35 1717.19 1012.86C1718.27 1018.2 1712.25 1026.77 1709.81 1023.37ZM1734.97 968.427C1735.7 963.352 1737.73 958.638 1739.47 957.94C1743.27 956.397 1741.84 964.854 1737.05 972.277C1734.16 976.767 1733.82 976.163 1734.97 968.427ZM1751.23 925.984C1751.9 922.031 1752.82 920.528 1753.29 922.631C1753.75 924.73 1753.2 927.975 1752.08 929.809C1750.94 931.64 1750.57 929.917 1751.23 925.984ZM1467.65 863.357C1466.94 861.617 1467.73 860.415 1469.4 860.698C1471.07 860.98 1472.21 862.507 1471.94 864.08C1471.68 865.654 1470.89 866.855 1470.2 866.739C1469.51 866.623 1468.35 865.093 1467.65 863.357ZM1749.39 872.395C1747.48 867.682 1749.84 866.523 1753.96 870.152C1756.16 872.081 1756.21 873.606 1754.08 874.48C1752.28 875.208 1750.17 874.265 1749.39 872.395ZM1748.55 851.722C1748.82 850.149 1750.32 849.067 1751.91 849.336C1753.48 849.601 1754.54 851.115 1754.28 852.688C1754.01 854.281 1752.51 855.344 1750.94 855.078C1749.35 854.809 1748.29 853.315 1748.55 851.722ZM1748.11 835.425C1748.12 833.808 1748.49 831.484 1748.9 830.278C1749.33 829.056 1748.81 825.53 1747.77 822.423C1746.48 818.584 1747.12 815.88 1749.74 814.016C1754.57 810.583 1759.37 811.151 1756.18 814.78C1754.88 816.26 1754.85 819.227 1756.12 821.423C1757.68 824.115 1756.76 827.438 1753.24 831.861C1750.39 835.446 1748.08 837.038 1748.11 835.425ZM1581.13 689.337C1581.25 688.649 1582.78 687.491 1584.51 686.793C1586.27 686.078 1587.45 686.865 1587.17 688.536C1586.89 690.208 1585.38 691.369 1583.79 691.1C1582.21 690.834 1581.01 690.045 1581.13 689.337ZM719.257 409.4C720.057 404.66 722.009 401.005 723.582 401.271C725.155 401.536 725.8 405.63 725 410.37C724.2 415.109 722.248 418.765 720.674 418.499C719.101 418.234 718.457 414.14 719.257 409.4ZM1118.85 465.393C1118.2 463.808 1119.73 462.083 1122.24 461.577C1124.75 461.07 1126.61 461.828 1126.36 463.264C1125.71 467.158 1120.19 468.714 1118.85 465.393ZM838.298 406.149C835.709 403.872 835.767 402.688 838.527 401.556C842.868 399.801 845.476 402.446 843.304 406.448C842.402 408.076 840.34 407.95 838.298 406.149ZM712.272 375.999C707.305 367.555 706.764 364.41 709.819 361.77C714.976 357.341 713.824 343.553 708.239 342.611C704.836 342.036 704.727 340.764 707.749 336.885C710.159 333.752 713.502 332.758 716.735 334.214C719.877 335.614 725.504 334.157 731.121 330.473C741.743 323.507 745.137 323.534 751.903 330.663C756.572 335.598 756.217 336.145 742.335 344.927C729.268 353.199 727.443 355.622 723.262 370.451L718.634 386.843L712.272 375.999ZM640.731 361.72C637.952 357.812 639.709 354.953 646.205 352.773C651.242 351.095 652.723 351.668 653.521 355.686C654.869 362.326 644.605 367.168 640.731 361.72ZM1315.77 438.493C1313.98 428.928 1322.72 425.831 1333.55 432.231C1339.62 435.824 1338.24 438.625 1329.22 441.026C1319.2 443.704 1316.65 443.233 1315.77 438.493ZM759.127 330.527C757.7 326.281 757.992 324.429 759.998 324.768C761.631 325.043 762.925 323.603 762.864 321.57C762.79 319.494 764.903 318.597 767.636 319.544C770.31 320.48 772.707 320.056 772.953 318.6C773.199 317.145 777.548 314.986 782.616 313.839C787.688 312.673 791.977 310.868 792.153 309.826C792.329 308.783 795.842 308.223 799.973 308.556C804.1 308.909 809.771 308.39 812.57 307.385C815.605 306.3 820.224 307.1 824.052 309.344C827.57 311.394 831.827 312.537 833.501 311.849C835.171 311.18 838.182 312.517 840.193 314.859C842.594 317.651 849.273 319.426 859.997 320.123C872.666 320.927 876.365 322.138 877.083 325.677C877.576 328.147 877.036 330.868 875.844 331.698C872.623 334.006 844.938 332.408 841.907 329.753C840.467 328.458 832.311 327.405 823.819 327.388C815.323 327.39 804.627 327.122 800.067 326.817C795.506 326.513 790.724 327.284 789.459 328.547C788.174 329.806 783.847 330.634 779.821 330.399C775.799 330.145 770.756 331.62 768.61 333.665C763.429 338.596 761.647 338.012 759.127 330.527ZM1306.53 427.529C1306.65 426.821 1308.18 425.683 1309.92 424.965C1311.68 424.27 1312.86 425.056 1312.58 426.728C1312.29 428.4 1310.79 429.541 1309.19 429.272C1307.62 429.007 1306.42 428.217 1306.53 427.529ZM197.611 235.149C196.383 232.838 194.942 228.55 194.424 225.63C193.879 222.504 190.55 219.818 186.381 219.115C182.486 218.457 178.684 216.42 177.956 214.618C177.085 212.469 179.099 212.404 183.711 214.437C189.569 217.003 190.983 216.534 191.783 211.794C193.529 201.449 207.614 203.927 206.064 214.305C205.905 215.492 207.764 216.817 210.223 217.232C213.645 217.81 214.062 220.49 212.009 228.578C209.16 239.708 201.861 243.047 197.611 235.149ZM1282.93 414.725C1276.47 410.298 1272.76 395.978 1276.46 389.726C1279.24 385.016 1282.47 385.279 1289.57 390.786C1295.79 395.576 1300.1 393.755 1296.05 388.035C1291.5 381.645 1293.05 380.835 1306.55 382.485C1319.47 384.079 1327.04 390.535 1322.28 395.942C1318.58 400.151 1309.3 397.351 1306.73 391.234C1305.16 387.47 1304.53 387.121 1304.79 390.158C1305 392.621 1307.79 396.571 1310.98 398.909L1316.78 403.164L1307.87 407.163C1302.99 409.353 1297.9 410.618 1296.59 409.972C1295.29 409.327 1294.63 410.795 1295.13 413.245C1296.31 419.087 1290.34 419.8 1282.93 414.725ZM1055.34 358.089C1059.65 352.546 1063.45 346.35 1063.78 344.364C1064.12 342.358 1065.68 340.941 1067.27 341.21C1068.84 341.475 1069.92 342.993 1069.66 344.566C1069.39 346.139 1070.55 347.67 1072.24 347.955C1077.23 348.798 1082.77 358.411 1080.48 362.291C1079.32 364.26 1074.57 366.047 1069.94 366.257C1065.29 366.484 1058.34 367.01 1054.49 367.432L1047.5 368.195L1055.34 358.089ZM1033.8 342.741C1024.88 335.755 1026 324.697 1036.1 319.888C1045.2 315.559 1048.98 316.196 1045.83 321.551C1043.94 324.731 1044.75 325.556 1049.12 324.938C1056.02 323.959 1058.85 329.27 1054.75 335.557C1053.12 338.033 1051.68 342.381 1051.56 345.214C1051.28 351.558 1043.71 350.503 1033.8 342.741ZM1330.69 383.423C1329.5 380.411 1336.02 376.394 1341.7 376.645C1344.11 376.749 1349.47 376.419 1353.6 375.922C1360.89 375.009 1360.94 375.16 1355.57 380.907C1350.16 386.67 1332.67 388.431 1330.69 383.423ZM1019.77 319.419C1016.88 315.35 1018.89 312.554 1022.99 314.966C1025.2 316.269 1026.82 318.505 1026.59 319.901C1026.08 322.911 1022.06 322.637 1019.77 319.419ZM1027.29 309.381C1026.03 303.099 1032.75 294.059 1038.04 294.952C1040.2 295.317 1042.84 294.103 1043.88 292.256C1046.4 287.746 1048.37 290.648 1048.96 299.768C1049.56 309.134 1046.01 313.026 1036.09 313.799C1030.39 314.253 1028.04 313.068 1027.29 309.381ZM1535.82 380.766C1535.92 380.136 1538.06 379.223 1540.59 378.72C1543.11 378.194 1544.97 379.033 1544.71 380.568C1544.45 382.102 1542.29 383.012 1539.93 382.614C1537.55 382.212 1535.71 381.375 1535.82 380.766ZM900.845 233.183C900.075 231.273 900.776 228.802 902.385 227.657C906.342 224.826 912.982 231.024 909.827 234.618C906.645 238.247 902.666 237.616 900.845 233.183ZM916.756 236.111C917.021 234.537 919.895 233.687 923.14 234.235C926.405 234.786 928.035 236.396 926.806 237.807C925.557 239.214 922.683 240.064 920.401 239.679C918.12 239.294 916.49 237.684 916.756 236.111ZM895.774 211.937C895.023 210.152 896.267 209.856 898.657 211.271C903.311 214.019 903.867 216.236 899.737 215.539C898.243 215.287 896.472 213.673 895.774 211.937ZM863.239 194.613C854.787 190.881 856.585 190.173 870.144 191.935C874.399 192.492 878.149 194.601 878.459 196.596C879.081 200.584 875.757 200.144 863.239 194.613ZM859.764 183.205C858.881 181.964 858.341 180.012 858.536 178.851C859.005 176.078 869.606 180.861 871.077 184.487C872.395 187.704 862.134 186.538 859.764 183.205ZM1566.23 291.072C1563.22 279.763 1564.56 275.277 1571.73 272.865C1578.65 270.555 1578.8 271.004 1575.59 285.33C1572.65 298.529 1568.84 300.859 1566.23 291.072Z" fill="#502F5A"/>
<path fill-rule="evenodd" clip-rule="evenodd" d="M419.5 411C432.478 411 443 421.164 443 433.701C443 441.997 435.891 450.769 421.976 460.325L419.5 462L418.005 460.993C403.442 451.178 396 442.19 396 433.701C396 421.164 406.521 411 419.5 411ZM419.5 443C424.746 443 429 438.747 429 433.5C429 428.253 424.746 424 419.5 424C414.253 424 410 428.253 410 433.5C410 438.747 414.253 443 419.5 443Z" fill="white"/>
<path d="M389.234 502.49L388.892 505.082L384.302 505.082L384.302 515L380.972 515L380.972 502.49L389.234 502.49ZM390.973 511.85C391.453 511.85 391.861 512.024 392.197 512.372C392.545 512.708 392.719 513.116 392.719 513.596C392.719 514.076 392.545 514.484 392.197 514.82C391.861 515.156 391.453 515.324 390.973 515.324C390.493 515.324 390.079 515.156 389.731 514.82C389.395 514.484 389.227 514.076 389.227 513.596C389.227 513.116 389.395 512.708 389.731 512.372C390.079 512.024 390.493 511.85 390.973 511.85ZM411.633 502.49L411.633 515L408.303 515L408.303 504.992L406.125 504.992L405.675 508.862C405.519 510.278 405.303 511.412 405.027 512.264C404.751 513.104 404.343 513.776 403.803 514.28C403.275 514.784 402.537 515.132 401.589 515.324L400.815 513.038C401.235 512.858 401.547 512.618 401.751 512.318C401.967 512.006 402.129 511.592 402.237 511.076C402.345 510.56 402.465 509.75 402.597 508.646L403.335 502.49L411.633 502.49ZM420.62 502.166C422.432 502.166 423.842 502.742 424.85 503.894C425.858 505.046 426.362 506.66 426.362 508.736C426.362 510.092 426.134 511.268 425.678 512.264C425.234 513.248 424.58 514.004 423.716 514.532C422.852 515.06 421.82 515.324 420.62 515.324C418.808 515.324 417.398 514.748 416.39 513.596C415.394 512.444 414.896 510.824 414.896 508.736C414.896 507.38 415.118 506.21 415.562 505.226C416.018 504.242 416.672 503.486 417.524 502.958C418.388 502.43 419.42 502.166 420.62 502.166ZM420.62 504.56C419.84 504.56 419.264 504.884 418.892 505.532C418.532 506.18 418.352 507.248 418.352 508.736C418.352 510.224 418.538 511.298 418.91 511.958C419.282 512.606 419.852 512.93 420.62 512.93C421.412 512.93 421.988 512.606 422.348 511.958C422.708 511.31 422.888 510.236 422.888 508.736C422.888 507.248 422.708 506.18 422.348 505.532C421.988 504.884 421.412 504.56 420.62 504.56ZM434.182 506.882C435.79 506.882 437.026 507.218 437.89 507.89C438.766 508.55 439.204 509.528 439.204 510.824C439.204 512.18 438.754 513.218 437.854 513.938C436.954 514.646 435.766 515 434.29 515L429.61 515L429.61 502.49L437.71 502.49L437.386 504.992L432.94 504.992L432.94 506.882L434.182 506.882ZM433.912 512.624C434.512 512.624 434.962 512.474 435.262 512.174C435.574 511.874 435.73 511.436 435.73 510.86C435.73 509.72 435.1 509.15 433.84 509.15L432.94 509.15L432.94 512.624L433.912 512.624ZM448.863 515L448.863 509.798L445.551 509.798L445.551 515L442.221 515L442.221 502.49L445.551 502.49L445.551 507.224L448.863 507.224L448.863 502.49L452.193 502.49L452.193 515L448.863 515ZM464.939 502.49L464.939 515L461.609 515L461.609 510.626L460.439 510.626L458.477 515L454.823 515L457.505 510.032C456.797 509.72 456.263 509.282 455.903 508.718C455.543 508.154 455.363 507.434 455.363 506.558C455.363 503.846 457.103 502.49 460.583 502.49L464.939 502.49ZM461.609 508.34L461.609 504.812L460.763 504.812C460.127 504.812 459.647 504.968 459.323 505.28C458.999 505.592 458.837 506.048 458.837 506.648C458.837 507.2 458.993 507.62 459.305 507.908C459.617 508.196 460.031 508.34 460.547 508.34L461.609 508.34Z" fill="white"/>
<path d="M397.088 530.27C398.394 530.27 399.407 530.545 400.126 531.096C400.854 531.637 401.218 532.435 401.218 533.49C401.218 534.591 400.868 535.431 400.168 536.01C399.468 536.579 398.525 536.864 397.34 536.864L396.346 536.864L396.346 540L393.756 540L393.756 530.27L397.088 530.27ZM397.102 535.016C397.587 535.016 397.951 534.895 398.194 534.652C398.446 534.409 398.572 534.027 398.572 533.504C398.572 532.561 398.063 532.09 397.046 532.09L396.346 532.09L396.346 535.016L397.102 535.016ZM407.706 530.018C409.115 530.018 410.212 530.466 410.996 531.362C411.78 532.258 412.172 533.513 412.172 535.128C412.172 536.183 411.995 537.097 411.64 537.872C411.295 538.637 410.786 539.225 410.114 539.636C409.442 540.047 408.639 540.252 407.706 540.252C406.297 540.252 405.2 539.804 404.416 538.908C403.641 538.012 403.254 536.752 403.254 535.128C403.254 534.073 403.427 533.163 403.772 532.398C404.127 531.633 404.635 531.045 405.298 530.634C405.97 530.223 406.773 530.018 407.706 530.018ZM407.706 531.88C407.099 531.88 406.651 532.132 406.362 532.636C406.082 533.14 405.942 533.971 405.942 535.128C405.942 536.285 406.087 537.121 406.376 537.634C406.665 538.138 407.109 538.39 407.706 538.39C408.322 538.39 408.77 538.138 409.05 537.634C409.33 537.13 409.47 536.295 409.47 535.128C409.47 533.971 409.33 533.14 409.05 532.636C408.77 532.132 408.322 531.88 407.706 531.88ZM418.842 530.018C419.458 530.018 420.013 530.111 420.508 530.298C421.003 530.485 421.465 530.76 421.894 531.124L420.676 532.566C420.387 532.351 420.107 532.188 419.836 532.076C419.565 531.964 419.276 531.908 418.968 531.908C418.352 531.908 417.871 532.174 417.526 532.706C417.181 533.238 417.008 534.041 417.008 535.114C417.008 536.187 417.181 536.985 417.526 537.508C417.881 538.031 418.371 538.292 418.996 538.292C419.332 538.292 419.64 538.227 419.92 538.096C420.209 537.956 420.522 537.755 420.858 537.494L422.006 538.95C421.623 539.333 421.161 539.645 420.62 539.888C420.088 540.131 419.509 540.252 418.884 540.252C417.96 540.252 417.153 540.056 416.462 539.664C415.781 539.263 415.253 538.679 414.88 537.914C414.507 537.139 414.32 536.206 414.32 535.114C414.32 534.05 414.511 533.135 414.894 532.37C415.277 531.605 415.809 531.021 416.49 530.62C417.171 530.219 417.955 530.018 418.842 530.018ZM428.076 530.018C428.692 530.018 429.247 530.111 429.742 530.298C430.237 530.485 430.699 530.76 431.128 531.124L429.91 532.566C429.621 532.351 429.341 532.188 429.07 532.076C428.799 531.964 428.51 531.908 428.202 531.908C427.586 531.908 427.105 532.174 426.76 532.706C426.415 533.238 426.242 534.041 426.242 535.114C426.242 536.187 426.415 536.985 426.76 537.508C427.115 538.031 427.605 538.292 428.23 538.292C428.566 538.292 428.874 538.227 429.154 538.096C429.443 537.956 429.756 537.755 430.092 537.494L431.24 538.95C430.857 539.333 430.395 539.645 429.854 539.888C429.322 540.131 428.743 540.252 428.118 540.252C427.194 540.252 426.387 540.056 425.696 539.664C425.015 539.263 424.487 538.679 424.114 537.914C423.741 537.139 423.554 536.206 423.554 535.114C423.554 534.05 423.745 533.135 424.128 532.37C424.511 531.605 425.043 531.021 425.724 530.62C426.405 530.219 427.189 530.018 428.076 530.018ZM441.125 540L438.591 540L438.591 536.696C438.591 535.343 438.717 534.036 438.969 532.776L436.533 540L433.439 540L433.439 530.27L435.973 530.27L435.973 533.672C435.973 534.456 435.941 535.119 435.875 535.66C435.81 536.201 435.717 536.799 435.595 537.452L438.101 530.27L441.125 530.27L441.125 540ZM451.055 530.27L451.055 540L448.465 540L448.465 536.598L447.555 536.598L446.029 540L443.187 540L445.273 536.136C444.722 535.893 444.307 535.553 444.027 535.114C443.747 534.675 443.607 534.115 443.607 533.434C443.607 531.325 444.96 530.27 447.667 530.27L451.055 530.27ZM448.465 534.82L448.465 532.076L447.807 532.076C447.312 532.076 446.939 532.197 446.687 532.44C446.435 532.683 446.309 533.037 446.309 533.504C446.309 533.933 446.43 534.26 446.673 534.484C446.915 534.708 447.237 534.82 447.639 534.82L448.465 534.82Z" fill="white"/>
</g>
<defs>
<clipPath id="clip0">
<rect width="1728.46" height="941.659" fill="white" transform="translate(156.714) rotate(9.57995)"/>
</clipPath>
</defs>
</svg>
