<svg width="17" height="18" viewBox="0 0 17 18" fill="none" xmlns="http://www.w3.org/2000/svg">
<path fill-rule="evenodd" clip-rule="evenodd" d="M13.4587 3.33331C14.6323 3.33331 15.5837 4.28471 15.5837 5.45831V12.5416C15.5837 13.7153 14.6323 14.6666 13.4587 14.6666H3.54199C2.36839 14.6666 1.41699 13.7153 1.41699 12.5416V5.45831C1.41699 4.28471 2.36839 3.33331 3.54199 3.33331H13.4587ZM14.167 5.69065L8.96677 10.2414C8.72196 10.4556 8.36649 10.4734 8.10324 10.2949L8.03389 10.2414L2.83366 5.69135V12.5416C2.83366 12.9328 3.15079 13.25 3.54199 13.25H13.4587C13.8499 13.25 14.167 12.9328 14.167 12.5416V5.69065ZM13.0903 4.74998H3.90891L8.50033 8.7671L13.0903 4.74998Z" fill="white"/>
</svg>
