<svg width="17" height="18" viewBox="0 0 17 18" fill="none" xmlns="http://www.w3.org/2000/svg">
<path fill-rule="evenodd" clip-rule="evenodd" d="M8.50033 1.91669C12.4123 1.91669 15.5837 5.088 15.5837 9.00002C15.5837 12.912 12.4123 16.0834 8.50033 16.0834C4.58831 16.0834 1.41699 12.912 1.41699 9.00002C1.41699 5.088 4.58831 1.91669 8.50033 1.91669ZM8.50033 3.33335C5.37071 3.33335 2.83366 5.87041 2.83366 9.00002C2.83366 12.1296 5.37071 14.6667 8.50033 14.6667C11.6299 14.6667 14.167 12.1296 14.167 9.00002C14.167 5.87041 11.6299 3.33335 8.50033 3.33335ZM8.50033 4.75002C8.86358 4.75002 9.16298 5.02347 9.20389 5.37575L9.20866 5.45835V8.70662L10.4179 9.91582C10.6945 10.1924 10.6945 10.6409 10.4179 10.9176C10.1625 11.1729 9.76073 11.1925 9.48285 10.9765L9.41613 10.9176L7.99946 9.50089C7.88876 9.39019 7.81849 9.24662 7.79814 9.09313L7.79199 9.00002V5.45835C7.79199 5.06715 8.10912 4.75002 8.50033 4.75002Z" fill="white"/>
</svg>
