<svg width="20" height="20" viewBox="0 0 20 20" fill="none" xmlns="http://www.w3.org/2000/svg">
<path fill-rule="evenodd" clip-rule="evenodd" d="M10.0003 1.66675C14.6027 1.66675 18.3337 5.39771 18.3337 10.0001C18.3337 14.6025 14.6027 18.3334 10.0003 18.3334C5.39795 18.3334 1.66699 14.6025 1.66699 10.0001C1.66699 5.39771 5.39795 1.66675 10.0003 1.66675ZM10.0003 3.33341C6.31843 3.33341 3.33366 6.31818 3.33366 10.0001C3.33366 13.682 6.31843 16.6667 10.0003 16.6667C13.6822 16.6667 16.667 13.682 16.667 10.0001C16.667 6.31818 13.6822 3.33341 10.0003 3.33341ZM12.7444 6.91083L8.33366 11.3216L7.25625 10.2442C6.93081 9.91872 6.40317 9.91872 6.07774 10.2442C5.7523 10.5696 5.7523 11.0972 6.07774 11.4227L7.7444 13.0893C8.06984 13.4148 8.59748 13.4148 8.92291 13.0893L13.9229 8.08934C14.2484 7.7639 14.2484 7.23626 13.9229 6.91083C13.5975 6.58539 13.0698 6.58539 12.7444 6.91083Z" fill="white"/>
</svg>
